/* XPM */
static char *aguaviva1706013318[] = {
/* columns rows colors chars-per-pixel */
"32 32 106 2 ",
"   c None",
".  c #A34FAF",
"X  c #A44FB0",
"o  c #A450B0",
"O  c #A550B1",
"+  c #A753B4",
"@  c #A853B4",
"#  c #A854B5",
"$  c #AA55B7",
"%  c #AA56B7",
"&  c #B05BBD",
"*  c #B25DBF",
"=  c #B35EC1",
"-  c #B963C7",
";  c #C16BD1",
":  c #C36CD3",
">  c #C46DD3",
",  c #C66ED5",
"<  c #CA72DB",
"1  c #CB73DB",
"2  c #D077E2",
"3  c #D178E2",
"4  c #D279E4",
"5  c #D57BE6",
"6  c #D67CE8",
"7  c #D77DE9",
"8  c #DA7FEC",
"9  c #DB80ED",
"0  c #DC81EE",
"q  c #DF84F2",
"w  c #E185F4",
"e  c #E286F5",
"r  c #E487F7",
"t  c #E488F8",
"y  c #E588F8",
"u  c #E689FA",
"i  c #E78AFB",
"p  c #E88BFC",
"a  c #E98BFC",
"s  c #E98BFD",
"d  c #E98CFD",
"f  c #EA8CFD",
"g  c #EA8DFE",
"h  c #EB8DFF",
"j  c #EB8EFF",
"k  c #EB8FFF",
"l  c #EB90FF",
"z  c #EB91FF",
"x  c #EA92FF",
"c  c #EA93FF",
"v  c #EA94FF",
"b  c #EA95FF",
"n  c #EA96FF",
"m  c #EA97FF",
"M  c #E69BFC",
"N  c #E999FF",
"B  c #EA98FF",
"V  c #E99BFF",
"C  c #E99CFF",
"Z  c #E99EFF",
"A  c #E99FFF",
"S  c #E7A7FF",
"D  c #E9A0FF",
"F  c #E8A1FF",
"G  c #E8A2FF",
"H  c #E8A3FF",
"J  c #E8A4FF",
"K  c #E8A5FF",
"L  c #E8A6FF",
"P  c #E8A7FF",
"I  c #E7A8FF",
"U  c #E7A9FF",
"Y  c #E7AAFF",
"T  c #E7ABFF",
"R  c #E7ACFF",
"E  c #E7ADFF",
"W  c #E6AEFF",
"Q  c #E7AEFF",
"!  c #E6AFFF",
"~  c #E6B0FF",
"^  c #E6B1FF",
"/  c #E5B2FF",
"(  c #E6B2FF",
")  c #E6B3FF",
"_  c #E5B4FF",
"`  c #E5B5FF",
"'  c #E6B4FF",
"]  c #E5B6FF",
"[  c #E5B7FF",
"{  c #E4B8FF",
"}  c #E5B8FF",
"|  c #E4B9FF",
" . c #E5B9FF",
".. c #E4BAFF",
"X. c #E4BBFF",
"o. c #E3BDFF",
"O. c #E3BEFF",
"+. c #E3BFFF",
"@. c #E4BCFF",
"#. c #E4BDFF",
"$. c #E4BEFF",
"%. c #E4BFFF",
"&. c #E3C0FF",
"*. c #E3C1FF",
"=. c #E2C7FF",
"-. c #E1CFFF",
/* pixels */
"                  $.) Q Q )                                     ",
"              ) V h 8 w h h h M ]                               ",
"          &.V h w # . . 2 h 6 o 4 V &.                          ",
"        } h h h , . . . 1 h y , 5 h x $.                        ",
"      ] h h h h 8 & = < h h h h h h h v                         ",
"      x h h h h h h h h h h h h h h h h Q                       ",
"    P h x h h h h h h 0 # - a h h h h h v                       ",
"    h T } h h h h h h 0 o . w h h h h h h &.                    ",
"  ] h } o.h h h h h h h t t h h h h h h h $.                    ",
"  E h ] $.V h h h h h h h h h h h h h h v                       ",
"  Q h ] o.x h h h h h h h h h h h h h h ) T &.                  ",
"  Q h $.} h h h y h h h h h h h h h h E E p } E E ]             ",
"  ) h } &.T h ; . + < h h h h h h h A H l ] A h h h l Q         ",
"  $.h x o.S t X . . . 2 h h h h h h H h }       ) A h h E       ",
"    A h X.T p + . . . > h h h h h h l Y E Y Y ]     A h l       ",
"    $.h ) o.V 6 @ . * e h h h h h h h ) h h h h v } } h h $.    ",
"      ^ l ] H h p r h h h h l h h h x } P H h h h h $.h h ]     ",
"        ] h h h h h h h x Y h x ) )           Y h h V H h ]     ",
"          &.P l h h h ] E v h $.                E h h v h ^     ",
"                ] } } H x H ] =.                  h h h h H     ",
"                  ] h P ) } l }                   l h h h h }   ",
"                    &.H l ) h                     h h P h h P   ",
"                    $.h Y E h }                   h h ] ^ P $.  ",
"                    E h E ^ h Y                   h h E         ",
"                    Y h E   l l &.                h h Y         ",
"                    E h V   E h h A Y Y Y E ^     V h E         ",
"                    } h h Y -.A h h h h h h h H     ]           ",
"                      B h h b P l h E } ^ b h h                 ",
"                      } h h h h h h h E     ^ ^                 ",
"                        } H H P H h h h ^                       ",
"                                    P h ]                       ",
"                                                                "
};
