/* XPM */
static char *aguavivasea1706016840[] = {
/* columns rows colors chars-per-pixel */
"32 32 211 2 ",
"   c #A551B2",
".  c #AA56B7",
"X  c #B15CBF",
"o  c #B661C4",
"O  c #B863C6",
"+  c #BA64C8",
"@  c #C56ED5",
"#  c #C86FD8",
"$  c #CB73DC",
"%  c #CE79DF",
"&  c #D077E1",
"*  c #D27DE4",
"=  c #D77DE9",
"-  c #D97EEB",
";  c #59AFC6",
":  c #54BCCA",
">  c #5DBDD4",
",  c #68B9C8",
"<  c #79BBC7",
"1  c #64BDD3",
"2  c #6ABDD5",
"3  c #6CBDDB",
"4  c #71BCD5",
"5  c #79BCD5",
"6  c #56C5D5",
"7  c #5CC2D5",
"8  c #5AC9DD",
"9  c #5DCBDD",
"0  c #77C4CE",
"q  c #65C0D5",
"w  c #6CC2D6",
"e  c #6AC9D7",
"r  c #64C5DB",
"t  c #6CC5DC",
"y  c #64CBDD",
"u  c #6AC9DD",
"i  c #71C4D5",
"p  c #7AC5D6",
"a  c #72C4DC",
"s  c #7BC6DA",
"d  c #72CBDD",
"f  c #7ECADC",
"g  c #6DD2DE",
"h  c #5FC4E2",
"j  c #5FCCE3",
"k  c #5FCBE9",
"l  c #5FD2E5",
"z  c #65C6E3",
"x  c #6BC7E2",
"c  c #63CBE2",
"v  c #6BCBE4",
"b  c #61CAE9",
"n  c #6FCFE8",
"m  c #73CBE4",
"M  c #76CAE6",
"N  c #7CCAE1",
"B  c #6CD4E6",
"V  c #64D5E8",
"C  c #6BD4EB",
"Z  c #74D3E4",
"A  c #7CD5E3",
"S  c #7EDBE2",
"D  c #74D5EC",
"F  c #7CD6E9",
"G  c #82BED6",
"H  c #8ABEDE",
"J  c #93B7E2",
"K  c #9DBCE4",
"L  c #A4BCE3",
"P  c #ACB8E5",
"I  c #ADBCED",
"U  c #B5B4EB",
"Y  c #B5BAEE",
"T  c #BDB4F1",
"R  c #BAB9F3",
"E  c #C386DC",
"W  c #DB80EE",
"Q  c #D48BEA",
"!  c #C99EEB",
"~  c #DE83F1",
"^  c #DB9BF7",
"/  c #E185F4",
"(  c #E68AF9",
")  c #EA8DFE",
"_  c #E393F7",
"`  c #E595FD",
"'  c #EA93FF",
"]  c #E59BFD",
"[  c #E99BFF",
"{  c #C2B1EE",
"}  c #C2BBEF",
"|  c #C5ADF2",
" . c #CAACF4",
".. c #D8A7F7",
"X. c #D2ABF6",
"o. c #D6AAF7",
"O. c #D6A6F9",
"+. c #DCA4FB",
"@. c #D6ACF9",
"#. c #DBACFA",
"$. c #C5B4F2",
"%. c #CBB3F5",
"&. c #C3BDF3",
"*. c #CBB9F6",
"=. c #CEB4F8",
"-. c #D2B5F7",
";. c #D3B3FA",
":. c #DCB3FC",
">. c #D4B9FB",
",. c #E4A3FD",
"<. c #E8A2FF",
"1. c #E5AAFE",
"2. c #E8A8FF",
"3. c #E4B3FF",
"4. c #E1BBFF",
"5. c #87C2CD",
"6. c #87C7D1",
"7. c #8BC7D2",
"8. c #8CCBD6",
"9. c #8CC7DA",
"0. c #82CDDB",
"q. c #8BCDDD",
"w. c #99C0D7",
"e. c #93CBD6",
"r. c #8CD2DD",
"t. c #87DEDE",
"y. c #8BD9DD",
"u. c #A3CEDC",
"i. c #82E0DF",
"p. c #8CC3E0",
"a. c #86C8E1",
"s. c #83CCE3",
"d. c #8DC6EB",
"f. c #83CCEA",
"g. c #94C3E4",
"h. c #93CDE6",
"j. c #9CC2EA",
"k. c #95C9E9",
"l. c #8CD4E4",
"z. c #87D8E5",
"x. c #8CDBE4",
"c. c #82D7EA",
"v. c #8BD5E8",
"b. c #8CDBEA",
"n. c #92D4E3",
"m. c #96DBE4",
"M. c #99DBE3",
"N. c #92D5EA",
"B. c #9BD3EB",
"V. c #93DCEC",
"C. c #9ADBEA",
"Z. c #97C6F0",
"A. c #87D5F0",
"S. c #8DDAF1",
"D. c #91D7F0",
"F. c #92DCF2",
"G. c #99DEF2",
"H. c #AAC7E7",
"J. c #A4C2EA",
"K. c #A3CEEB",
"L. c #B6C2ED",
"P. c #B8C4E8",
"I. c #AAD3E4",
"U. c #A2D8E5",
"Y. c #A2D3EA",
"T. c #B4D7EC",
"R. c #A6CAF3",
"E. c #BCC3F1",
"W. c #B4C9F1",
"Q. c #A4D6F1",
"!. c #A1DAF3",
"~. c #A4DCFA",
"^. c #ABDCFD",
"/. c #B3D6F6",
"(. c #89E1E8",
"). c #9EE1EA",
"_. c #90E2F4",
"`. c #9AE2F4",
"'. c #93EBFB",
"]. c #9BECFD",
"[. c #9BF1FF",
"{. c #A3E2EB",
"}. c #A7E8F8",
"|. c #A5EDFD",
" X c #B3E6FB",
".X c #BDEBFF",
"XX c #A6F2FF",
"oX c #ABF5FF",
"OX c #A6FBFF",
"+X c #ACFBFF",
"@X c #B4FCFF",
"#X c #BBFFFF",
"$X c #C9C8EF",
"%X c #C4C3F6",
"&X c #CFC6FF",
"*X c #CCCDFE",
"=X c #D1C0FF",
"-X c #D9C2FF",
";X c #D4CEFF",
":X c #C7DBFF",
">X c #D2D4FF",
",X c #D8D5FF",
"<X c #E2C8FF",
"1X c #C7E6FF",
"2X c #DBE9FF",
"3X c #C0F3FF",
"4X c #C1FFFF",
"5X c #CCFEFF",
"6X c #DBF3FF",
"7X c #D4FFFF",
"8X c #E0E2FF",
/* pixels */
"y c c j j j c c j c c n r r F @X9.}.7X}.oX+X, t v c k k k k c r ",
"y c y c y j j b c r y y r m '.q.h.7.7.{.).r.].t c b k k k k z m ",
"y y c y c j c m k.I { X.@.;.&XH.H.Y.8.8.6.y.+Xt c b k k j c c 1 ",
"u z c c j v f.I -.! E E Q ^ ^ ! { L.w.M.).0.+Xt y c k j j c u w ",
"x c u c v d.R O._ * X X # ~ ~ % Q ..&.T.m.0 OXe y c j j j y e Z ",
"u u u v g.T ] ) ( & O + $ / ( - ~ ) +.} C.m.OXt y c 9 j y y y (.",
"y u a p.&.] ) ) ) / - W / ) ) ) ) ) ' ../.}._.t c c k k b b z w ",
"y 1 s.W.:.` ' ) ) ) ( / $ # - ) ) ) ) ,.>X~.2 u v c c c b b c q ",
"7 F 9.&X,.,.[ ' ) ) ) ( $ # - ) ) ) ) ] %.p.m x y c c c j c c 7 ",
"y t ~.=.2.3.2.` ) ) ) ) ~ ~ / ) ) ) ) ] %.H 1 u y y 9 y y c c Z ",
"v v ^.@.2.3.2.' ) ) ) ) ) ) ) ) ) ) ) ] %.j.s.d u y y 9 y y y n ",
"6 D k.>.2.3.<.' ) ( ) ) ) ) ) ) ) ) ` <.1.%.I j.g.N g y e y u > ",
"y > g.=.2.3.2.` = # $ W ( ) ) ) ) ' [ <.,.1.O.O. .$.g.m y y e t ",
"j 8 a.{ ,.1.2._ @ . X # / ) ) ) ) ' [ 2.-X>.%...+.] %.j.y y x 3 ",
"9 l m Y +.<.3._ @     + W ) ) ) ) ' [ 1.>.;X$.*.@.] ] R M v x 3 ",
"l 6 c g.%.,.3.] & + o # / ) ) ) ) ' <.1.] ] ,...=.+.`  .d.b v z ",
"9 V 6 Z L -.2.,.( / / ( ) ) ' ` [ ,.#.>.@.+.] ` ] ,.` =.Z.b z h ",
"V y B : s.L *.,.' ) ) ' [ [ [ ,.{ :XL /.J.1X| +.' [ ' X.K b c V ",
"y B : g d `.T.,X<X3.2.2.<.<.,.-.g.D.@X].XXS.K | ' ' ' O.I M c h ",
"v : g A '.(.m. X6X8X<X3.[ <.3.&.5 1 ; a 2 1 N U ` ) ) ] T s r l ",
"1 t Z '.b.y.6.e.u.T.$X1.2.2.3.%XA.C > n n 3 N Y [ ` ` [  .K e z ",
"t a c.b.l.n.C.U.5.I.P.:.1.,.#.>X5 n v n z x N U ] 2.3.4.;XK.2 M ",
"t i +Xl.G.9.M.n.n.y.u.:.1.#.#.@..X, y D x x H ;X` ,.,X2X1X^. X4 ",
"1 _.V.G.9.M.r.l.l.z.K.#.,.>.-.,.,XP L j.K J ^.&.[ ] P.I.U.Q.!.`.",
"w [.v.l.n.D.h.l.z.z.B.#.] ;.-.] [ ,.#.@...=.:XE.#.o.u.8.x.F.b.oX",
"u [.S.s.N.N.l.l.v.z.B.=.] ] 1.,.` ` ] ^ ] ] ;.L.I.I.M.i.t.A c.].",
"r ].S.S.a.N.l.v.v.z.N.E.+.` ` [ ' ' +.=.R ;.=XW.n.y.i.i.S A A `.",
"e F ].F.f.l.N.v.l.x.l.B.&.#.,.+.2.` ] =.L J.1Xk.x.t.y.(.(.b.f +X",
"d w +XF.N.h.l.l.l.l.l.l.Y.P.E.*X*X ... .d.3 XXN.l.r.n.l.n.h.h.oX",
"w p XXoX0.`.q.l.n.n.n.n.n.n.n.5Xp H R.K f.3 v.@XB.8.n.B.9.Q.3XF.",
"p , p @XoXl.l.m.q.n.C.r.0 C.4Xp d y y c y t a D.#XG.N.n.!.7X~.a ",
"p f , 0 +XoXV.q.M.r.< e.#X4XXXp e y y l c x a 4 a [.OXOX|.G 5 w "
};
