/* XPM */
static char *areia1706021496[] = {
/* columns rows colors chars-per-pixel */
"32 32 133 2 ",
"   c #A3BA81",
".  c #A2B79E",
"X  c #A9A2A8",
"o  c #A6B1A2",
"O  c #A5BBA4",
"+  c #A9BDA5",
"@  c #ACBEAA",
"#  c #A4A8B4",
"$  c #BEBFBD",
"%  c #B2CA84",
"&  c #B2C98B",
"*  c #ACC3A4",
"=  c #AEC4AC",
"-  c #B3C5A6",
";  c #BCC2A7",
":  c #B1C5AC",
">  c #B8C3AC",
",  c #B4CAAD",
"<  c #BBCDAD",
"1  c #BCD0AD",
"2  c #AFC5B0",
"3  c #B2C6B2",
"4  c #B5C9B3",
"5  c #B9CCB5",
"6  c #B6CBB8",
"7  c #BBCDBA",
"8  c #BCD2B5",
"9  c #BDD2BC",
"0  c #C1D08C",
"q  c #D4E19E",
"w  c #D4DEA6",
"e  c #D3DFAE",
"r  c #C3C5BC",
"t  c #C1CFBC",
"y  c #CCD3B0",
"u  c #C6D8B4",
"i  c #CAD9B5",
"p  c #C3D3BD",
"a  c #CBD6BF",
"s  c #CDDBBC",
"d  c #D3D5B5",
"f  c #D0DEB4",
"g  c #D2DDBD",
"h  c #D9E4A9",
"j  c #CDE0BB",
"k  c #D7E6B5",
"l  c #D9E4B2",
"z  c #D4E2BC",
"x  c #DAE5BD",
"c  c #DDEABD",
"v  c #E0E2BF",
"b  c #E1EDBF",
"n  c #B2BEC5",
"m  c #BCCBCF",
"M  c #BFD5C1",
"N  c #C3CAC1",
"B  c #C9CDC2",
"V  c #D7CFC8",
"C  c #C4D6C2",
"Z  c #C8D7C0",
"A  c #C7D9C1",
"S  c #CBDCC5",
"D  c #C5D5CA",
"F  c #C7DCCA",
"G  c #CDDCCA",
"H  c #D5DDC4",
"J  c #DADEC3",
"K  c #D2D6CB",
"L  c #D1DFCB",
"P  c #C7D8D1",
"I  c #CEDCD3",
"U  c #CBDFD8",
"Y  c #D0D2D7",
"T  c #D2DFD3",
"R  c #CEE1CB",
"E  c #D5E4C3",
"W  c #DBE5C4",
"Q  c #D7EAC5",
"!  c #DCEAC5",
"~  c #D3E3CC",
"^  c #DAE6CD",
"/  c #D6E8CC",
"(  c #DDEACB",
")  c #D4E4D3",
"_  c #D9E5D3",
"`  c #D6E8D0",
"'  c #DCEBD4",
"]  c #D5E5DA",
"[  c #D9E5DB",
"{  c #D7E9DD",
"}  c #DBEBDD",
"|  c #DCF0DD",
" . c #E1ECC5",
".. c #E2EDCC",
"X. c #E8EBCA",
"o. c #E5F0C7",
"O. c #E5F1CD",
"+. c #E9F1CF",
"@. c #E2E0D6",
"#. c #E3EDD3",
"$. c #EAEAD3",
"%. c #E6E5DB",
"&. c #E2EEDB",
"*. c #E9ECDA",
"=. c #E4F2D3",
"-. c #E9F3D2",
";. c #EBF9D1",
":. c #E3F1DD",
">. c #D5E6E2",
",. c #D9E5E0",
"<. c #DDEDE3",
"1. c #D7EAE8",
"2. c #DEECE9",
"3. c #DEF1E5",
"4. c #E2EEE3",
"5. c #ECEAE6",
"6. c #E3E5E8",
"7. c #E3EDEB",
"8. c #E8EAEE",
"9. c #E3F2E4",
"0. c #E9F3E7",
"q. c #E3F2EB",
"w. c #EAF5EC",
"e. c #ECF9EB",
"r. c #E7F4F2",
"t. c #EBF5F3",
"y. c #EDF9F4",
"u. c #EEF7F8",
"i. c #EDF9F9",
"p. c #F1F7F5",
"a. c #F1F9F5",
"s. c #F4F6FA",
"d. c #F1FAFB",
/* pixels */
"O @ . * O * % % - = = O 2 - ; - = = = = : = = = = 2 2 2 = = = * ",
"= 3 + : , , &   : : 2 4 3 : - 3 : : , : 4 = 4 = 3 4 2 4 = 4 = 2 ",
"4 3 @ : 4 4 < 1 4 3 3 6 4 4 5 4 , 4 , < 5 , 4 , 3 6 3 4 3 4 M 3 ",
"7 M r 4 : 5 7 7 3 7 4 7 6 4 3 6 4 6 8 5 4 6 4 9 5 6 5 5 : 6 M 7 ",
"9 9 8 , < p 4 t > 7 t 7 6 7 M 7 8 9 7 C 9 C Z 4 * p C A G 5 9 9 ",
"R S S u i G S G 7 p o t C D D Z F M 9 S S S L G S S G S ' 9 p a ",
"R R R j s ~ ) Z G K K S G ~ ) L L ^ ~ a H d @ H p ~ @ G ~ R ~ R ",
"U ) ~ / / ) ) ) ~ ) T [ ) C ) ^ _ ~ _ ' ( H ..L ) ) L ~ Z G ~ E ",
"` ' | ` ) ' ' ^ E W ) ) E L ~ ^ / ( ^ ' s ^ 7 | / ' ( ( ! ..Q Q ",
"/ / / :.^ ^ ( ( W c ! ! c  .( W ( E ( Q ( ' / Q o. .! ! e ! b c ",
"( ! W g E d x f z l z k c g W W Q ....J W g Q c Q ! ! c h w q 0 ",
"Q Q Q ( ! W ! W ! x ..Q W ( W ^ ( ........( ..E s ( ! i !  .h q ",
"..O...( W .. .y  ...^ ..( ........! !  .....O.R S ' ( ..( ( +.b ",
"....( ( #.W +. .c  .!  . .W  .( ! O. .....Q ( ( p ' j ..s #.^ ' ",
"J z ........#.' ......W ..g W X.+...o.o.+.X.z X.v X.S ..! ! W #.",
"*.$.( #.#.' S ~ #.#.*...#.$.....=.-.-...$.g ( W O.-.=.=.o.b  .#.",
"&.#.#.&.:.:.} 4.9.&.:.} ' &.#.&.&.:.:.&.&.&.} &.' =.#.W -.;.O.s ",
"[ 0.&.0.&.} 4.G :.} I 2.4.4.&.} <.3.9.} 4.4.4.<.} &.) 9.| :.&.=.",
"} [ [ K B } 4.9.} 4.>.<.} 9.[ 0.<.} :.} 9.3.{ } } 3.>.{ <.9.} &.",
"9.9.4.%.@.&.&.[ ] 4.P <.9.G T 4.4.{ 3.9.3.<.<.} { >.1.1.q.4.#.s ",
"4.<.[ *.*.#.' ] } 4.q.q.9.9.&.,.{ ] 4.9.{ 4.9.q.2.<.] 1.2.[ :. .",
",.9.[ t ' z ` ] ] ,.[ <.| q.} 4.T 3.:.9.9.9.0.w.w.&.q.4.2.[ 9.' ",
"{ 3.<.} ' i ' { [ } { <.} } { 3.3.3.<.{ 4.4.&.&.9.:.&.r $ n q.] ",
"{ 9.<.9.} =.{ <.} { } <.{ } <.<.<.3.<.3.P D [ [ :.3.4.V X # 2.2.",
"3.9.>.3.q.q.| q.| 9.) ' ) ] ,.9.<.) ] | { 3.{ <.<.<.4.%.5.[ T U ",
"<.2.r.3.q.9.:.9.q.9.) :.} ] [ [ <.{ 3.{ | 3.<.<.9.<.<.<.} _ T >.",
"r.m 1.r.w.9.:.0.q.r.q.9.e.0.:.0.N 4.3.r.3.3.4.9.q.q.) 4./ } 1.7.",
"r.i.i.r.t.w.e.9.i.a.q.p.e.e.q.e.w.w.e.e.9.0.4.q.q.2.2.G :.' 2.q.",
"r.t.i.t.i.w.t.0.y.2.y.5.0.e.p.p.s.y.y.y.i.y.I w.w.{ t.r.0.~ q.q.",
"r.t.t.t.y.y.t.t.y.w.y.t.p.p.y.t.8.u.u.s.d.i.y.y.u.t.t.q.q.3.3.3.",
"2.t.r.r.t.q.8.7.q.2.8.t.p.p.7.p.8.d.d.d.d.d.u.s.s.6.y.y.r.q.3.{ ",
"1.t.t.t.u.w.i.t.t.y.a.a.d.d.u.w.Y u.u.u.d.i.d.d.6.,.i.i.3.q.q.3."
};
