/* XPM */
static char *areia21706021781[] = {
/* columns rows colors chars-per-pixel */
"32 32 37 1 ",
"  c #A6B29E",
". c #ADBA9F",
"X c #AFBCA6",
"o c #B3C0A7",
"O c #BAC6B2",
"+ c #C2CFB4",
"@ c #C4D3BC",
"# c #CAD7BD",
"$ c #C7D6C3",
"% c #CDDBC3",
"& c #CDDCCA",
"* c #D1DEC4",
"= c #D1DECA",
"- c #D4E2C5",
"; c #D5E3CC",
": c #D9E6CD",
"> c #DBE9CE",
", c #D5E5D1",
"< c #D9E6D3",
"1 c #D7E8D4",
"2 c #DDEBD4",
"3 c #DDECDA",
"4 c #DFF0DE",
"5 c #E1EED5",
"6 c #E1EEDB",
"7 c #E3F1D6",
"8 c #E4F2DB",
"9 c #E8F5DD",
"0 c #EBF8DD",
"q c #DEEEE0",
"w c #E4EFE0",
"e c #E4F3E2",
"r c #E9F6E2",
"t c #EDFAE3",
"y c #EFFBE9",
"u c #F0FCE5",
"i c #F3FFEB",
/* pixels */
">>7>>>>579>7556:8ri6%;91:222>:>4",
"7:>7>>>57>77>56565t:@2342;4>>>>4",
"5>558u0>>55557868-9=*8322>74429>",
"57877007:75570852<3:18884482>>4>",
"5586>*:7-775>55724>8828522277>47",
"5=5u>X#u>5>805>7724881:22>942247",
"8:5u7o-0>7070>>0<83922:2472779>>",
"65688#>077077>7782773725709799>>",
"55r6r79777>>>07>05952;572077972>",
"<5r5r9790-#>0770862>>#:79072772>",
"559590580>>>0.+u5505*>77>2:>2702",
"588550590>7>0+#u>555>5975>>>7929",
"5ru65yt070u00+#0777778072723704u",
"8yr96t00077757077>7789077756007t",
"8r5r9997707750u>7>>75588588848t8",
"95899675577>>00>75->538e33448ee2",
"w5w5w6655776289377::<<7e6336we83",
"959:98755887259377<521e836w6338e",
"9765w588598855346w66333ew636318r",
"uww587666r978633366w48333ee33338",
"98956w8968887e8q3qqqqq4433r38636",
"6965666r8878ere31qe13q3e313qe3w6",
"6ww68X<656863weeqqqq13qr3=3r3413",
"wrwwr =5=65=<eqwwqqqq1qe33864233",
"wrwwrO<<<65$=rwwqqqq13883w33w13<",
"wwwwww56<6<==6wwq3q1&333163w313;",
"ww<w3iyy556,566w333==3133&=w4<11",
"w<33w68w<<65666<38,&33331$&63111",
"rww<6<ww:<85<48111<;43131&&33;12",
"rri5<w<w;<93<202;;73-32381;4<&11",
"ryy565<5;4182222:;18><4833222132",
"wur6666w4t424;242>;;128861422228"
};
