/* XPM */
static char *fundo1706017436[] = {
/* columns rows colors chars-per-pixel */
"32 32 199 2 ",
"   c #5F7CBF",
".  c #7A6FB4",
"X  c #637CBD",
"o  c #6B7FBD",
"O  c #7876B6",
"+  c #7A7BB5",
"@  c #737DB9",
"#  c #267FCD",
"$  c #2A7DC9",
"%  c #8B65AD",
"&  c #866CAF",
"*  c #8B78AD",
"=  c #8677B1",
"-  c #837CB2",
";  c #458DB8",
":  c #4A93B9",
">  c #5D9DB6",
",  c #5397BD",
"<  c #5B9CBB",
"1  c #6687BD",
"2  c #6983BB",
"3  c #7885B6",
"4  c #7A85B6",
"5  c #758CB7",
"6  c #7587B8",
"7  c #738CBA",
"8  c #6496BE",
"9  c #6994BD",
"0  c #7D91B7",
"q  c #7393BC",
"w  c #759DB9",
"e  c #6DA9AA",
"r  c #71ACA4",
"t  c #72ACA8",
"y  c #7AB2A6",
"u  c #69A5B3",
"i  c #67A6B9",
"p  c #71ACB9",
"a  c #78CEA7",
"s  c #7AD0AF",
"d  c #61C6BE",
"f  c #6ACABA",
"g  c #76CCB1",
"h  c #6BD7BF",
"j  c #6EDDBE",
"k  c #79D8B6",
"l  c #73D6BB",
"z  c #74DBBE",
"x  c #74E4BE",
"c  c #7CE5BE",
"v  c #7CEABF",
"b  c #2C80C4",
"n  c #2681CE",
"m  c #2A84CD",
"M  c #2C8ACE",
"N  c #3686C5",
"B  c #3A8DC6",
"V  c #3184CC",
"C  c #338DCC",
"Z  c #3A8CCB",
"A  c #2F90CD",
"S  c #3D93C6",
"D  c #3593CC",
"F  c #3B93CB",
"G  c #369ACD",
"H  c #3D9CCB",
"J  c #2A85D0",
"K  c #2C8CD0",
"L  c #338ED0",
"P  c #3C8CD0",
"I  c #2D93D1",
"U  c #2F9AD1",
"Y  c #329BD1",
"T  c #3CA1CF",
"R  c #34A4D2",
"E  c #35A9D3",
"W  c #418DC6",
"Q  c #4A88C5",
"!  c #5588C3",
"~  c #5B8CC3",
"^  c #4B93C4",
"/  c #4B98C7",
"(  c #4395CC",
")  c #4D95CB",
"_  c #429CCC",
"`  c #4C9BCB",
"'  c #5596C6",
"]  c #559AC3",
"[  c #5591CB",
"{  c #529CCB",
"}  c #5898CF",
"|  c #6888C1",
" . c #6899CE",
".. c #45A3C5",
"X. c #4BA7C7",
"o. c #46A9C7",
"O. c #4BACC6",
"+. c #43A4C9",
"@. c #4DA6CC",
"#. c #47A9C9",
"$. c #4BACC9",
"%. c #51ACC7",
"&. c #5DA4CE",
"*. c #57A9C9",
"=. c #4EB3C6",
"-. c #4EB2C9",
";. c #55B3C6",
":. c #5AB5C5",
">. c #55BBC5",
",. c #5CBCC6",
"<. c #54B5C9",
"1. c #56BBC9",
"2. c #5BBBC9",
"3. c #66ABC6",
"4. c #65A1CD",
"5. c #7CADCE",
"6. c #67B4C7",
"7. c #6CB6C1",
"8. c #60BBC6",
"9. c #62BEC8",
"0. c #76B0CD",
"q. c #76A7D2",
"w. c #7EA7D0",
"e. c #7BABD0",
"r. c #6FB1D2",
"t. c #7FBCD5",
"y. c #5CC4C4",
"u. c #5EC6C6",
"i. c #64C4C6",
"p. c #63CCC3",
"a. c #6CCCC7",
"s. c #67C7C8",
"d. c #76CCC8",
"f. c #66D1C2",
"g. c #69D4C1",
"h. c #6DD9C0",
"j. c #78D7C7",
"k. c #72DEC1",
"l. c #7CDCC6",
"z. c #76E2C1",
"x. c #7BE4C1",
"c. c #7DE9C0",
"v. c #86BA98",
"b. c #8083B4",
"n. c #858FB6",
"m. c #819AB8",
"M. c #91C197",
"N. c #8ED49D",
"B. c #97DC9A",
"V. c #98DD9B",
"C. c #A3DD93",
"Z. c #98E297",
"A. c #9CE29D",
"S. c #A7E38D",
"D. c #A3E197",
"F. c #8DD5A4",
"G. c #86D5A9",
"H. c #86DAAC",
"J. c #87DEB2",
"K. c #96E1A2",
"L. c #8BE4B4",
"P. c #82E3BC",
"I. c #83ABCD",
"U. c #85B5CD",
"Y. c #92B5CB",
"T. c #85ACD1",
"R. c #81B3D2",
"E. c #8BB6D3",
"W. c #8CBCD1",
"Q. c #94B6D3",
"!. c #99BBD4",
"~. c #A1B9CB",
"^. c #A5BDD1",
"/. c #80DEC5",
"(. c #8CC1D3",
"). c #9CC5D4",
"_. c #9FC8D6",
"`. c #9AC5D8",
"'. c #B9CFCE",
"]. c #A5C4D4",
"[. c #A9C5D3",
"{. c #A5CAD7",
"}. c #ACCBD4",
"|. c #B1CDD3",
" X c #BAD5D7",
".X c #B4D4D9",
"XX c #85E4C3",
"oX c #8DE5C4",
"OX c #84EAC1",
"+X c #8BEBC3",
"@X c #91E7C6",
"#X c #94EAC5",
"$X c #9BEBC6",
"%X c #90E5C8",
"&X c #96E9C8",
"*X c #9CEBC9",
"=X c #A4EEC9",
"-X c #A6EEC9",
";X c #CAD9D6",
/* pixels */
"=X=X=X-X-X$X#X+X+X+X+XOXOXc.v c.c.v v v v c P.+X+XOXOXOXOXOX+X+X",
"*X=X=X$X$X&X#X+XOXc.OXc.v c.c x v v x x c c OXOXL.L.OXXXx.v c.OX",
"*X*X*X&X#XoXoXXXz.c x.z.x x z.x x x x j x c P.z A.D.x.z.z.z.c.x.",
"*X$X#XoXoXoXXXx.z.z.z.h.h.j j j j j j j l.D.A.J.K.A.c K.K.z k.z.",
"%X%X@X/././.l.k.h.h.h.h.h.h.h.h.h h h h h Z.J.K.A.S.Z.H.Z.k h.h.",
"oXoXd.d.l.j.h.g.f.h.h.f.f.h.f.f.h.f.h.f.f.h l H.C.B.S.g k g.g.g.",
"l.l.a.i.i.:.a.p.f.f.f.p.p.p.f.f.f.f.f.f.p.f.H.A.C.C.Z.h f.f.f.f.",
"j.i.s.X.%.y.p.p.p.d u.p.u.p.i.p.y.p.p.p.p.s F.f s G.s F.u.f.y.y.",
"a.y.2.@...X.;.i.i.d p 8.y.y.y.p 7.y.y.y.y.f N.a d d N.g y.y.y.y.",
"a.i.i.<.;.2.:.f 9.m.0 b.i y.w 0 * 2.y.y.y.>.y.>.>.y.,.i.i.,.>.y.",
"s.y.2.$.=.:.8.,.,.n.6.:.4 1.5 2.4 :.>.=.>.>.>.>.>.>.,.9.8.,.>.>.",
"y.2.1.2.=.2.:.,.2.3.3 i q - b.q q ;.=.=.=.=.=.=.=.;.,.,.:.2.;.=.",
"1.2.-.-.$.$.;.;.;.$.O.< 4 6 6 = %.*.9 8 O.$.$.$.O.O.;.;.:.;.O.O.",
"<.-.-.$.#.#.#.O.#.#.X.X.4 & O = + 6 9 6 7 #.$.o.o.o.%.;.%.O.o.#.",
"-.$.#.+.T ....T ] + + + % 6 2 % % + 1 8 + ......+.........+.+.+.",
"#.+.+.T T _ T ..& ~ _ _ 2 % @ % / / 1 2 / ..H T T _ H T T _ H _ ",
"#.+.T H H F H F . ^ ( 2 ) ! o . _ G H H H H H G S &.r.S H H G F ",
"T H H H F D F F W X X Q F !     1 A D S D D D D G 0.7.< W.F D D ",
"T Y _ ` _ C C D C C C C L Z . . X C A A C D D F S W U.Y.R.C D D ",
"H G _ _ ( C C C M L M C M C Q | ^ C A N D M Z ( (.5.[.).I.0.C M ",
"Y Y ( ) w.Z m M M m M M J M Z &.*.( M M N M D S 4.4.E.Y.e.E.B M ",
"Y Y L }.T.].m m [ m m m m m Z { { B m m b m b V C b 5.5.m m M m ",
"Y I K !.Z Q.$ Q.^.Q.m m J m J P Z m m m m m m m m m m V J m m b ",
"Y Y I P R.!.~.w.I.T.# J n n n n V ) Z $ m m m m # n n n n m n $ ",
"Y Y F I Z |.Y.[.T.# # # # # n n m ) F m b t , m n n n n n n n # ",
"T  X{.`..X'.].].T.T.[ # # J n n # m ^ t > r < u > m n # n # n m ",
"@._.U H U.;XY.;XY. .^. .# # # # m # N > e v.v.r u # n n J # $ m ",
"E r.(.t.Y }.|.' E.[.`.q.J # # P Z # n N e M.v.b # # n n J b J K ",
"E R R Y G ).`.A K C } J n n n m J m # y ; : t e J m L m J m M C ",
"E R R R H .X.XD I I K K K J J n J J m ^ , m _ B J J L K K K K I ",
"E E E R R *.r.U U I I K I K K K C K m J J J J J M M K K K I I Y ",
"E E E E E R Y R U U U U I I I K I K K I K A M I M I K U I U Y Y "
};
