/* XPM */
static char *fe608dc7ede1486bbd3cb5a5170ada3a18ThYXM2uCtiW0eE[] = {
/* columns rows colors chars-per-pixel */
"32 32 211 2 ",
"   c black",
".  c #250E00",
"X  c #271803",
"o  c #363414",
"O  c #000038",
"+  c #191C32",
"@  c #252525",
"#  c #34362D",
"$  c #282938",
"%  c #363737",
"&  c #462D16",
"*  c #492E10",
"=  c #513621",
"-  c #613F20",
";  c #3F4137",
":  c #434201",
">  c #40400C",
",  c #46461E",
"<  c #5A5816",
"1  c #6B6902",
"2  c #68681B",
"3  c #78781E",
"4  c #47482D",
"5  c #595826",
"6  c #454637",
"7  c #525332",
"8  c #664624",
"9  c #7B5529",
"0  c #7F5330",
"q  c #646227",
"w  c #706A27",
"e  c #726D2B",
"r  c #767523",
"t  c #76732C",
"y  c #7A762C",
"u  c #7D7B2D",
"i  c #69693A",
"p  c #726D3B",
"a  c #7A7636",
"s  c #19134B",
"d  c #282C4B",
"f  c #38374B",
"g  c #34315C",
"h  c #2B3263",
"j  c #363C67",
"k  c #3F415F",
"l  c #3C426A",
"z  c #3F477C",
"x  c #585448",
"c  c #484A50",
"v  c #565855",
"b  c #7B5A5D",
"n  c #676747",
"m  c #6C6C47",
"M  c #7A7946",
"N  c #646459",
"B  c #787759",
"V  c #464A69",
"C  c #575765",
"Z  c #434A7A",
"A  c #4D527A",
"S  c #565A75",
"D  c #6F5F7F",
"F  c #5B6077",
"G  c #696A63",
"H  c #6C7079",
"J  c #7A7A73",
"K  c #F13D00",
"L  c #827D19",
"P  c #845628",
"I  c #855B2D",
"U  c #885B2E",
"Y  c #82632D",
"T  c #96652A",
"R  c #966734",
"E  c #9C6A35",
"W  c #817F31",
"Q  c #A47134",
"!  c #A97539",
"~  c #ED4204",
"^  c #C55527",
"/  c #EA5A2A",
"(  c #D3662D",
")  c #8F6A64",
"_  c #F57667",
"`  c #7E8059",
"'  c #8C8A1B",
"]  c #97951D",
"[  c #A6A61D",
"{  c #8A8A23",
"}  c #89872D",
"|  c #908D2F",
" . c #939323",
".. c #979628",
"X. c #858433",
"o. c #898633",
"O. c #8D8C33",
"+. c #918E32",
"@. c #959435",
"#. c #999939",
"$. c #9C9C38",
"%. c #A09F35",
"&. c #A8A82E",
"*. c #B3B22F",
"=. c #B9B92A",
"-. c #A4A335",
";. c #AEAD34",
":. c #A4A439",
">. c #AAAA3A",
",. c #B5AF3B",
"<. c #B6B535",
"1. c #BCBC34",
"2. c #B6B63B",
"3. c #B8B638",
"4. c #BDBD3D",
"5. c #C29231",
"6. c #C2C137",
"7. c #C4C43B",
"8. c #C9C53C",
"9. c #CCCC3C",
"0. c #D0D037",
"q. c #D3D33D",
"w. c #DCDB3E",
"e. c #F9C435",
"r. c #868643",
"t. c #8B8B45",
"y. c #85844A",
"u. c #969648",
"i. c #97964F",
"p. c #828256",
"a. c #9FA046",
"s. c #A6A646",
"d. c #BDBD46",
"f. c #B3B34A",
"g. c #AFAD58",
"h. c #878866",
"j. c #9D9D68",
"k. c #878775",
"l. c #A4A36E",
"z. c #B2B276",
"x. c #F38675",
"c. c #CECE41",
"v. c #D5D540",
"b. c #DCDC41",
"n. c #E3E342",
"m. c #ECEC45",
"M. c #F3F347",
"N. c #F6F648",
"B. c #FBFB49",
"V. c #D8D768",
"C. c #C7C77C",
"Z. c #DCDC71",
"A. c #E4E47A",
"S. c #4A4A83",
"D. c #4C5384",
"F. c #4E568B",
"G. c #52598D",
"H. c #5B5D8E",
"J. c #595194",
"K. c #565E94",
"L. c #595E92",
"P. c #5F658E",
"I. c #5A6192",
"U. c #62678B",
"Y. c #7B7E8F",
"T. c #676B96",
"R. c #6B7098",
"E. c #707491",
"W. c #6B66AD",
"Q. c #836C81",
"!. c #8C8D8A",
"~. c #94948A",
"^. c #8C8D97",
"/. c #A79B85",
"(. c #A1A193",
"). c #ACAB9C",
"_. c #B3A794",
"`. c #B2AE94",
"'. c #9D9FA8",
"]. c #B3B3A3",
"[. c #B6B5AB",
"{. c #A3A2BE",
"}. c #B7B7B6",
"|. c #C2C288",
" X c #E5E583",
".X c #C4C3AF",
"XX c #C5C4B4",
"oX c #C4C3BC",
"OX c #CCCCBE",
"+X c #F0F0AD",
"@X c #9A98C3",
"#X c #BBB9CB",
"$X c #C6C5CA",
"%X c #CDCCCA",
"&X c #D0CEC1",
"*X c #DAD2C7",
"=X c #D7D7D6",
"-X c #DBDAD5",
";X c #E2DCD6",
":X c #F3D5D2",
">X c #EDEDDE",
",X c #D2D0EA",
"<X c #E0DFF3",
"1X c #E3E3E3",
"2X c #ECE7E1",
"3X c #EEEEEC",
"4X c #F0F0EE",
"5X c #E5E4F1",
"6X c gray96",
"7X c #F7F7F8",
"8X c #F9F9F9",
/* pixels */
"K.K.K.K.K.K.K.K.S t o.H y.e e y H p.t e y h.J u e U.K.K.K.K.K.K.",
"K.K.K.K.K.K.K.D.< O.O.:.4.9.9.2.@.;.9.q.9.7.9.q.9.t.L.K.K.K.K.K.",
"K.K.K.K.K.K.K.V r 7.9.n.N.M.w.n.q.v.M.M.q.m.n.n.M.a.I.K.K.K.K.K.",
"K.K.K.K.K.K.G.o u ;.n.m.m.w.1 ' ..9.M.m.1 ] ] 9.m.s.I.K.K.K.K.K.",
"K.K.K.K.K.K.G., O.} n.n.w.j.=X=X-XC.m.g.=X=X=X|.m.u.L.K.K.K.K.K.",
"K.K.K.K.K.K.f o.$.o.b.M.t.1X8X7X6X3Xz.1X8X6X6X3XA.s.I.K.K.K.K.K.",
"K.K.K.K.K.d q $.@.@.7.n.n 6X8X,XL.%Xl.6X5XW.}.6X Xd.I.K.K.K.K.K.",
"K.K.K.K.K.$ X.$.} o.-.m.M 2X8X$XO g B 6X1Xs s =X Xf.I.K.K.K.K.K.",
"K.K.K.K.K.l 5 :.>.} -.m.5.V.>X<X{.@XC %X$XJ.S.#XZ.r.K.K.K.K.K.K.",
"K.K.K.K.K.K.# $.>.@.%.m.e.w.Z.oXoX).M ' ] <.6.L 9.p K.K.K.K.K.K.",
"K.K.K.K.K.K.@ u :.#.@.b.4.r &.=.&.*.v.o.| -.2.9.m.t.K.K.K.K.K.K.",
"K.K.K.K.K.K.D.5 @.O.X.3.9.@.t &.n.M.M.b.7.} ;.N.N.s.I.K.K.K.K.K.",
"K.K.K.K.K.K.G., @.:.u <.w.m.9.u < i m 5 n 6 <.N.N.d.I.K.K.K.K.K.",
"K.K.K.K.K.K.K.% y >.u 7.9.N.N.m.[ $X-Xh.1XoX=.m.M.d.I.K.K.K.K.K.",
"K.K.K.K.K.K.K.D.: ..X.@.b.m.n.m.N.*. .m.{ 1.c.-.m.u.L.K.F.Z S.D.",
"K.K.K.K.K.K.K.P.~..Xz.W n.n.:.7.n.M.N.n.B.M.v.q.n.r.I.F.` 1  .: ",
"K.K.K.K.K.K.T.}.3X4X`.w m.M.n.m.n.4.4.b.2.c.M.B.2.B h v 0.&. .> ",
"K.K.K.K.K.K.v C.+X[.y.X.b.n.n.9.b.q.b.n.6.2.v.m.+.f.q.w.7...9.< ",
"K.K.K.K.K.c <.w.G S B k.i.f.@.p u.s.8.,.i.a o.j.k.i 9.q.{ <.m.q ",
"K.K.G.V 5 <.b.v K.j (.XX3X3X[.}.3X_./ x.3X%X).OXXXU.; ; $ % 6 G.",
"K.A 2 ;.m.M.7 K.K.j ~.].;X2X;X_._.-X_ :X]./.*X2XXXT.K.K.K.K.K.K.",
"S *.n.M.m.M.7 K.K.l . * P T E ! T P ~ K T Q Q T U H.K.K.K.K.K.K.",
": 6.6.1.&.9.4 K.K.l . & I U R ! I E ^ ( U E Q I U H.K.K.K.K.K.K.",
"Z 3 1.;.{ 2 A K.K.F.f X - 9 I E I 9 8 9 I E ) Q.D L.K.K.K.K.K.K.",
"K.F < 1...Z K.K.K.K.G.D.$ = P E R & X = 0 b H.K.K.K.K.K.K.K.K.K.",
"K.K.G.C S K.K.K.K.K.K.K.G.A < 8.3.Y ;.p.R.H.I.K.K.K.K.K.K.K.K.K.",
"K.K.K.K.K.K.K.K.K.K.K.K.D.% G 3 q.q.O.E.%XN Y.K.K.K.K.K.K.K.K.K.",
"K.K.K.K.K.K.K.K.K.K.K.K.+ v &Xh.i V.(.@ c ].'.K.K.K.K.K.K.K.K.K.",
"K.K.K.K.K.K.K.K.K.K.K.K.+   x ^.z !.}.% J XX^.K.K.K.K.K.K.K.K.K.",
"K.K.K.K.K.K.K.K.K.K.K.K.$ k.[.k I.d   % ].~.P.K.K.K.K.K.K.K.K.K.",
"K.K.K.K.K.K.K.K.K.K.K.K.$ x J j K.D.$ ).~.I.K.K.K.K.K.K.K.K.K.K.",
"K.K.K.K.K.K.K.K.K.K.K.K.G.G.G.G.K.K.G.R.I.K.K.K.K.K.K.K.K.K.K.K."
};
