/* XPM */
static char *_be3ed727fc5429a8e973b9409d706bcxyKIMJBPX7KOF5Ac[] = {
/* columns rows colors chars-per-pixel */
"32 32 220 2 ",
"   c black",
".  c #100E13",
"X  c #351A00",
"o  c #32260B",
"O  c #0B0C2F",
"+  c #271E26",
"@  c #2C2B25",
"#  c #38332C",
"$  c #3B3B35",
"%  c #473214",
"&  c #473117",
"*  c #69320E",
"=  c #513D2B",
"-  c #57560F",
";  c #4A4814",
":  c #6B5A15",
">  c #656216",
",  c #716F1B",
"<  c #76751E",
"1  c #434328",
"2  c #5E5928",
"3  c #5E5E3E",
"4  c #6B5123",
"5  c #7A5524",
"6  c #686428",
"7  c #7A772D",
"8  c #6F6D38",
"9  c #7A7833",
"0  c #2A2D44",
"q  c #2C304A",
"w  c #30334C",
"e  c #343859",
"r  c #363C64",
"t  c #3E4773",
"y  c #55544B",
"u  c #545456",
"i  c #715B4B",
"p  c #68684F",
"a  c #55546A",
"s  c #444A75",
"d  c #4A517D",
"f  c #565877",
"g  c #5E6273",
"h  c #656560",
"j  c #7A7A6A",
"k  c #746975",
"l  c #7A7B77",
"z  c #C31E00",
"x  c #CC3B01",
"c  c #E93700",
"v  c #F83F00",
"b  c #875B29",
"n  c #AF4F26",
"m  c #90632E",
"M  c #A16E38",
"N  c #AC773A",
"B  c #D34C1E",
"V  c #846153",
"C  c #AA615B",
"Z  c #8C6F7A",
"A  c #7F8172",
"S  c #86861D",
"D  c #A9A21B",
"F  c #8D8D25",
"G  c #8A892D",
"H  c #99982C",
"J  c #858333",
"K  c #8E8C32",
"L  c #928E33",
"P  c #959435",
"I  c #9C9B35",
"U  c #9C9C38",
"Y  c #A09E2B",
"T  c #A4A42D",
"R  c #BBBB28",
"E  c #A4A437",
"W  c #AAAA34",
"Q  c #A5A539",
"!  c #A9A938",
"~  c #B0AE37",
"^  c #B2B134",
"/  c #BCBC34",
"(  c #B4B33A",
")  c #F8992C",
"_  c #C0BF3E",
"`  c #C3C32E",
"'  c #C5C436",
"]  c #C4C43C",
"[  c #CDCC3C",
"{  c #D5D43D",
"}  c #DBDB3E",
"|  c #FAC837",
" . c #8F904F",
".. c #ACAB50",
"X. c #959571",
"o. c #BB8C61",
"O. c #B2B270",
"+. c #C19671",
"@. c #DCDC44",
"#. c #F3C049",
"$. c #E5E543",
"%. c #EAEA44",
"&. c #F2F246",
"*. c #F4F448",
"=. c #F9FA48",
"-. c #CDCD6D",
";. c #3379BE",
":. c #555F95",
">. c #6D728C",
",. c #797C9A",
"<. c #726EA9",
"1. c #277ECC",
"2. c #5395B4",
"3. c #7B80A0",
"4. c #6FAAAB",
"5. c #7AD0AF",
"6. c #65C8BC",
"7. c #6BD7BF",
"8. c #6EDDBE",
"9. c #76D9BA",
"0. c #74E4BE",
"q. c #7CE5BE",
"w. c #7CEABF",
"e. c #2F81C4",
"r. c #2680CE",
"t. c #2A83CD",
"y. c #2C8BCF",
"u. c #3586C7",
"i. c #338DCB",
"p. c #2F90CC",
"a. c #3594CD",
"s. c #3D9CCB",
"d. c #3898CC",
"f. c #2A85D0",
"g. c #2C8CD0",
"h. c #358DD0",
"j. c #2D93D1",
"k. c #2F9AD1",
"l. c #3195D0",
"z. c #329BD1",
"x. c #3CA1CF",
"c. c #34A4D2",
"v. c #35A9D3",
"b. c #408BC6",
"n. c #4892C6",
"m. c #5698C8",
"M. c #6899CE",
"N. c #43A4C9",
"B. c #49A9C8",
"V. c #54ACC9",
"C. c #4EB2C9",
"Z. c #56BDC4",
"A. c #5CBDC6",
"S. c #56B7C8",
"D. c #7AACCD",
"F. c #78A9D1",
"G. c #72B4D1",
"H. c #5DC2C8",
"J. c #64CDC3",
"K. c #67C9C7",
"L. c #76CCC8",
"P. c #66D2C1",
"I. c #69D3C1",
"U. c #6DD9C0",
"Y. c #72DEC1",
"T. c #7BDBC6",
"R. c #76E2C1",
"E. c #7BE4C1",
"W. c #7DE9C0",
"Q. c #858887",
"!. c #9A9989",
"~. c #939491",
"^. c #AA9991",
"/. c #86BA98",
"(. c #ABAB86",
"). c #A6A696",
"_. c #BEBE99",
"`. c #9592B6",
"'. c #B7B6AB",
"]. c #B2B1AD",
"[. c #90CB9A",
"{. c #98DD9B",
"}. c #A3DD93",
"|. c #98E297",
" X c #9CE29D",
".X c #A5E292",
"XX c #88D6A8",
"oX c #87DEB2",
"OX c #97E1A1",
"+X c #89E4B6",
"@X c #D5D598",
"#X c #C7C7A7",
"$X c #C8C8BA",
"%X c #83ABCD",
"&X c #85B5CD",
"*X c #93B7CC",
"=X c #85ABD1",
"-X c #88B6D2",
";X c #9CC6D6",
":X c #B9CFCE",
">X c #A4C3D4",
",X c #A9C8D4",
"<X c #B1CDD3",
"1X c #B7D4D8",
"2X c #85E4C3",
"3X c #8DE5C4",
"4X c #84EAC1",
"5X c #8BEBC3",
"6X c #87E2C8",
"7X c #97EAC7",
"8X c #A4EEC9",
"9X c #A6EEC9",
"0X c #C7C7CB",
"qX c #CAD9D6",
"wX c #D7D7D6",
"eX c #EED5D3",
"rX c #E2E3DE",
"tX c #E8E8E4",
"yX c #E6E5F3",
"uX c #FAF9F9",
/* pixels */
"8X8X8X8X8X7X7X5X5X5X5X5X4X4Xw.W.W.W.w.w.w.w.4X5X5X4X4X4X4X5X5X5X",
"8X8X8X7X7X7X7X3X4X4X4XW.q.q.0.q.0.0.0.0.0.q.4X4X+X+X4Xq.E.W.4X4X",
"7X7X7X7X7X3X3X2XE.E.E.R.R.0.0.0.0.0.0.0.0.q.+Xq. X Xq.E.R.R.E.E.",
"7X7X7X3X3X2X6XE.R.Y.Y.Y.U.8.8.8.8.8.8.8.9. XOX+XOX X9.OXOX8.Y.R.",
"7X3X3X6X6X2XT.Y.U.7.U.U.U.U.7.U.U.U.U.U.9.{.oXOX{..X{.XX|.9.U.U.",
"6X6XL.L.T.U ! A I.I.s - g I.I.I.I.I.I.I.I.9.9.XX}.{..XXX,.P.I.I.",
"T.T.K.>.9 } } G X.!.j / F 2 s f J.J.J.J.P.I.XX{.}.}.d @ ).~.J.J.",
"T.K.K.u W &.%.H wXX.h / F F h ].p j j J.J.5.XX6.5.XXq '.$ !.~.J.",
"L.A.f 9 } =.[ > rXa :.R F } l 0XX ; ]  .l 6.[.XX6.6.XXk . # ).>.",
"K.K.a ^ &.&.&...$XtX0XR Y $.$ C v n > { (.rX,.Z.Z.H.A.Q.).  # Z.",
"K.K.a { &.] -.rXwXe <...&.&.l 0Xz v : %. .!.i >.:.2.!.@.9 q Z.Z.",
"H.A.p $.*.T '.uX<.O `.].} &.u ^.c B : @.6 S F b m b ' 9 s A.S.C.",
"S.f L %.*.' ].uXyXwXyX$X} &.* c B * W { T ( / H b M 2 d S.S.C.C.",
"S.f ' =.&., !.tXuXuXeX#.&.< n x & W &.{ ^ *., ; 5 m + V.V.B.B.B.",
"C.7 @.=.=.&.' (.wXeX) =.F - < Y %.$.%.{ ^ *.> H 5 5 N.N.N.N.N.N.",
"B.7 ] [ [ [ [ T D D | =.' } =.=.=.U ( / { R 5 4 4 V s.s.s.s.s.s.",
"N.; J K K K P ! ( ( ^ ~ ^ _ @.=.=.$.F [ ` '.o.N M Z G.s.s.d.d.d.",
"N.; U ! ! ! ! ! U I I I I E P L L J @.( o wX+.N b Z D.m.-Xd.a.a.",
"x.# 7 E E 6 7 U ! ! ! E ! ! ! Q _.tXtX3 ).Q.b M 5 Z &X*X&Xi.a.a.",
"s.s.$ I E 6 9 U ! ! ! J 7 U ! O.tXtX#XX.'.$Xy o b k >X*X%XF.i.i.",
"z.a.r G ! U U E U U U 8 2 J ! O.#X_...!.$X$Xi & . t &X*XD.-Xu.y.",
"z.l.r 2 E ! ! ! 9 7 E I P U E 7 H W X.'.$X!.= & X s D.D.t.t.t.t.",
"z.j.g.w J E I 7 2 @ 1 1 1 1 # + ; - 1 l ).= & & u r.t.u.f.r.r.t.",
"z.j.j.e 0 0 0 0 0 =Xr.r.r.r.r.f [ ] T O 0 # & 8 } X.r.r.r.r.r.1.",
"z.z.d.g.i.<X*X>X%Xr.r.r.r.r.r.s [ ( < q t.s r :. .@X,.r.r.1.r.r.",
"x.1X,X;X<X:X>X>X=X=Xm.r.r.r.r.r. .S 9 d 2.4.2.e y ].3.1.r.r.r.r.",
"B.;Xk.s.&XqX*XqX*XM.>XM.r.r.r.r.r.r.u.4.4././..   @ w r.r.t.t.t.",
"c.G.;X-Xa.<X<Xm.-X,X>XF.r.r.r.h.b.1.r.u.4.[./.e.. y wXu r.t.f.g.",
"v.c.c.z.z.;X;Xp.g.i.m.t.t.t.f.r.t.r.r.4.2.2.4.4.;.q q e f.t.y.y.",
"v.c.c.c.d.1X1Xa.j.j.g.g.g.t.f.t.t.f.r.n.m.t.n.b.f.t.j.y.g.g.j.j.",
"v.v.c.c.c.V.G.k.j.j.j.j.g.g.g.g.y.g.f.y.t.t.t.y.y.y.g.g.j.j.j.z.",
"v.v.v.c.c.c.c.c.z.k.k.j.j.j.j.g.j.j.g.g.y.y.y.y.y.j.j.j.j.j.z.z."
};
