/* XPM */
static char *bob_up1706022778[] = {
/* columns rows colors chars-per-pixel */
"32 32 216 2 ",
"   c black",
".  c #100E13",
"X  c #351A00",
"o  c #32260B",
"O  c #0B0C2F",
"+  c #271E26",
"@  c #2C2B25",
"#  c #38332C",
"$  c #3B3B35",
"%  c #473214",
"&  c #473117",
"*  c #69320E",
"=  c #513D2B",
"-  c #57560F",
";  c #4A4814",
":  c #6B5A15",
">  c #656216",
",  c #716F1B",
"<  c #76751E",
"1  c #434328",
"2  c #5E5928",
"3  c #5E5E3E",
"4  c #744E25",
"5  c #655423",
"6  c #7A5524",
"7  c #686428",
"8  c #7A772D",
"9  c #6F6D38",
"0  c #7A7833",
"q  c #2A2D42",
"w  c #292D46",
"e  c #2C304A",
"r  c #30334C",
"t  c #343859",
"y  c #363C64",
"u  c #3E4773",
"i  c #55544B",
"p  c #545456",
"a  c #715B4B",
"s  c #68684F",
"d  c #55546A",
"f  c #444A75",
"g  c #4A517D",
"h  c #565877",
"j  c #5E6273",
"k  c #656560",
"l  c #7A7A6A",
"z  c #746975",
"x  c #7A7B77",
"c  c #C31E00",
"v  c #CC3B01",
"b  c #E93700",
"n  c #F83F00",
"m  c #875B29",
"M  c #90542F",
"N  c #AF4F26",
"B  c #90632E",
"V  c #A16E38",
"C  c #AC773A",
"Z  c #D34C1E",
"A  c #846153",
"S  c #AA615B",
"D  c #8C6F7A",
"F  c #7F8172",
"G  c #86861D",
"H  c #A9A21B",
"J  c #8D8D25",
"K  c #8A892D",
"L  c #99982C",
"P  c #858333",
"I  c #8E8C32",
"U  c #928E33",
"Y  c #959435",
"T  c #9C9B35",
"R  c #9C9C38",
"E  c #A09E2B",
"W  c #A4A42D",
"Q  c #BBBB28",
"!  c #A4A437",
"~  c #AAAA34",
"^  c #A5A539",
"/  c #A9A938",
"(  c #B0AE37",
")  c #B2B134",
"_  c #BCBC34",
"`  c #B4B33A",
"'  c #F8992C",
"]  c #C0BF3E",
"[  c #C3C32E",
"{  c #C5C436",
"}  c #C4C43C",
"|  c #CDCC3C",
" . c #D5D43D",
".. c #DBDB3E",
"X. c #FAC837",
"o. c #8F904F",
"O. c #ACAB50",
"+. c #959571",
"@. c #BB8C61",
"#. c #B2B270",
"$. c #DCDC44",
"%. c #F3C049",
"&. c #E5E543",
"*. c #EAEA44",
"=. c #F2F246",
"-. c #F4F448",
";. c #F9FA48",
":. c #CDCD6D",
">. c #515985",
",. c #5F6D84",
"<. c #797C9A",
"1. c #5D57AA",
"2. c #416AA1",
"3. c #726EA9",
"4. c #277ECC",
"5. c #599BB9",
"6. c #7B80A0",
"7. c #5CB6BD",
"8. c #71ACAB",
"9. c #73CDB1",
"0. c #76DBB9",
"q. c #7CE4BE",
"w. c #7CEABF",
"e. c #2781CE",
"r. c #2A83CD",
"t. c #2C8BCE",
"y. c #3789C8",
"u. c #348CCC",
"i. c #2F90CD",
"p. c #3494CD",
"a. c #3B94CB",
"s. c #369ACD",
"d. c #3D9CCB",
"f. c #2B85D1",
"g. c #2B8CD0",
"h. c #358DD0",
"j. c #2D93D1",
"k. c #2F9AD1",
"l. c #3195D0",
"z. c #329BD1",
"x. c #3CA1CF",
"c. c #34A4D2",
"v. c #35A9D3",
"b. c #4599CC",
"n. c #5699C6",
"m. c #6899CE",
"M. c #46A9C7",
"N. c #4BACC6",
"B. c #43A4C9",
"V. c #49A9C9",
"C. c #56ABC9",
"Z. c #4EB2C7",
"A. c #55B2C6",
"S. c #5AB5C5",
"D. c #55BBC6",
"F. c #5DBBC6",
"G. c #54B5C9",
"H. c #5ABBC8",
"J. c #68A5CC",
"K. c #7BACCD",
"L. c #65BACA",
"P. c #78A9D1",
"I. c #73B1D0",
"U. c #5DC4C4",
"Y. c #5EC6C6",
"T. c #64C4C6",
"R. c #63CCC3",
"E. c #69C9C8",
"W. c #76CCC8",
"Q. c #6AD5C2",
"!. c #78DBC5",
"~. c #77E2C2",
"^. c #7BE4C1",
"/. c #7DE9C0",
"(. c #858887",
"). c #9A9989",
"_. c #939491",
"`. c #AA9991",
"'. c #ABAB86",
"]. c #A6A696",
"[. c #BEBE99",
"{. c #9592B6",
"}. c #B7B6AB",
"|. c #B2B1AD",
" X c #8BC793",
".X c #9CE39B",
"XX c #8AD8A6",
"oX c #91E4AC",
"OX c #D5D598",
"+X c #C7C7A7",
"@X c #C8C8BA",
"#X c #84B0CC",
"$X c #94B9CC",
"%X c #84ACD1",
"&X c #88B6D2",
"*X c #94BCD4",
"=X c #86D0CC",
"-X c #9CC6D6",
";X c #A7C6D4",
":X c #B0CDD4",
">X c #B7D5D9",
",X c #85E4C3",
"<X c #8DE5C4",
"1X c #84EAC1",
"2X c #8BEBC3",
"3X c #87E2C8",
"4X c #97EAC7",
"5X c #A4EEC9",
"6X c #A6EEC9",
"7X c #C7C7CB",
"8X c #D7D7D6",
"9X c #EED5D3",
"0X c #E2E3DE",
"qX c #E8E8E4",
"wX c #E6E5F3",
"eX c #FAF9F9",
/* pixels */
"2X1X~.~.Q.0.R.Y.U.U.Z.Z.Z.M.B.d.a.p.i.i.u.t.4.4.4.r.r.u.t.j.l.z.",
"1X1Xw.!.Q.Q.Q.Y.U.D.D.Z.Z.M.M.x.d.a.i.y.y.r.4.r.4.4.4.f.t.g.l.z.",
"1X/.~.~.0.0.R.Y.U.D.L.F.A.N.B.d.s.a.i.K.&Xt.e.e.4.4.r.r.r.g.j.k.",
"1X/.~..XXX0.R.R.Y.9.L.F.A.N.B.b.d.$XK.#XK.r.t.e.r.4.e.e.f.g.j.j.",
"1X^.~..XXX0.9.XX9.L.L.7.A.A.M.x.s.n.=X$X$X#Xy.4.e.4.4.4.r.t.g.j.",
"1X1X^.w. XT ^ F XX7.f - j N.B.x.I.K.K.;X#X#Xr.e.e.e.e.4.<.h.g.j.",
"1XoX.X,.0 ....J +.).l _ G 7 f d C.K.a.K.m.r.e.4.e.e.>.@ ]._.g.j.",
"2XoX.Xp / =.*.E 8X+.k _ J J k ].s l l $XJ.y.e.r.e.5.e }.$ )._.g.",
"2X1Xh s ..;.| > qXd 1.Q J ..D 7XX ; _ o.x y.r.r.e.8.8.k + # ].<.",
"1X1Xd _ -.*.=.O.@XqX7XQ E &.$ S b N >  .'.0X6.r.b.5. X6.].  @ g.",
"w.q.d  .-.} :.0X8Xt 1.O.=.=.x 7Xc n : *.o.).a z h ,.).$.0 e r.g.",
"w.q.s &.-.W }.eX3.O {.]...=.p `.b Z : ..7 J J m B m } 8 u n.f.g.",
"w.h U *.;.[ |.eXwX0XwX@X&.=.* b Z * ` $.L ` _ E B V 5 g 8.n.e.j.",
"/.h _ ;.=., ).qXeXeX9X%.=.< N v % ( =. .) -.< ; 4 m + 4.g.f.r.g.",
"/.8 $.;.;.=.} '.8X9X' ;.J - < E *.*.*. .~ -.> L 4 m 4.4.e.e.g.j.",
"/.8 { | | | | W E H X.;.] ..;.;.;.R ( _  .Q 6 4 4 A 4.b.f.r.g.j.",
"/.; P I I I Y / ` ` ) ) ` ] $.;.;.&.J | [ +X@.@.V D 4.u.4.r.g.j.",
"/.; R / / ^ / ! T T T R T ! Y U U P $.` o 8X@.C m D 4.4.e.r.f.j.",
"/.$ 0 R ^ 7 8 R ^ / / ! ! / ! ^ +XqXqX3 ].(.M V : D 4.4.e.g.g.j.",
"/.9.$ T ! 7 0 R / ^ / B 0 R ~ #.qXqX[.+.|.@Xi o m D 4.4.e.f.g.j.",
"1X/.y K ^ R Y ^ R T R 9 2 P ~ #.OX[.O.).@X@Xi & . u m.P.g.g.j.j.",
"1X1Xy 2 ! / / / 8 0 / T Y T T 8 L / +.}.@X).= & X f *X;Xn.g.j.k.",
"2X1X~.r P ! o.0 2 @ 1 1 1 1 1 + ; - 1 +.).= % & p %Xm.;Xg.j.k.k.",
"2X1X1Xt q q $ + w U.U.U.A.M.5.h | } ^ O e # % 9 ..+.$X&Xg.j.k.k.",
"2X2X,X^.!.Q.R.Y.T.E.L.F.A.V.B.f  .` 8 e f.u y >.o.OX<.n.h.j.k.z.",
"4X4X<X,X!.0.Q.Y.A.S.F.S.A.V.B.d.o.G 8 g f.4.4.t i }.<.:X-X>XI.c.",
"4X4X2X,X3X!.D.T.V.S.H.H.N.M.B.d.s.y.h.u.y.;X*X.   @ r ;X-X>XC.c.",
"5X4X4X<X3X!.T.N.B.Z.Z.Z.Z.M.B.d.d.a.b.b.P.%Xh.P.. i 8Xp s.z.c.c.",
"5X5X4X<X3XW.L.V.C.G.V.G.Z.V.B.B.d.d.b.b.n.;X*Xb.2.e e t z.c.c.v.",
"6X5X4X<XoXW.E.E.H.Y.H.H.Z.Z.V.x.d.d.b.B.a.l.j.j.l.;Xj.=Xc.c.c.v.",
"6X6X4X4X<X3X!.E.Y.T.Y.Y.H.Z.V.V.B.x.d.s.z.h.j.j.z.>X;XI.c.v.v.v.",
"5X5X5X4X4X3X!.!.E.E.T.Y.D.G.Z.V.B.B.x.s.z.z.z.k.z.B.V.c.c.v.v.v."
};
