/* XPM */
static char *bob_down1706022777[] = {
/* columns rows colors chars-per-pixel */
"32 32 219 2 ",
"   c black",
".  c #05061E",
"X  c #2A130D",
"o  c #2C2A07",
"O  c #3C370C",
"+  c #392E12",
"@  c #1B1529",
"#  c #0D0D35",
"$  c #30302B",
"%  c #2C273A",
"&  c #393838",
"*  c #7E0F04",
"=  c #442C16",
"-  c #493119",
";  c #533614",
":  c #47430F",
">  c #585808",
",  c #464417",
"<  c #565819",
"1  c #62451F",
"2  c #666919",
"3  c #76751A",
"4  c #474729",
"5  c #575623",
"6  c #4D4D3D",
"7  c #565033",
"8  c #684727",
"9  c #655827",
"0  c #79562B",
"q  c #696525",
"w  c #726A29",
"e  c #777529",
"r  c #79752D",
"t  c #777430",
"y  c #323453",
"u  c #313761",
"i  c #333964",
"p  c #3C426A",
"a  c #3C4374",
"s  c #56574E",
"d  c #6E5D59",
"f  c #76734E",
"g  c #646356",
"h  c #4B4F68",
"j  c #404774",
"k  c #444B77",
"l  c #565877",
"z  c #6D7066",
"x  c #6D6E72",
"c  c #6F7378",
"v  c #BA2600",
"b  c #C93007",
"n  c #D83D0C",
"m  c #F13E01",
"M  c #84592D",
"N  c #8B6C2E",
"B  c #936432",
"V  c #AC773A",
"C  c #AE783C",
"Z  c #D24927",
"A  c #E25E32",
"S  c #92605C",
"D  c #837E64",
"F  c #A8A819",
"G  c #828223",
"H  c #8B8929",
"J  c #9C9B26",
"K  c #95942E",
"L  c #9B9B29",
"P  c #858233",
"I  c #898733",
"U  c #8D8D35",
"Y  c #959533",
"T  c #929139",
"R  c #9D9D38",
"E  c #A29C2C",
"W  c #ACAC28",
"Q  c #A5A537",
"!  c #AAA933",
"~  c #A4A438",
"^  c #A9A938",
"/  c #B1B330",
"(  c #B2B333",
")  c #B8B837",
"_  c #BBBB3B",
"`  c #C2C22D",
"'  c #C6C639",
"]  c #D6D63B",
"[  c #8F8F4E",
"{  c #B98244",
"}  c #A9A94F",
"|  c #9D9D63",
" . c #85857B",
".. c #A7A77F",
"X. c #C9C841",
"o. c #DCDB41",
"O. c #D8D748",
"+. c #DDDD55",
"@. c #F8D345",
"#. c #E2E241",
"$. c #E8E646",
"%. c #ECEC45",
"&. c #F8EE44",
"*. c #F2F246",
"=. c #F7F748",
"-. c #FAFA48",
";. c #403891",
":. c #3971B4",
">. c #485B84",
",. c #4B6B9F",
"<. c #786786",
"1. c #757995",
"2. c #4B6AA0",
"3. c #7D79BF",
"4. c #287ECC",
"5. c #63989B",
"6. c #4F88B5",
"7. c #59AFBB",
"8. c #6DABAD",
"9. c #6DCAB6",
"0. c #6BD7BF",
"q. c #6EDDBE",
"w. c #75D9BB",
"e. c #74E4BE",
"r. c #7CEABF",
"t. c #2C80C4",
"y. c #2680CE",
"u. c #2A84CD",
"i. c #2C8BCF",
"p. c #3489C8",
"a. c #2F90CC",
"s. c #3697CD",
"d. c #3D9CCB",
"f. c #2A85D1",
"g. c #2B8CD0",
"h. c #368DD0",
"j. c #2D93D1",
"k. c #2F9AD1",
"l. c #329BD1",
"z. c #3CA1CF",
"x. c #34A4D2",
"c. c #35A9D3",
"v. c #4598CB",
"b. c #5595C9",
"n. c #6899CE",
"m. c #4CACC6",
"M. c #43A5CB",
"N. c #48A8C9",
"B. c #57ACC7",
"V. c #4EB2C7",
"C. c #57B9C7",
"Z. c #7AA4D1",
"A. c #75B1D1",
"S. c #5DC4C5",
"D. c #63C5C6",
"F. c #63CDC3",
"G. c #69C9C8",
"H. c #76CCC8",
"J. c #66D1C2",
"K. c #69D3C1",
"L. c #6DD9C0",
"P. c #72DEC1",
"I. c #7ADAC7",
"U. c #76E2C1",
"Y. c #7BE5C1",
"T. c #7DE9C0",
"R. c #85878D",
"E. c #999789",
"W. c #9A9A95",
"Q. c #A09F91",
"!. c #87BC95",
"~. c #ABAA99",
"^. c #BBBB93",
"/. c #8C9DAB",
"(. c #ACABAF",
"). c #B6B5A7",
"_. c #BDBCAD",
"`. c #F7B9B2",
"'. c #91C197",
"]. c #98DC9B",
"[. c #A3DD93",
"{. c #98E297",
"}. c #9CE29D",
"|. c #A5E292",
" X c #88D8A9",
".X c #87DEB2",
"XX c #97E1A1",
"oX c #89E4B6",
"OX c #D3D38D",
"+X c #C7C7AF",
"@X c #C3C2B4",
"#X c #C9C9B6",
"$X c #92B4CA",
"%X c #85ABD1",
"&X c #86B3D0",
"*X c #94B6D3",
"=X c #A7B6D1",
"-X c #8CC1D3",
";X c #9CC6D6",
":X c #A7C5D4",
">X c #B0CDD4",
",X c #B7D5D9",
"<X c #84E4C3",
"1X c #8AE3C6",
"2X c #84EAC1",
"3X c #8BEBC3",
"4X c #97EAC7",
"5X c #A4EEC9",
"6X c #A6EEC9",
"7X c #C5C6C8",
"8X c #CAD9D6",
"9X c #D7D7D9",
"0X c #E0E0D2",
"qX c #E0DFEF",
"wX c #E9E9E4",
"eX c #F0F0EF",
"rX c #ECEDF1",
"tX c #F5F5F4",
"yX c #F9FAFA",
/* pixels */
"5X5X6X6X6X4X4X3X3X3XoX2X2XT.r.r.r.r.r.r.r.r.oX2X2X3X2X2X2X2X2X3X",
"4X5X5X4X4X4X4X3X2Xr.2XT.T.T.e.r.r.e.e.e.e.Y.2X<XoXoX2X2XY.2X2X2X",
"5X4X4X4Xk i p 5.e.e.U.U.U.e.P.P.e.e.e.e.e.oXoXY.}.}.2XY.U.U.Y.Y.",
"4X4X4X4Xy 7Xg @ 9.P.P.P.P.q.q.q.q.q.q.q.I.].XX.XXXXXw.XXXXL.U.U.",
"4X1X1XoX<Xx &   @ q.L.P.q.K.L.w.q.L.0.0.0.{..X].].|.{. X{.w.0.0.",
"1X1XH.H.I.I. .$ . J.J.J.J.h 4 6 J.J.0.J.0.0.w. X|.].|. Xw.0.0.0.",
"I.I.G.G.C.1.0X..p 9.F.J.a G ( %.6 J.J.J.F.9. X].[.[.{.J.J.J.J.F.",
"I.D.D.m.B.S.| ]  .% X a i > L %.g J.J.J.S.w. X9.j a a a a S.D.F.",
"G.C.D.N.N.7.m.| 3 = = 7  .> N L 4 i u u u i i y ; 2 G G < p S.S.",
"G.G.D.B.7.C.C.% = = 7 )._.E.T K 5 q Y Y K K H 5 I R ^ ^ I & 7.S.",
"G.D.S.N.V.C.7.X - - ).@X).| } } } ~ R t q T ~ I R Q Q Q R < >.C.",
"S.C.C.C.C.7.7.= = = @X#X).| +XeX+X! R r 5 T ^ Q Q T P U ^ G a V.",
"C.C.C.N.V.N.<.V 8 ; Q._.D ).eXwX^.! ~ R P Q Q ^ Q T 9 w ^ U , k ",
"C.V.V.N.N.N.<.N B C ). .f OX#XE.P I ~ ^ ^ Q ^ ^ ^ R U Y ^ ~ P o ",
"V.V.M.M.M.M.<.C C { eX7 ` ` ` o.O.] ~ r e e t t I Q ^ ^ Q ~ Y O ",
"M.M.M.c.z.v.<.B B C D $.' J ( *.*.=.*.$.%.%.%.$.o.~ r e t t r o ",
"M.M.z.d.d.v.8 B O + ' #.L o.K %.*.%.] 3 $.&.A z d _ &.-.=.=.o.r ",
"M.z.d.v.p.;.8 B G < %.#.K -.%.] L * X 3 $.@.`.yXwXQ._ o.=.=.^ g ",
"z.d.M.v.v.@ M B 2 H X.#.L *.W 1 v n N #.O.`.yXyXtXwXf ` -.$.K h.",
"l.s.v.v.i H B C N / ( Q L ' 9 Z m * / -.[ rX=X/.qXyXD ! =.] w g.",
"l.d.s.p T o.8 M N 0 < 5 ' ( b m S >XW -.Y @Xy # 7XtX| #.-._ l i.",
"l.k . [ +.5.4.h.b.d _.| ] / b m S 7XF %.*.g 3.(.eX^.$.) *.! ,.p.",
"k.s   E.2.-Xu.*X=X*X9X(._ ! 9 n Z x W J #.g wX9XE.' =.=.#.H ,.u.",
",.~.g   W.l =X%XZ.%Xf.f.z } G 5 x 9XF H o.6 ;.(._.E *.=.) g 4.4.",
"x.R.~.s W.y $X=X%Xu.y.4.y.y.c c f E.> : #.7 Q._.~.J *.#.H l 4.y.",
"M.,XR.(.s /.:X:X%X%Xb.4.4.y.4.4.y.:.g = #.5 D D f ) =.} g 4.u.y.",
"N.;Xk.M.A.8X$X8X*Xn.;Xn.y.y.y.f.y.y.p.7.s % !.8.8.[ [ [ f.4.y.t.",
"c.A.-XA.d.>X>Xb.&X:X=XZ.y.y.y.h.s.y.y.a.8.'.!.i.4.u.4.4.f.t.f.g.",
"x.x.x.x.s.;X;Xa.g.h.b.f.u.u.y.u.y.y.y.8.6.6.8.8.y.u.h.u.f.u.i.i.",
"c.x.x.x.x.,X>Xa.j.j.g.g.g.f.f.y.f.f.g.6.b.y.6.s.f.i.h.i.g.g.j.j.",
"c.c.c.x.k.B.A.k.k.k.j.j.g.g.g.g.i.h.g.i.i.i.f.g.i.i.g.g.g.g.j.l.",
"c.c.c.c.c.x.x.x.k.k.k.j.j.j.j.g.j.g.j.g.g.i.i.i.i.j.g.j.l.l.l.l."
};
