/* XPM */
static char *bob_left1706022778[] = {
/* columns rows colors chars-per-pixel */
"32 32 222 2 ",
"   c black",
".  c #250E00",
"X  c #271803",
"o  c #363414",
"O  c #111334",
"+  c #2A2B27",
"@  c #282938",
"#  c #363737",
"$  c #472D13",
"%  c #513621",
"&  c #613F20",
"*  c #3F4137",
"=  c #424204",
"-  c #46461E",
";  c #5A5816",
":  c #6B6902",
">  c #70701C",
",  c #595826",
"<  c #464633",
"1  c #525332",
"2  c #734D2A",
"3  c #7B5529",
"4  c #69652E",
"5  c #716C2A",
"6  c #79772B",
"7  c #69693A",
"8  c #7A7636",
"9  c #19134B",
"0  c #30314E",
"q  c #2B3263",
"w  c #363C67",
"e  c #3C426A",
"r  c #3F477C",
"t  c #4E4E4C",
"y  c #565855",
"u  c #7B5A5D",
"i  c #6A6A47",
"p  c #73724C",
"a  c #787759",
"s  c #4B4F6F",
"d  c #565A75",
"f  c #6F5F7F",
"g  c #5B6077",
"h  c #6B6D6E",
"j  c #7A7A73",
"k  c #F13D00",
"l  c #827D19",
"z  c #85582A",
"x  c #885B2E",
"c  c #96652A",
"v  c #82712F",
"b  c #966734",
"n  c #9C6A35",
"m  c #A67336",
"M  c #ED4204",
"N  c #D65C2A",
"B  c #8F6A64",
"V  c #F57667",
"C  c #7E8059",
"Z  c #7E806D",
"A  c #8C8A1B",
"S  c #97951D",
"D  c #A6A61D",
"F  c #898828",
"G  c #959526",
"H  c #858433",
"J  c #898633",
"K  c #8D8C33",
"L  c #918E31",
"P  c #959435",
"I  c #9A9A39",
"U  c #A09F2C",
"Y  c #A8A82E",
"T  c #B5B52D",
"R  c #A4A335",
"E  c #AEAD34",
"W  c #A4A439",
"Q  c #AAAA3A",
"!  c #B5AF3B",
"~  c #B6B535",
"^  c #BCBC34",
"/  c #B6B63B",
"(  c #BBBB3B",
")  c #C29231",
"_  c #C4C339",
"`  c #C4C43B",
"'  c #CCCC3C",
"]  c #D0D037",
"[  c #D3D33D",
"{  c #DCDB3E",
"}  c #F9C435",
"|  c #888845",
" . c #969648",
".. c #97964F",
"X. c #828256",
"o. c #A6A646",
"O. c #B8B848",
"+. c #AFAD58",
"@. c #878866",
"#. c #9D9D68",
"$. c #878775",
"%. c #ABAA72",
"&. c #F38675",
"*. c #CECE41",
"=. c #D5D540",
"-. c #DCDC41",
";. c #E3E342",
":. c #ECEC45",
">. c #F3F347",
",. c #F6F648",
"<. c #FBFB49",
"1. c #D8D768",
"2. c #C7C77C",
"3. c #DCDC71",
"4. c #E4E47A",
"5. c #495483",
"6. c #57508F",
"7. c #717594",
"8. c #6B66AD",
"9. c #277FCC",
"0. c #836C81",
"q. c #4890B9",
"w. c #5A9BB8",
"e. c #6EA9AD",
"r. c #72ACA6",
"t. c #66A4B3",
"y. c #76CCB1",
"u. c #76DBB9",
"i. c #2C80C4",
"p. c #2781CD",
"a. c #2A83CD",
"s. c #2C8CCF",
"d. c #338CCC",
"f. c #3A8ACB",
"g. c #2F90CD",
"h. c #3594CD",
"j. c #3C93CB",
"k. c #369BCD",
"l. c #3D9CCB",
"z. c #2A85D1",
"x. c #2C8DD1",
"c. c #338ED0",
"v. c #2D93D1",
"b. c #2F9AD1",
"n. c #3195D0",
"m. c #329BD1",
"M. c #3CA1CE",
"N. c #34A4D2",
"B. c #35A9D3",
"V. c #4898C9",
"C. c #5698C6",
"Z. c #46A9C7",
"A. c #4CACC6",
"S. c #43A4C8",
"D. c #49A7C8",
"F. c #56ABC9",
"G. c #4EB2C7",
"H. c #55B2C6",
"J. c #55B8C7",
"K. c #5CBCC6",
"L. c #5BBBC9",
"P. c #6AA8CD",
"I. c #64BBC9",
"U. c #77B0D0",
"Y. c #5DC4C4",
"T. c #63C4C6",
"R. c #64CDC3",
"E. c #69C9C8",
"W. c #76CCC8",
"Q. c #79DBC6",
"!. c #7AE4C1",
"~. c #94948A",
"^. c #8C8D91",
"/. c #A79B85",
"(. c #86BA98",
"). c #A9A99A",
"_. c #B3A794",
"`. c #B2AE94",
"'. c #9D9FA8",
"]. c #B5B4A7",
"[. c #A3A2BE",
"{. c #B7B7B6",
"}. c #95D098",
"|. c #9AE39A",
" X c #A5E292",
".X c #89D9A7",
"XX c #91E4AC",
"oX c #C2C288",
"OX c #E5E583",
"+X c #C4C3AF",
"@X c #C5C4B9",
"#X c #F0F0AD",
"$X c #9A98C3",
"%X c #92B6CB",
"&X c #84ACD1",
"*X c #86B5D2",
"=X c #96BAD4",
"-X c #AEB9CB",
";X c #86D0CC",
":X c #9CC6D6",
">X c #B9CFCE",
",X c #A7C7D4",
"<X c #B1CDD3",
"1X c #B7D4D8",
"2X c #85E3C4",
"3X c #8AE6C4",
"4X c #84EAC1",
"5X c #97EAC7",
"6X c #A4EEC9",
"7X c #A6EEC9",
"8X c #C9C9CA",
"9X c #CFD5CD",
"0X c #D9D8D6",
"qX c #E7D9D5",
"wX c #E0DFE4",
"eX c #E0DFF3",
"rX c #E7E5E2",
"tX c #EEEEEC",
"yX c #EBEAF0",
"uX c gray96",
"iX c #F7F7F8",
"pX c #F9F9F9",
/* pixels */
"6X6X7X7X7X5X5X5 6 B Z 6 5 6 C j 6 4 5 | h H 8 d !.4X4X4X4X4X3X3X",
"5X6X6X5X5X5X| [ [ ' ` *.' ' E P O.' ] ( R P K ; 3XXX!.XX!.!.4X4X",
"6X5X5X5X5X3Xo.>.-.;.;.[ >.>.*.{ { { >.<.;.] _ 6 s |.!.!.!.!.!.!.",
"5X5X5X5X3X2Xo.:.' S S : :.>.*.S S : { :.:.;.E 8 o |.u.XXXX!.!.!.",
"3X5XXX3X2X2X .:.oX0X0X0X+.>.oXqX9X0X#.;.:.;.F K - |.|..X|.u.u.u.",
"3X;XW.W.Q.W.o.4.tXuXuXiXrX%.yXiXpXpXrX| >.{ H I F *  Xu.u.R.R.R.",
"Q.Q.E.T.T.J.O.OXuX{.8.yXtX%.8X6.wXiXuXi ;.` P P Q 4 0 R.R.R.R.R.",
"Q.E.E.A.A.T.O.OX0X9 9 wXuXa q O >XuXrXp :.R J J U H @ .XY.R.R.R.",
"E.L.T.D.D.A.H 3.-X6.6.8X9Xy $X[.yXrX1.) :.R H Q W , e y.Y.Y.Y.Y.",
"E.E.T.F.A.J.7 ] l _ T S A p ).8X@X1.{ } :.I L Q I # L.Y.T.L.J.Y.",
"T.Y.Y.D.G.K.| :.' / R K F [ T Y ~ T 6 ( { P I W 6 + Y.I.Y.Y.J.J.",
"Y.Y.L.J.J.J.o.<.>.Y L _ -.,.:.;.Y 6 P ' ~ H K P , 5.Y.L.H.K.G.G.",
"L.L.G.G.G.G.O.<.<.~ % i 1 p 7 ; 6 ' :.-.~ 6 Q P % A.H.H.H.H.A.A.",
"G.H.G.G.Z.M.O.>.>.T @XrX@.wX8XD :.,.>.' ` 6 Q 6 # A.A.G.F.A.Z.A.",
"6.5.5.B.S.S. .:.R *.^ A :.A / <.:.;.:.{ I F G = M.M.Z.S.S.S.S.S.",
"o G : C M.l.H ;.[ [ ,.<.;.<.>.;.` W ;.;.H %.+X~.S.l.l.l.l.l.V.l.",
"= G Y ] y q a / <.>.*.! -.( ( ;.:.;.>.:.5 `.tXtX{.F.P.l.k.l.l.k.",
"; ] G _ ;.[ +.L :.=.( ` ;.-.*.=.' ;.;.;.H X.].#X2.y U.C.%Xk.h.h.",
", ;.^ F [ ] 4 $.#.J v ..! ` Q  .8 P O...$.a d h { ~ t %XU.d.d.h.",
"M.< * @ # < d.@X@X].9XtX&.N _.tX{.{.tXuX@X/.w V.y { / 1 y U.d.d.",
"m.k.j.V.U.f.p.@XrX9X%._.qXV 0X_._.0XqX0X].~.w j.P.1 >.:.E > s x.",
"m.n.c.<X&X-Xz.x c m m n k M z c m n c z $ X e d.d.1 >.:.>.-.T d ",
"m.v.v.=Xf.=X9.x z m n x N N n x m n x z $ . e a.9.< ' R ^ _ _ = ",
"m.n.v.j.&X=X-Xf 0.B n x 3 , 3 z n x z & X 0 a.a.p.s > A Y ^ 6 e ",
"m.n.V.v.c.<X=X-X&X9.u 2 % X $ b n z % @ 9.r.w.i.a.p.s K ( ; d z.",
"S.1X:X:X1X1X:X,XU.$XC.7.B E z ^ ` , s r.w.r.w.e.w.a.p.d d p.p.a.",
"D.:Xb.V.*X1X%X9X%Xr.y 8X7.L [ [ 6 u # t.r.r.(.r.t.9.9.p.p.a.i.a.",
"B.U.;XU.m.,X<XC.*X'.].t + ~.1.7 @.@Xy O r.}.(.9.a.9.p.p.a.i.z.s.",
"B.N.N.m.l.:X:Xv.x.^.@XZ # {.^.r ^.t   O q.q.r.e.p.a.c.a.z.a.s.s.",
"B.B.N.N.M.1X1Xn.v.x.^.].#   @ p.s ].$.@ C.a.V.f.z.s.c.x.x.x.v.v.",
"B.B.B.N.N.F.U.b.b.b.v.~.).0 s.s.q j y @ s.a.s.s.x.x.x.x.v.v.n.n.",
"B.B.B.N.N.N.N.b.b.b.b.v.7.g.v.v.g.s.s.s.s.s.s.x.s.x.v.v.v.b.n.m."
};
