/* XPM */
static char *bobfundo1706017975[] = {
/* columns rows colors chars-per-pixel */
"32 32 215 2 ",
"   c black",
".  c #250E00",
"X  c #271803",
"o  c #363414",
"O  c #111334",
"+  c #2A2B27",
"@  c #282938",
"#  c #363737",
"$  c #472D13",
"%  c #513621",
"&  c #613F20",
"*  c #3F4137",
"=  c #424204",
"-  c #46461E",
";  c #5A5816",
":  c #6B6902",
">  c #70701C",
",  c #595826",
"<  c #464633",
"1  c #525332",
"2  c #734D2A",
"3  c #7B5529",
"4  c #69652E",
"5  c #716C2A",
"6  c #79772B",
"7  c #69693A",
"8  c #7A7636",
"9  c #19134B",
"0  c #30314E",
"q  c #2B3263",
"w  c #363C67",
"e  c #3C426A",
"r  c #585448",
"t  c #484A50",
"y  c #565855",
"u  c #7B5A5D",
"i  c #6A6A47",
"p  c #787759",
"a  c #4B4F6F",
"s  c #565A75",
"d  c #5B6077",
"f  c #6B6D6E",
"g  c #7A7A73",
"h  c #827D19",
"j  c #85582A",
"k  c #885B2E",
"l  c #96652A",
"z  c #82712F",
"x  c #966734",
"c  c #9C6A35",
"v  c #A67336",
"b  c #ED4204",
"n  c #D65C2A",
"m  c #8F6A64",
"M  c #F57667",
"N  c #7E8059",
"B  c #7E806D",
"V  c #8C8A1B",
"C  c #97951D",
"Z  c #A6A61D",
"A  c #898828",
"S  c #959526",
"D  c #858433",
"F  c #898633",
"G  c #8D8C33",
"H  c #918E31",
"J  c #959435",
"K  c #9A9A39",
"L  c #A8A82E",
"P  c #B5B52D",
"I  c #A4A335",
"U  c #AEAD34",
"Y  c #A4A439",
"T  c #AAAA3A",
"R  c #B6B535",
"E  c #BCBC34",
"W  c #B6B63B",
"Q  c #BBBB3B",
"!  c #C4C339",
"~  c #C4C43B",
"^  c #CCCC3C",
"/  c #D0D037",
"(  c #D3D33D",
")  c #DCDB3E",
"_  c #F9C435",
"`  c #888845",
"'  c #969648",
"]  c #97964F",
"[  c #828256",
"{  c #9FA046",
"}  c #A6A646",
"|  c #B8B848",
" . c #AFAD58",
".. c #878866",
"X. c #9D9D68",
"o. c #878775",
"O. c #A4A36E",
"+. c #B2B276",
"@. c #F38675",
"#. c #CECE41",
"$. c #D5D540",
"%. c #DCDC41",
"&. c #E3E342",
"*. c #ECEC45",
"=. c #F3F347",
"-. c #F6F648",
";. c #FBFB49",
":. c #D8D768",
">. c #C7C77C",
",. c #DCDC71",
"<. c #E4E47A",
"1. c #495483",
"2. c #57508F",
"3. c #717594",
"4. c #6B66AD",
"5. c #287ECC",
"6. c #836C81",
"7. c #599BB9",
"8. c #71ACA4",
"9. c #6BA7B4",
"0. c #77CDAC",
"q. c #76DBB9",
"w. c #2C80C4",
"e. c #2681CE",
"r. c #2B84CD",
"t. c #2C8BCE",
"y. c #338ACA",
"u. c #2F90CC",
"i. c #3697CC",
"p. c #3D9CCB",
"a. c #2B86D1",
"s. c #2C8DD0",
"d. c #338ED0",
"f. c #2D93D1",
"g. c #2F9AD1",
"h. c #329BD1",
"j. c #3CA1CF",
"k. c #34A4D2",
"l. c #35A9D3",
"z. c #408BC6",
"x. c #459BCC",
"c. c #5694CB",
"v. c #6899CE",
"b. c #4BACC7",
"n. c #43A4CA",
"m. c #48A9C9",
"M. c #53ACC9",
"N. c #4EB2C7",
"B. c #55B2C6",
"V. c #56B9C6",
"C. c #5CBCC6",
"Z. c #54B5C9",
"A. c #5BBBC9",
"S. c #7CABCE",
"D. c #64BBC9",
"F. c #7AA7D1",
"G. c #70AFD1",
"H. c #5DC4C4",
"J. c #5EC6C6",
"K. c #64C4C6",
"L. c #64CDC3",
"P. c #69C9C8",
"I. c #76CCC8",
"U. c #6AD5C1",
"Y. c #79DBC6",
"T. c #7BE5C1",
"R. c #79E4C2",
"E. c #94948A",
"W. c #8C8D91",
"Q. c #A9A99A",
"!. c #B3A794",
"~. c #B2AE94",
"^. c #9D9FA8",
"/. c #B5B4A7",
"(. c #A3A2BE",
"). c #B7B7B6",
"_. c #98E297",
"`. c #A7E38D",
"'. c #8AD8A6",
"]. c #96E3A2",
"[. c #C2C288",
"{. c #E5E583",
"}. c #C4C3AF",
"|. c #C5C4B9",
" X c #F0F0AD",
".X c #92B5CB",
"XX c #85ABD1",
"oX c #8AB4D1",
"OX c #B0BBCE",
"+X c #86D0CC",
"@X c #9CC6D6",
"#X c #A6C6D5",
"$X c #B5CED1",
"%X c #B7D5D9",
"&X c #85E3C4",
"*X c #8DE5C4",
"=X c #84EAC1",
"-X c #8AE8C5",
";X c #97EAC7",
":X c #A4EEC9",
">X c #A6EEC9",
",X c #C9C9CA",
"<X c #CFD5CD",
"1X c #D7D7D6",
"2X c #DBDAD5",
"3X c #E2DCD6",
"4X c #F3D5D2",
"5X c #E0DFE4",
"6X c #E0DFF3",
"7X c #E7E5E2",
"8X c #EEEEEC",
"9X c #EBEAF0",
"0X c gray96",
"qX c #F7F7F8",
"wX c #F9F9F9",
/* pixels */
":X:X>X>X>X;X;X;Xd 6 F 3.D 5 5 6 f N 6 5 6 ..g 6 5 -X=X=X=X=X-X-X",
";X:X:X;X;X;X;X-X; H G Y Q ^ ^ R K U ^ #.^ Q ^ / ^ ' =X=XT.T.T.'.",
":X;X;X;X;X*X-Xa 6 ! ( &.;.=.) &.) ( =.=.( *.&.&.*.{ T.T.R.R.T.T.",
";X;X;X;X*X&XT.o 8 U &.*.*.) : V S #.=.*.: C V #.*.} q.].].R.T.T.",
"*X*X*X&X&X&XY.- G F &.&.) O.1X1X2X>.*. .1X1X1X[.*.' _.'.].q.q.U.",
"*X*XI.I.Y.I.0 F K D %.=.` 5XqX0X0X8X+.7XqXqXqX8X<.T `.q.q.U.U.U.",
"Y.Y.P.K.K.0 5 I J J #.&.i 0XwX5X2.,XO.0X6X4.).0X<.| _.L.L.U.L.L.",
"Y.K.P.b.b.@ D K F F K =.z 7XwX,XO q p 0X7X9 9 1X{.| 0.'.J.J.L.J.",
"I.A.D.M.n.w , L T A I *.L :.7X6X(.(.y <X,X2.2.OX,.D '.0.H.H.H.H.",
"P.K.K.Z.N.Z.# K T H I *._ ) ,.|.|.Q.m V C P E h / i H.K.D.H.H.C.",
"P.J.A.b.N.H.+ 8 Y J J %.Q 6 L P S P ( z H I W ^ *.` J.D.C.C.V.V.",
"J.A.V.Z.N.V.1.; J G D W ^ J 6 L *.*.-.&.~ A L -.-.} A.A.C.C.N.N.",
"Z.A.Z.N.m.N.B.% J Y z R ) =.^ 6 ; 7 i ; i < R ;.;.Q B.B.B.B.b.b.",
"Z.N.N.m.n.m.n.# 6 T 6 ~ ^ -.-.=.Z ,X7X..7X|.P *.-.| M.B.M.b.m.b.",
"N.m.m.n.n.n.n.n.= J A K ) *.&.*.;.P S *.A E #.K *.' n.n.j.1.a 1.",
"m.n.l.n.j.j.p.n.E.}.+.z &.&.Y ~ &.-.;.&.;.-.$.$.&.D j.j.N : S = ",
"n.n.p.p.i.p.p.).8X0X~.5 *.-.) *.&.Q Q %.W #.=.;.W p q y / L S = ",
"n.p.p.p.i.u.y >. X/.` z &.&.&.^ %.#.%.&.! | $.*.H  .) %.~ S ~ ; ",
"j.p.x.x.x.t R ) f s p o.]  .J 8 ' | ~ W ] z H O.o.4 ^ %.A P &.4 ",
"h.i.x.a 1 R ) y y.w !.|.8X8X).}.8X!.n @.8X,X!.|.}.XX< # @ # < i.",
"p.a > U *.-.1 r.y.w E./.1X7X2X!.!.2XM 4X/.O.|.8X}.v.oX.XS.oXy.t.",
"s P %.=.*.=.1 t.c.e . $ j l l v l j b b x v v l k r.S.S.t.t.r.y.",
"= ~ ~ E L ^ < .XOXe . $ 3 j c v j c n n k c v j k r.r.w.r.r.r.5.",
"a > E U V 4 a F.F.XX0 X 2 3 k c j 3 & 2 k c m 6.3.e.r.e.e.e.e.5.",
"g.d ; E S a oX#XXXe.e.5.@ % j c l $ X % j u 7.r.5.5.e.e.e.e.5.e.",
"j.%X#Xs s $X#X#XXXXXc.e.5.1.; ^ W z U [ 3.8.7.9.7.5.e.5.e.e.e.e.",
"m.@Xg.p.+X%XoX1XoXv.#Xc.5.0 f > ^ ( G 3.,Xy 3.8.9.5.e.e.e.w.w.r.",
"l.G.+XoXi.#X$Xc.oX#XOXF.O y |.X.7 :.E.+ r /.^.y.5.5.e.e.e.r.r.r.",
"l.k.k.h.i.@X@Xt.f.a.c.a.@   1 W.a 3.).# B |.W.9.r.t.d.r.r.r.t.t.",
"l.k.k.k.p.%X%Xf.f.f.f.s.@ m ).e 5.q   # /.E.z.y.a.r.d.t.f.s.f.f.",
"l.l.l.k.k.M.G.g.g.f.f.f.@ t g q s.d.# Q.E.a.t.t.a.t.s.s.f.f.f.h.",
"l.l.l.k.k.k.k.h.g.g.g.g.f.f.f.s.d.s.s.3.t.t.t.s.s.f.f.f.f.f.h.h."
};
