/* XPM */
static char *_1340b2868174ae2ff64a0b94f8b475bZ9hpuWHpPHxcmpeD[] = {
/* columns rows colors chars-per-pixel */
"32 32 226 2 ",
"   c black",
".  c #250E00",
"X  c #271803",
"o  c #363414",
"O  c #111334",
"+  c #2A2B27",
"@  c #282938",
"#  c #363737",
"$  c #472D13",
"%  c #513621",
"&  c #613F20",
"*  c #3F4137",
"=  c #424204",
"-  c #46461E",
";  c #5A5816",
":  c #6B6902",
">  c #70701C",
",  c #595826",
"<  c #464633",
"1  c #525332",
"2  c #734D2A",
"3  c #7B5529",
"4  c #69652E",
"5  c #716C2A",
"6  c #79772B",
"7  c #69693A",
"8  c #7A7636",
"9  c #19134B",
"0  c #30314E",
"q  c #2B3263",
"w  c #363C67",
"e  c #3F415F",
"r  c #3C426A",
"t  c #3F477C",
"y  c #4E4E4C",
"u  c #565855",
"i  c #7B5A5D",
"p  c #6A6A47",
"a  c #73724C",
"s  c #787759",
"d  c #4B4F6F",
"f  c #565A75",
"g  c #6F5F7F",
"h  c #5B6077",
"j  c #707170",
"k  c #F13D00",
"l  c #E73E24",
"z  c #827D19",
"x  c #86592B",
"c  c #96652A",
"v  c #82712F",
"b  c #966734",
"n  c #9C6A35",
"m  c #A67336",
"M  c #ED4204",
"N  c #D25128",
"B  c #E54A27",
"V  c #E65B29",
"C  c #DA6D2F",
"Z  c #E6752E",
"A  c #A6735A",
"S  c #DE7E47",
"D  c #C4755B",
"F  c #F57667",
"G  c #7E8059",
"H  c #8C8A1B",
"J  c #97951D",
"K  c #A6A61D",
"L  c #898828",
"P  c #959526",
"I  c #858433",
"U  c #898633",
"Y  c #8D8C33",
"T  c #918E31",
"R  c #959435",
"E  c #9A9A39",
"W  c #A8A82E",
"Q  c #B5B52D",
"!  c #A4A335",
"~  c #AEAD34",
"^  c #A4A439",
"/  c #AAAA3A",
"(  c #B5AF3B",
")  c #B6B535",
"_  c #BCBC34",
"`  c #B6B63B",
"'  c #BBBB3B",
"]  c #CA8F36",
"[  c #EF8F3A",
"{  c #F48B34",
"}  c #F7A23C",
"|  c #C4C339",
" . c #C4C43B",
".. c #CCCC3C",
"X. c #D0D037",
"o. c #D3D33D",
"O. c #DCDB3E",
"+. c #F9C435",
"@. c #888845",
"#. c #969648",
"$. c #8C8C52",
"%. c #BC9253",
"&. c #9FA046",
"*. c #A6A646",
"=. c #B8B848",
"-. c #AFAD58",
";. c #878866",
":. c #9D9D68",
">. c #878775",
",. c #ABAA72",
"<. c #C69149",
"1. c #F1A84E",
"2. c #E58F6C",
"3. c #CECE41",
"4. c #D5D540",
"5. c #DCDC41",
"6. c #E3E342",
"7. c #ECEC45",
"8. c #F3F347",
"9. c #F6F648",
"0. c #FBFB49",
"q. c #D8D768",
"w. c #C7C77C",
"e. c #DCDC71",
"r. c #E4E47A",
"t. c #475383",
"y. c #56528C",
"u. c #5C649B",
"i. c #717493",
"p. c #287ECC",
"a. c #836C81",
"s. c #5E9DB6",
"d. c #6486B0",
"f. c #6CA8B0",
"g. c #77CDAC",
"h. c #76DBB9",
"j. c #7FE4BF",
"k. c #2C80C4",
"l. c #2781CE",
"z. c #2A83CC",
"x. c #2C8CCF",
"c. c #3388C9",
"v. c #3798CC",
"b. c #3D9CCB",
"n. c #2B86D1",
"m. c #2B8CD0",
"M. c #358DD0",
"N. c #2D93D1",
"B. c #2F9CD0",
"V. c #329BD1",
"C. c #3CA1CF",
"Z. c #34A4D2",
"A. c #35A9D3",
"S. c #408BC6",
"D. c #449CCD",
"F. c #4BACC7",
"G. c #43A4CA",
"H. c #48A9C9",
"J. c #53ACC9",
"K. c #4EB2C7",
"L. c #55B2C6",
"P. c #56B9C6",
"I. c #5CBCC6",
"U. c #54B5C9",
"Y. c #5BBBC9",
"T. c #7CADCE",
"R. c #64BBC9",
"E. c #78B4D2",
"W. c #5DC4C4",
"Q. c #64C4C6",
"!. c #64CDC3",
"~. c #69C9C8",
"^. c #76CCC8",
"/. c #6AD5C1",
"(. c #79DBC6",
"). c #7AE4C1",
"_. c #94948A",
"`. c #8C8D91",
"'. c #A79B85",
"]. c #A9A99A",
"[. c #B3A794",
"{. c #B2AE94",
"}. c #9D9FA8",
"|. c #B5B4A7",
" X c #A3A2BE",
".X c #B7B7B6",
"XX c #D1B1AC",
"oX c #E5A9A7",
"OX c #97DD9A",
"+X c #A0E392",
"@X c #8AD8A6",
"#X c #96E3A2",
"$X c #C2C288",
"%X c #E5E583",
"&X c #C5C4B9",
"*X c #D3C6B3",
"=X c #F0F0AD",
"-X c #9A98C3",
";X c #90B0CB",
":X c #95AAD3",
">X c #9EB0D4",
",X c #B9BACA",
"<X c #A6B8DA",
"1X c #92CBD1",
"2X c #B8C8C8",
"3X c #B3CDD7",
"4X c #85E3C4",
"5X c #8BE7C4",
"6X c #84EAC1",
"7X c #97EAC7",
"8X c #A4EEC9",
"9X c #A6EEC9",
"0X c #C9C9CA",
"qX c #D0D3CB",
"wX c #D9D8D6",
"eX c #E1D8D4",
"rX c #F3D5D2",
"tX c #EAE7D9",
"yX c #D7D6E8",
"uX c #E1DEEA",
"iX c #D5E2E4",
"pX c #E7E5E2",
"aX c #EEEEEC",
"sX c #EBEAF0",
"dX c gray96",
"fX c #F8F8F8",
/* pixels */
"8X8X8X8X8X7X7X5Xf 6 U g @.5 5 6 j ;.6 5 6 ;.j 6 5 6X6X6X6X6X6X5X",
"8X8X8X7X7X7X7X5X; Y Y ^ ' X...` R ~ ..o... .......@.6Xj.).).).6X",
"7X7X7X7X7X5X5Xd 6  ...6.0.8.O.6.O.o.8.8.o.7.6.6.8.*.j.).).).).).",
"7X7X7X5X5X4X4Xo 8 ~ 6.7.7.O.: H P ..8.7.: J H ..8.*.h.#X#Xh.(.).",
"7X5X5X4X4X4X(.- Y U 6.6.O.:.wXwXwX$X7.-.wXwXwX$X7.#.OX@XOXh.h./.",
"4X4X^.^.(.(.0 U E U 5.8.@.pXfXfXfXaX,.pXfXdXdXaXr.*.+X@Xh./././.",
"(.(.~.Q.Q.0 4 E R R  .6.p dXfXyXy.qX,.dXsXu..XdX%X=.OX!.!./.!.!.",
"(.Q.~.F.J.@ v E U U ! 7.a pXfX0XO q s dXpX9 9 wX%X=.g.@XW.!.!.!.",
"~.I.I.F.G.r , ^ / U ! 7.] q.tXuX X-Xu 0X0Xy.t.,Xe.@.@Xg.W.W.W.W.",
"~.Q.Q.U.L.P.# E / R E 7.+.O.e.&X&X].a H J ) | z ..7 I.Q.Q.W.I.I.",
"Q.Q.I.F.K.I.+ 8 ^ E R 5.' 6 W Q W Q 4.I T ! ` 3.7.@.R.R.R.I.P.P.",
"W.Y.P.P.K.P.t., R Y I ) ..R 6 W 6.8.8.5. .L ~ 9.9.*.Y.Y.Y.Y.U.K.",
"Y.Y.U.K.F.F.U.- R ^ 6 ) O.7...6 ; 7 p , p < ) 0.9.=.L.L.L.L.F.F.",
"U.K.F.H.H.H.H.# 6 / 6  ...9.9.7.K 0XwX;.pX&XQ 7.8.=.J.J.J.F.H.H.",
"K.H.H.G.G.G.G.G.= R I R 5.7.6.7.0.~ P 7.L _ 3.! 7.#.G.G.G.t.t.t.",
"H.G.G.C.b.b.b.D._.&X,.v 6.6.^  .6.8.0.6.0.8.5.o.6.@.b.b.G : P = ",
"G.G.b.b.b.b.b..XaXaX{.5 7.8.6.7.6.' ' 5.` 3.8.0.` s q u X.W P = ",
"G.b.b.b.v.v.u w.=X|.@.I 5.6.6...5.o.5.6.| ` 4.7.T =.o.O. .P ..; ",
"C.b.D.D.D.y ) O.j f s >.&.=.R 8 $./ | ( #.8 U :.>.4 ..o.L ) 7.4 ",
"b.v.D.d , ) 5.u { w ].&XaXaX.X.XaX[.V 2.aX0X].&X&XT.* * @ # < x.",
"V.d > ~ 7.8.1 B Z w _.|.eXpXeX[.[.wXF rX|.'.qXpX&Xd.;X;XT.;Xc.x.",
"f ~ 5.8.7.8.1 V Z r . $ x c n m c x M k c m m c x z.T.T.z.z.z.z.",
"= | | _ W ..< V { r . $ x x b m x n N C x n m x x z.z.c.n.l.l.z.",
"d > _ ~ L > d V { } 0 X & 3 x n x 3 2 3 x n A a.g l.l.l.l.l.l.p.",
"V.h ; _ P d oXV { } 1.,X@ % x n b $ X % 3 i B uXz.l.z.l.l.p.l.l.",
"C.3X3Xf f 2XoXB [ 1.XX:X<Xy.; ..` x ~ $.i.C B f.s.z.l.p.l.l.l.l.",
"H.1XB.b.;XqXoXB C C -X<X3X# j > X.o.Y i.0Xu i.f.f.l.p.l.l.z.z.z.",
"Z.R.1XE.v.3XXXl V Z :X>XO u qX;.7 q.'.+ y |.}.k.p.l.l.l.l.z.n.m.",
"A.Z.Z.V.v.1XeXD S S :X>XO   y `.t `..X# j &X`.f.l.z.M.z.n.z.x.x.",
"A.A.Z.Z.b.3XiX%.<.<.>X<X@ >.|.e 1.0   # |._.uXS.n.z.M.x.m.m.N.N.",
"A.A.A.Z.Z.J.E.*X<.<.-X<X@ y j w 1.] @ ]._.XXx.x.x.x.m.m.N.N.N.V.",
"A.A.A.A.Z.Z.Z.Z.pX*X3X<X>X<X2X2.<.%.D i.tXx.x.x.x.N.N.N.N.N.V.V."
};
