/* XPM */
static char *bobsea1706016485[] = {
/* columns rows colors chars-per-pixel */
"32 32 224 2 ",
"   c black",
".  c #250E00",
"X  c #271803",
"o  c #363414",
"O  c #000038",
"+  c #191C32",
"@  c #2A2B27",
"#  c #282938",
"$  c #363737",
"%  c #472D13",
"&  c #513621",
"*  c #613F20",
"=  c #3F4137",
"-  c #424204",
";  c #46461E",
":  c #5A5816",
">  c #6B6902",
",  c #70701C",
"<  c #595826",
"1  c #464633",
"2  c #525332",
"3  c #734D2A",
"4  c #7B5529",
"5  c #646227",
"6  c #716C2A",
"7  c #79772B",
"8  c #69693A",
"9  c #726D3B",
"0  c #7A7636",
"q  c #19134B",
"w  c #282C4B",
"e  c #363550",
"r  c #2B3263",
"t  c #363C67",
"y  c #3F415F",
"u  c #3C426A",
"i  c #3F477C",
"p  c #585448",
"a  c #484A50",
"s  c #565855",
"d  c #7B5A5D",
"f  c #6A6A47",
"g  c #73724C",
"h  c #787759",
"j  c #464A69",
"k  c #575765",
"l  c #424977",
"z  c #4D5377",
"x  c #565A75",
"c  c #5B6077",
"v  c #6B6D6E",
"b  c #7A7A73",
"n  c #F13D00",
"m  c #827D19",
"M  c #85582A",
"N  c #885B2E",
"B  c #96652A",
"V  c #82712F",
"C  c #966734",
"Z  c #9C6A35",
"A  c #A67336",
"S  c #ED4204",
"D  c #D65C2A",
"F  c #8F6A64",
"G  c #F57667",
"H  c #7E8059",
"J  c #8C8A1B",
"K  c #97951D",
"L  c #A6A61D",
"P  c #898828",
"I  c #959526",
"U  c #858433",
"Y  c #898633",
"T  c #8D8C33",
"R  c #918E31",
"E  c #959435",
"W  c #9A9A39",
"Q  c #A8A82E",
"!  c #B5B52D",
"~  c #A4A335",
"^  c #AEAD34",
"/  c #A4A439",
"(  c #AAAA3A",
")  c #B6B535",
"_  c #BCBC34",
"`  c #B6B63B",
"'  c #BDBD3D",
"]  c #C4C339",
"[  c #C4C43B",
"{  c #CCCC3C",
"}  c #D0D037",
"|  c #D3D33D",
" . c #DCDB3E",
".. c #F9C435",
"X. c #888845",
"o. c #969648",
"O. c #97964F",
"+. c #828256",
"@. c #9FA046",
"#. c #A6A646",
"$. c #B8B848",
"%. c #AFAD58",
"&. c #878866",
"*. c #9D9D68",
"=. c #878775",
"-. c #A4A36E",
";. c #B2B276",
":. c #F38675",
">. c #CECE41",
",. c #D5D540",
"<. c #DCDC41",
"1. c #E3E342",
"2. c #ECEC45",
"3. c #F3F347",
"4. c #F6F648",
"5. c #FBFB49",
"6. c #D8D768",
"7. c #C7C77C",
"8. c #DCDC71",
"9. c #E4E47A",
"0. c #4B5684",
"q. c #57508F",
"w. c #717594",
"e. c #6B66AD",
"r. c #54BCCA",
"t. c #66B8C5",
"y. c #79BBC7",
"u. c #66BED3",
"i. c #73BCD4",
"p. c #5AC4D8",
"a. c #5DCADC",
"s. c #75C3CF",
"d. c #64C3D4",
"f. c #6CC4D5",
"g. c #6AC9D6",
"h. c #63C5DA",
"j. c #6CC6DB",
"k. c #64CBDC",
"l. c #69CADD",
"z. c #71C4D5",
"x. c #7AC8D6",
"c. c #73C5DC",
"v. c #72CBDB",
"b. c #7DCADB",
"n. c #6DD2DE",
"m. c #5FCCE3",
"M. c #5FCBE9",
"N. c #5FD2E5",
"B. c #6AC7E0",
"V. c #63CBE2",
"C. c #62C9E6",
"Z. c #6CCAE2",
"A. c #73C9E3",
"S. c #6CD4E5",
"D. c #68D6E9",
"F. c #7BD7E5",
"G. c #79D7F1",
"H. c #94948A",
"J. c #8C8D91",
"K. c #A79B85",
"L. c #A9A99A",
"P. c #B3A794",
"I. c #B2AE94",
"U. c #9D9FA8",
"Y. c #B5B4A7",
"T. c #B7B7B6",
"R. c #C2C288",
"E. c #E5E583",
"W. c #C4C3AF",
"Q. c #C5C4B9",
"!. c #F0F0AD",
"~. c #9A98C3",
"^. c #82BED6",
"/. c #BBB9CB",
"(. c #92C6CF",
"). c #88CADB",
"_. c #8ACDDD",
"`. c #8CD2DD",
"'. c #85D9DA",
"]. c #94D5D8",
"[. c #A2CEDB",
"{. c #83E0DE",
"}. c #89CDE3",
"|. c #93CDE6",
" X c #8CD4E4",
".X c #88D8E6",
"XX c #84D6E9",
"oX c #8AD6E9",
"OX c #91D4E3",
"+X c #91D5EA",
"@X c #97DAE9",
"#X c #8CD9F1",
"$X c #95DBF2",
"%X c #93DCF3",
"&X c #A3D8E9",
"*X c #A3DAF4",
"=X c #89E1E8",
"-X c #96E4F9",
";X c #9BEDFD",
":X c #9DF1FF",
">X c #A5EDFD",
",X c #B4E7FF",
"<X c #A6F7FF",
"1X c #ABF6FF",
"2X c #ACFAFF",
"3X c #B6FAFF",
"4X c #C9C9CA",
"5X c #D5D0C4",
"6X c #D7D7D6",
"7X c #DBDAD5",
"8X c #E2DCD6",
"9X c #F3D5D2",
"0X c #EDEDDE",
"qX c #D2D0EA",
"wX c #E0DFF3",
"eX c #C4F9FF",
"rX c #C2FFFF",
"tX c #D6FFFF",
"yX c #E7E5E2",
"uX c #EEEEEC",
"iX c #EBEAF0",
"pX c gray96",
"aX c #F7F7F8",
"sX c #F9F9F9",
/* pixels */
"k.V.V.m.V.m.V.C.x 7 Y w.X.6 6 7 v h 7 6 7 &.b 7 6 C.M.M.M.M.C.h.",
"k.V.k.m.k.m.m.C.: R R / ' } { ) E ) { ,.{ ' { { { o.M.M.M.M.C.A.",
"k.V.V.V.m.m.m.j 7 ] | 1.3.3. .1.| | 3.3.| 1.1.1.3.o.V.M.M.C.k.u.",
"l.B.l.V.V.m.m.o 0 ^ 1.2.2. .> J I >.3.2.> K K { 3.@.N.M.m.V.l.f.",
"B.V.V.V.V.m.m.; T Y 1.1. .*.7X6X7X7.2.%.6X6X6XR.2.o.m.m.k.k.k.F.",
"l.l.l.B.l.l.e Y W U <.3.X.yXaXaXpXuX;.yXsXpXaXuX9.#.m.m.k.k.k..X",
"l.j.c.c.oXw 5 / E E $.1.f pXsXqXq.5X-.pXwXe.T.pX9.$.N.M.C.C.k.f.",
"k.u.b.oX3X# U W Y T ( 3.V 0XsX4XO t h aXyXq q 6XE.$.C.C.C.C.C.h.",
"p.F.c.>X|.t < Q ( Y ~ 2.Q 6.0XwX~.~.k 5X4Xq.z /.8.Y k.N.V.C.V.d.",
"k.j.-XoX$X}.$ W ( R ~ 2... .6.Q.Q.P.g m I ! ] 7 } g a.k.k.V.V.S.",
"k.l.-X#X%X}.@ 0 / E E <.' 7 Q ! Q ! | Y R ~ ` { 1.X.k.k.k.l.k.Z.",
"p.G.A.:XXX%X0.: E T U ) { E 7 ^ 1.3.4.1.[ P Q 3.4.#.k.k.k.l.V.u.",
"m.p.l.F.:X2X2X; E / U )  .2.[ 7 : 8 f 5 f = ! 5.3.>.a.k.k.k.j.j.",
"a.a.h.d.j.v.c.$ 7 ( 7 [ { 3.4.3.L 5X8X&.yXQ.! 3.3.$.a.k.k.h.B.j.",
"m.N.a.l.d.g.d.f.- E P W  .2.1.2.5.^ I 2.P _ >./ 2.o.M.V.C.0.0.0.",
"N.p.a.a.S.g.g.f.H.W.;.V 1.1./ [ 1.3.5.1.5.3.,.| <.X.a.a.H > I - ",
"a.D.p.n.g.g.d.T.uXpXI.9 2.4.1.2.1.` ' <.` >.2.5.' h r s } Q I - ",
"D.a.S.r.n.g.a 7.!.Y.X.V <.1.1.{ <.| <.1.[ ' <.1.R %. . .[ I { : ",
"a.S.r.n.n.a )  .v k h =.O.$.W 9 o.$.[ ` o.0 T -.=.8 } | P ) 1.5 ",
"Z.r.S.j < )  .s tXu K.Q.uXpXY.W.iXP.D :.uX4XY.Q.W.l.$ 1 @ $ 1 N.",
"u.z , ^ 2.3.2 (.[.t H.Y.7X8X8XP.P.7XG 9XY.K.5XyXW.j.g.f.l.v.j.k.",
"x ^  .3.2.3.2 &X(.u . % M B Z A B M S n B A A N N 2X3XrX2X Xi.A.",
"- [ ] _ ~ { 1 OX Xu . % N N Z A M Z D D N Z A N N &XeXtXeX,X,Xi.",
"j , ) ! J , z `..X.Xw X * 4 N Z M M * 3 M Z F F w.(.[.].&X*X*X-X",
"j.c : _ I l  X X.X.XXXoX# & M Z C % X % 4 d <X`.].].'.'.].=X@X1X",
"l.:X%Xk x oX XoX.XXX.XoX X0.: [ ` N ) +.w.G.-X X'.'.{.{.F.F.'.;X",
"h.:X#X#X}.+X+X XoX.XoX.XoX$ v 7 | | Y w.4Xk w.+X`.'.{.F.F.F.F.-X",
"j.G.:X#X}. X+X X X.X.X X+ s Q.&.f 6.L.@ 1 Y.U.XX`..X{.=X=X.X).2X",
"v.f.2X$XoX+X+X XOX X XOX+   p J.i J.Y.$ b W.J.|.|.`.OXOXOX|.|.1X",
"z.x.>X<Xb.$X}.OXOXOX`.OX# =.Y.y f.w   $ Y.H.#X3X@X_.OXOX_.&XeX%X",
"x.t.x.3X<X X|.@X`.OX@X`.+ s b r v.l.# L.H.B.c.$XrX$X+XOX*XtX*XA.",
"b.b.t.s.2X1X@X).@X`.y.`.3XrX>Xx.j.k.N.w.V.B.j.i.c.:X1X1X>X^.i.u."
};
