/* XPM */
static char *f3c03a44164d4ab4d53ad65222995744RXL9ubNrjKaaqPqW[] = {
/* columns rows colors chars-per-pixel */
"23 46 16 1 ",
"  c None",
". c black",
"X c #162029",
"o c #12273D",
"O c gray23",
"+ c #491D00",
"@ c #722D00",
"# c #16314C",
"$ c #354658",
"% c #4A627A",
"& c #A54200",
"* c #BE6F4C",
"= c #E0A272",
"- c #29598B",
"; c #F3C598",
": c gray95",
/* pixels */
"        ..     .       ",
" .......--.... ..      ",
"  .#---o.o----..-..    ",
"   .#----..o--##o#.    ",
"      #--------##--.   ",
"   ...o#-----------.   ",
"  .oooo#-----------.   ",
" .oooo#------------..  ",
"  .oo#-----------###o. ",
"   ....oo--------#ooo..",
"  .######---##----o#.  ",
"..###ooo#--##;##--o#.  ",
"  .###oo#-##;;;#--oo.  ",
"   .o##o###=;;;#-ooo.  ",
"   .###.##.==;;#.o...  ",
"  ..#oo..#::..*.... .  ",
"....oo..*.::O=;;=.     ",
"   .o...*.=;;;;;;.     ",
"   .o..*..*=;;;;.      ",
"   .o.*=*...*==.*.     ",
"   .o.;.*=;;...*;.     ",
"  .oo.=*=;;;;;.;;.     ",
"  .o.=*.*=;;==*=;.     ",
"  ...*.=.*=;;;*;;.     ",
" .=;;;..*..***.**.     ",
" .*=;. .=*=.=;*;..     ",
" .=;=.  .;*=**.*.*.    ",
".....    .;*=;*;...    ",
".XXX.   .........X.    ",
"......  .XXXXXXX.X.    ",
".*===;............*.   ",
".===.;.X$$XX$%XXX.=.   ",
".;;=..X$%%$XX$X$X.;.   ",
" ..;..$%%%%$.X$$$..    ",
"   ..X$%%%%..X$$$.     ",
"    .X$%%%$..X$$$.     ",
"   .XX$$%%....X$X.     ",
"   .$X$$$X.....XX.     ",
"  .%%$$$X...XX$$..     ",
"  .$%%%$X. ..$$$..     ",
"  ...$%..  ......      ",
"  .++...   .+++@.      ",
" .+@+++.   .++@@&.     ",
" .@&@+.     .@@&&&.    ",
" .&&&@.     .......    ",
" ......                "
};
