/* XPM */
static char *_c649dd949a84ff083722b797a3cfc5e[] = {
/* columns rows colors chars-per-pixel */
"32 32 114 2 ",
"   c #EEAE4A",
".  c #EEAE4C",
"X  c #EFB34B",
"o  c #EFB44B",
"O  c #EEB34E",
"+  c #F0B64B",
"@  c #F3BE4E",
"#  c #EEB350",
"$  c #EFB551",
"%  c #EDB157",
"&  c #EDB259",
"*  c #EDB45E",
"=  c #F0B854",
"-  c #F0BC57",
";  c #F1BB58",
":  c #F1BF59",
">  c #EEB664",
",  c #EFBE7C",
"<  c #F5C44E",
"1  c #F4C550",
"2  c #F4C754",
"3  c #F5CA57",
"4  c #F2C05B",
"5  c #F3C25D",
"6  c #F6CA59",
"7  c #F3C660",
"8  c #F4C560",
"9  c #F4C963",
"0  c #F7CF61",
"q  c #F5CB65",
"w  c #F6CD68",
"e  c #F7D264",
"r  c #F8D163",
"t  c #F9D467",
"y  c #F7D36B",
"u  c #F9D569",
"i  c #F8D36C",
"p  c #F9D56E",
"a  c #FAD96F",
"s  c #FAD870",
"d  c #FBDE73",
"f  c #FBDB74",
"g  c #FBDE76",
"h  c #FCDE76",
"j  c #FBDF7A",
"k  c #FCDE78",
"l  c #FADF7F",
"z  c #FAE07F",
"x  c #EDC086",
"c  c #EDC189",
"v  c #FAE082",
"b  c #FBE186",
"n  c #FAE18A",
"m  c #FCE288",
"M  c #F9E18D",
"N  c #FAE290",
"B  c #F8E296",
"V  c #F8E39D",
"C  c #EFCFA9",
"Z  c #F0CDA2",
"A  c #F1D0A5",
"S  c #F2D3AC",
"D  c #EDD3B4",
"F  c #EFD7BE",
"G  c #F4D7B7",
"H  c #F0DEBC",
"J  c #F7E3A3",
"K  c #F9E5A5",
"L  c #F7E4A8",
"P  c #F7E4AD",
"I  c #F6E5B2",
"U  c #F6E6B5",
"Y  c #FAEAB5",
"T  c #F1DBC1",
"R  c #F5E8C2",
"E  c #FAEDC3",
"W  c #F4E1C9",
"Q  c #F6E4CD",
"!  c #F3E9C9",
"~  c #F6EACB",
"^  c #EEE5D9",
"/  c #F0E2D3",
"(  c #F7EED3",
")  c #F7E8D4",
"_  c #F4EBDD",
"`  c #F4EFDD",
"'  c #FAEEDF",
"]  c #FBF1D2",
"[  c #FAF1D7",
"{  c #FCF4D6",
"}  c #EFEBE7",
"|  c #EFECE8",
" . c #EEEEEE",
".. c #F4EFE3",
"X. c #F4EDE4",
"o. c #F0EFEE",
"O. c #F9F0E2",
"+. c #FCF6E1",
"@. c #F3F0EA",
"#. c #F4F1E9",
"$. c #FAF3E9",
"%. c #FBF8EC",
"&. c #FDFAED",
"*. c #F1F1F1",
"=. c #F3F4F3",
"-. c #F7F5F2",
";. c #F6F6F6",
":. c #FBF9F1",
">. c #FCFAF0",
",. c #FEFCF2",
"<. c #F8F8F4",
"1. c #F8F8F8",
"2. c #FDFCF8",
"3. c white",
/* pixels */
" . .1.3.3. . .1.3.3. . .1.3.3. . .1.3.1. . .1.3.1. . .1.3.1. . .",
" . .1.3.3. . .1.3.3. . .1.3.3. . .1.3.1. . .1.3.1. . .1.3.1. . .",
";.;.;.;.;.;.;.;.;.;.;.;.;.;.;.;.;.;.;.;.;.;.;.;.;.;.;.;.;.;.;.;.",
"3.3.;. .*.3.3.;. .*.3.3.;. .*.3.3.=.| / ' 2.*. .*.3.3.*. .*.3.3.",
"3.3.;. .*.3.3.;. .*.3.3.;. .*.3.3.T &     > C ^ *.3.3.*. .*.3.3.",
" . .1.3.3. . .1.3.3. . .1.3.3. .D               x F } 1.3.1. . .",
" . .1.3.3. . .1.3.3. . .1.3.3. .c                   % A O.1. . .",
"1.1.;.;.;.1.1.;.;.;.1.1.;.W G x .                       O _ 1.1.",
"3.3.;. .*.3.3.;. .*.3.2.Z                               $ Q 3.3.",
"3.3.;. .*.3.3.;. .*.$.,                         = 8 w s g ( 3.3.",
" . .1.3.3. . .1.3.Q &           + o   O - 7 y f g g d g g [  . .",
" . .1.3.3. . .-.S .           @ < 1 i g g g g g h 2 3 g g [  . .",
"1.1.;.;.;.1.X.,       O 4 q p 2 1 t g h g g g h h e s g g ( 1.1.",
"3.3.;. .*.) * $ 5 w s h g g g g g g g g g g g g g g g g g ( 3.3.",
"3.3.;. .H w s g g g g g g g g g g p : ; p g g g g g g M ! #.3.3.",
" . .1.3.n g g g g g g g p = p h a X   X 0 h g h g g z %.3.1. . .",
" . .1.3.E J g g g g g h y 7 g g u @ @ 1 s g p 4 9 h v :.3.<. . .",
"1.1.;.;.;.<.z g a 3 3 h g g g g g e r s g g $   = g g v m ( 1.1.",
"3.3.;. .*.{ g g 6 < 3 g g g g g g g g g g g q 7 s g g h N @.3.3.",
"3.3.;.o.L k g g a u d g g s g g g g g g g g g g N Y ] ..o.*.3.3.",
" . .1.3.b h h h h h h g : # h h g g g j B U [ ,.1. . .1.3.1. . .",
" . .1.3.b g g h h h h g i s g l V E +.<. . .1.3.1. . .1.3.1. . .",
"1.1.;.-.b g g g g g g b K R ` <.1.;.;.;.1.1.;.;.;.1.1.;.;.;.1.1.",
"3.3.;. .I g g n P ~ &.3.;. .*.3.3.*. .*.3.3.*. .*.3.3.*. .*.3.3.",
"3.3.;.*.*.%.>.;.*.*.3.3.;.*.*.3.3.;.*.*.3.3.;.*.*.3.3.*.*.*.3.3.",
" . .1.3.3. . .1.3.3. . .1.3.3. . .1.3.1. . .1.3.1. . .1.3.1. . .",
" . .1.3.3. . .1.3.3. . .1.3.3. . .1.3.1. . .1.3.1. . .1.3.1. . .",
"1.1.;.;.;.1.1.;.;.;.1.1.;.;.;.1.1.;.;.;.1.1.;.;.;.1.1.;.;.;.1.1.",
"3.3.;. .*.3.3.;. .*.3.3.;. .*.3.3.*. .*.3.3.*. .*.3.3.*. .*.3.3.",
"3.3.;.*.*.3.3.;.*.*.3.3.;.*.*.1.3.;.*.*.3.3.;.*.*.3.3.;.*.*.3.3.",
" . .1.3.3. . .1.3.3. . .1.3.3. . .1.3.1. . .1.3.1. . .1.3.1. . .",
" . .1.3.3. . .1.3.3. . .1.3.3. . .1.3.1. . .1.3.1. . .1.3.1. . ."
};
