/* XPM */
static char *_74c8935a629488aaa54a30d70a3e9fd[] = {
/* columns rows colors chars-per-pixel */
"32 32 57 1 ",
"  c None",
". c black",
"X c #857F12",
"o c #858012",
"O c #868012",
"+ c #868112",
"@ c #8A8413",
"# c #8C8614",
"$ c #B3AC1C",
"% c #B3AC1D",
"& c #B4AC1C",
"* c #DCD31C",
"= c #DED51F",
"- c #F2E717",
"; c #F1E71C",
": c #F4E91C",
"> c #F4EA1C",
", c #F5EB1E",
"< c #F6EB1E",
"1 c #C8C021",
"2 c #C9C121",
"3 c #DAD221",
"4 c #DED526",
"5 c #DFD626",
"6 c #E0D726",
"7 c #E8DE28",
"8 c #E8DF28",
"9 c #E5DD35",
"0 c #E7DF37",
"q c #E1D939",
"w c #E1DA39",
"e c #E2DA39",
"r c #E7DE38",
"t c #ECE22C",
"y c #F0E623",
"u c #F8EE23",
"i c #F4EA28",
"p c #F8EE2B",
"a c #F8EF2C",
"s c #FAF026",
"d c #FAF027",
"f c #FBF027",
"g c #FBF12B",
"h c #FCF128",
"j c #FCF228",
"k c #FDF229",
"l c #FDF32E",
"z c #FEF42C",
"x c #FFF52D",
"c c #FFF62D",
"v c #EAE136",
"b c #EAE236",
"n c #F0E734",
"m c #F5EB32",
"M c #F5EC32",
"N c #F8EE31",
"B c #F9EF31",
/* pixels */
"            ........            ",
"            O######O            ",
"        ...O15655651O...        ",
"        X@#&7xxxxxx7&#@X        ",
"      .O1557pxxxxxxp7551O.      ",
"      X$7xxlNMmMMmMNlxx7$X      ",
"    .X17axxNbqqqqqqbNxxa71X.    ",
"    O$7xxlNnrqqqqqqrnNlxx7$O    ",
"  .X17axxNb0nMMMMMMn0bNxxa71X.  ",
"  .@5xxlNnrbNxxxxxxNb0tigxx5@.  ",
"  .#5xxNbrnNlxxxxxxlNt3=ixx5#.  ",
"  O&7lNn0bNxxxxxxxxxxi=*ykx7$O  ",
".O17pNbrnNlxxxxxxxxxxgiy;<kp71O.",
".#5xxMqqMxxxxxxxxxxxxxxs--sxx5#.",
".#6xxmqqMxxxxxxxxxxxxxxs--sxx6#.",
".#5xxMqqMxxxxxxxxxxxxxxs--sxx5#.",
".#5xxMqqMxxxxxxxxxxxxxxs--sxx5#.",
".#6xxmqqMxxxxxxxxxxxxxxs--sxx6#.",
".#5xxMqqMxxxxxxxxxxxxxxs--sxx5#.",
".O17pNbrnNlxxxxxxxxxxxku<<kp71O.",
"  O&7lNn0bNxxxxxxxxxxk<<ukx7$O  ",
"  .#5xxNb0tigxxxxxxxku<<kxx5#.  ",
"  .@5xxlNt3=ixxxxxxk<<ukxxx5@.  ",
"  .X17axxi=*yssssssu<<kxxa71X.  ",
"    O$7xxgiy;------<ukxxx7$O    ",
"    .X17axxk<------<kxxa71X.    ",
"      X$7xxxksssssskxxx7$X      ",
"      .O1557pxxxxxxp7551O.      ",
"        X@#$7xxxxxx7$#@X        ",
"        ...O15655651O...        ",
"            O######O            ",
"            ........            "
};
