/* XPM */
static char *_1521a3b1fe249229232f54d1d60b497[] = {
/* columns rows colors chars-per-pixel */
"32 32 92 1 ",
"  c #613B5B",
". c #623D5C",
"X c #334366",
"o c #374366",
"O c #3A4466",
"+ c #504E67",
"@ c #52566C",
"# c #766269",
"$ c #787578",
"% c #A32531",
"& c #B62B37",
"* c #B62B38",
"= c #B62C38",
"- c #BF2B38",
"; c #BF2D3A",
": c #A63034",
"> c #AE3F36",
", c #C32F3B",
"< c #C3303B",
"1 c #CD323D",
"2 c #CD343E",
"3 c #C43F3F",
"4 c #D5323E",
"5 c #D5343F",
"6 c #BD472F",
"7 c #BD492F",
"8 c #B24638",
"9 c #BC563B",
"0 c #C2532F",
"q c #C25C3C",
"w c #CC6730",
"e c #CB683F",
"r c #D16F30",
"t c #8F2C43",
"y c #8F2E44",
"u c #903045",
"i c #D53640",
"p c #D93541",
"a c #D93841",
"s c #E43642",
"d c #E13A43",
"f c #E43843",
"g c #E43844",
"h c #8A4350",
"j c #8B4C57",
"k c #875F62",
"l c #856A6A",
"z c #8A7272",
"x c #A5786A",
"c c #C44040",
"v c #C54947",
"b c #C44A49",
"n c #DA5B4D",
"m c #E54743",
"M c #E64943",
"N c #CE6C40",
"B c #D57342",
"V c #D77643",
"C c #DE755B",
"Z c #DF765C",
"A c #EA6041",
"S c #EB6A40",
"D c #E56753",
"F c #DB6F61",
"G c #E77E6C",
"H c #DE8431",
"J c #E48C32",
"K c #F1803D",
"L c #F3893C",
"P c #EF9B33",
"I c #F89B39",
"U c #F4A233",
"Y c #FAA137",
"T c #FBAA34",
"R c #FDAA35",
"E c #FFAF34",
"W c #88817D",
"Q c #B6846A",
"! c #B2856D",
"~ c #D18A69",
"^ c #C9946F",
"/ c #E18360",
"( c #E49368",
") c #E1927B",
"_ c #E1937C",
"` c #A99486",
"' c #BAA68F",
"] c #B6A791",
"[ c #D6AF92",
"{ c #CEBC9C",
"} c #E4A588",
"| c #E8BB98",
/* pixels */
"VVVe8u.OOoOl^(DsfG|{WOoOO.u8eVVV",
"VBNq>u.oX+#x~/n45F}[`$@Xo.u>qNBV",
"VN9>:u.oO#!~Cnc&*bF)[]$Oo.u:>9NV",
"eq>%%y.+#x~/n2;==-2F}[`$@ t%%>qe",
"8>:%%y.#!~Zn3;1ii1-vF)[]$.y%%:>8",
"uuuyyhkx~/n2;<pggp<-2F}[`zjytuuu",
".....kQ~Zn3;1adggda1-vF_['z. ...",
"Ooo+#x~/n2;,pMASSAMp,-2F}[`$@ooO",
"OXO#!~Zn3;1pdALIILAdp1-vF_[]$OXO",
"o+#x~/n2;,pmAKYEEYKAmp,-2F}[`$@o",
"O#!~Zn3;1pdALYREERYLAdp1-vF)[]$O",
"lx~/n2;,pmAKYTUPPUTYKAmp,-2F}[`W",
"^~Cn3;1pdALYRUHrrHURYLAdp1-vF)[{",
"(/n2;<aMAKYTUJw77wJUTYKAMa<-2F}|",
"Dnc;1pdALYRUHw0660wHURYLAdp1-bFG",
"s4&=iggSIEEPr767767rPEEISggi=*5f",
"f5*=iggSIEEPr767767rPEEISggi=&4s",
"GFb-1pdALYRUHw0660wHURYLAdp1;cnD",
"|}F2-<aMAKYTUJw77wJUTYKAMa<;2n/(",
"{[)Fv-1pdALYRUHrrHURYLAdp1;3nC~^",
"W`[}F2-,pmAKYTUPPUTYKAmp,;2n/~xl",
"O$][)Fv-1pdALYREERYLAdp1;3nZ~!#O",
"o@$`[}F2-,pmAKYEEYKAmp,;2n/~x#+o",
"OXO$][_Fv-1pdALIILAdp1;3nZ~!#OXO",
"Ooo@$`[}F2-,pMASSAMp,;2n/~x#+ooO",
"... .z'[_Fv-1adggda1;3nZ~Qk.....",
"uuutyjz`[}F2-<pggp<;2n/~xkhyyuuu",
"8>:%%y.$][)Fv-1ii1;3nZ~!#.y%%:>8",
"eq>%%t @$`[}F2-==;2n/~x#+.y%%>qe",
"VN9>:u.oO$][)Fb*&cnC~!#Oo.u:>9NV",
"VBNq>u.oX@$`[}F54n/~x#+Xo.u>qNBV",
"VVVe8u.OOoOW{|GfsD(^lOoOO.u8eVVV"
};
