/* XPM */
static char *_0b96403ca79498d9520e07a19dcb871[] = {
/* columns rows colors chars-per-pixel */
"32 32 63 1 ",
"  c #262B44",
". c #262C48",
"X c #2A304E",
"o c #2C3353",
"O c #2E3450",
"+ c #2C3354",
"@ c #303756",
"# c #313857",
"$ c #323A5A",
"% c #343B5B",
"& c #373E5D",
"* c #383F5E",
"= c #3B425F",
"- c #3A4160",
"; c #414865",
": c #636C83",
"> c #666E85",
", c #677087",
"< c #697081",
"1 c #6B7284",
"2 c #6C7385",
"3 c #6F7586",
"4 c #6D758B",
"5 c #6F778C",
"6 c #70778A",
"7 c #71788B",
"8 c #70788E",
"9 c #747B8E",
"0 c #747C91",
"q c #7E8697",
"w c #7D8599",
"e c #7F889C",
"r c #828B9E",
"t c #8C96AB",
"y c #939FB4",
"u c #97A0B3",
"i c #97A3B7",
"p c #98A1B3",
"a c #9CA6B7",
"s c #98A3B8",
"d c #9AA5B9",
"f c #9FAABD",
"g c #A0A8B9",
"h c #A0AABE",
"j c #A3AEC1",
"k c #A5AFC0",
"l c #ABB4C5",
"z c #ACB5C6",
"x c #ABB7CC",
"c c #AFB8C8",
"v c #ACB8CD",
"b c #B1BCD0",
"n c #B4C0D3",
"m c #B5C1D4",
"M c #B8C3D6",
"N c #B9C4D7",
"B c #BDC7DA",
"V c #BEC9DB",
"C c #C0CADB",
"Z c #C1CBDC",
"A c #C3CDDD",
"S c #C4CEDF",
"D c #C6D0E0",
/* pixels */
"MBAc9%-8jBSc9%-8jBSc9%-8jBSc9*-;",
"nNCz6+$4hNZz6+$4hNZz6+$4hNZz6@$-",
"xbMk2X@>ibMk2X@>ibMk2X@>ibMk2O@*",
"ysfpq37wtshpq37wtshpq37wtshpq379",
":>4ralzgw>4ralzgw>4ralzgw>4ralzc",
"o+&5kVSz7+$5kVSz7+$5kVSz7+$5kVSD",
"..#>dmVl3.+>dmVl3.+>dmVl3.+>dnVA",
"<17wtdkaq16wtdkaq16wtdkaq16wtdkl",
"hkzgw>5rpkzgw>5rpkzgw>5rpkzgw,50",
"nNCz6+$4hNZz6+$4hNZz6+$4hNZz6@$-",
"vbNk1.+>sbNk1.+>sbNk1.+>sbNk1X+%",
"ysfuq16wtshuq16wtshuq16wtshuq269",
":>4eukzgw>4eukzgw>4eukzgw>4eukzc",
"o+&4hNZz6+$4hNZz6+$4hNZz6+$4hMZS",
"..#>sbNk1.+>sbNk1.+>sbNk1.+>sbNB",
"<17wtshuq16wtshuq16wtshuq16wtihj",
"hkzgw>4eukzgw>4eukzgw>4eukzgw>48",
"nNCz6+$4hNZz6+$4hNZz6+$4hNZz6@$-",
"vbNk1.+>sbNk1.+>sbNk1.+>sbNk1X+%",
"ysfpq37wtshpq37wtshpq37wtshpq379",
":>4ralzgw>4ralzgw>4ralzgw>4ralzc",
"o+&5kVSz7+$5kVSz7+$5kVSz7+$5kVSD",
"..#>dmVl3.+>dmVl3.+>dmVl3.+>dnVA",
"<17wtdkaq16wtdkaq16wtdkaq16wtdkl",
"hkzgw>5rpkzgw>5rpkzgw>5rpkzgw,50",
"nNCz6+$4hNZz6+$4hNZz6+$4hNZz6@$-",
"vbNk1.+>sbNk1.+>sbNk1.+>sbNk1X+%",
"ysfuq16wtshuq16wtshuq16wtshuq269",
":>4eukzgw>4eukzgw>4eukzgw>4eukzc",
"@#=4fNCz7#&4fNCz7#&4fNCz7#&4fMCA",
"..#>sbNk1.+>sbNk1.+>sbNk1.+>sbNB",
" .@:yvnh<.o:yvnh<.o:yvnh<.o:yxnM"
};
