/* XPM */
static char *_4474ee633374a7be4fa1cc8d88db076k4Xiwg5RF0cFQhk5[] = {
/* columns rows colors chars-per-pixel */
"32 32 207 2 ",
"   c #277FCD",
".  c #2A7DC9",
"X  c #A24EAE",
"o  c #AA56B7",
"O  c #B15CBF",
"+  c #B35EC1",
"@  c #BE67CD",
"#  c #C46DD4",
"$  c #C770D8",
"%  c #CB74DC",
"&  c #CF77E0",
"*  c #D47CE6",
"=  c #4F94B8",
"-  c #71ABA9",
";  c #7AB2A6",
":  c #6AA5B4",
">  c #76AAB3",
",  c #77CDAC",
"<  c #7AD0AF",
"1  c #61C6BE",
"2  c #6ACABA",
"3  c #6EDDBE",
"4  c #77D7B7",
"5  c #74DBBE",
"6  c #74E4BE",
"7  c #7CE5BE",
"8  c #7CEABF",
"9  c #2C80C4",
"0  c #2681CE",
"q  c #2A84CD",
"w  c #2C8BCE",
"e  c #3585CA",
"r  c #338DCB",
"t  c #3A8ACC",
"y  c #2F90CD",
"u  c #3493CD",
"i  c #3B94CB",
"p  c #369ACD",
"a  c #3D9CCB",
"s  c #2A85D0",
"d  c #2C8CD0",
"f  c #3D84D0",
"g  c #338ED0",
"h  c #2D93D1",
"j  c #2F9AD1",
"k  c #3195D0",
"l  c #329BD1",
"z  c #3CA1CF",
"x  c #34A4D2",
"c  c #35A9D3",
"v  c #408BC6",
"b  c #4C94C2",
"n  c #4294CC",
"m  c #429BCE",
"M  c #4C9CCC",
"N  c #5497CA",
"B  c #4585D2",
"V  c #598AD4",
"C  c #4790D0",
"Z  c #5795D3",
"A  c #5C94D1",
"S  c #7A84C4",
"D  c #6799CE",
"F  c #698CD5",
"G  c #689AD3",
"H  c #7699D7",
"J  c #46A9C7",
"K  c #4CACC6",
"L  c #43A4CA",
"P  c #4BA6CB",
"I  c #48ABCB",
"U  c #54ABC7",
"Y  c #5CADCC",
"T  c #4EB2C6",
"R  c #4EB2CA",
"E  c #55B4C7",
"W  c #5AB4C5",
"Q  c #55BBC5",
"!  c #5CBDC6",
"~  c #53B4C9",
"^  c #56BBC9",
"/  c #5BBBC9",
"(  c #61A0C9",
")  c #7CA5CE",
"_  c #62BEC8",
"`  c #76B1CE",
"'  c #6BA4D0",
"]  c #7AA6D3",
"[  c #7BAAD2",
"{  c #6FB1D2",
"}  c #7DB9D4",
"|  c #5DC4C4",
" . c #5EC6C6",
".. c #64C4C6",
"X. c #64CCC3",
"o. c #69C9C8",
"O. c #78CACA",
"+. c #66D1C2",
"@. c #69D3C1",
"#. c #6DDAC0",
"$. c #7AD6C7",
"%. c #72DEC1",
"&. c #75D8C6",
"*. c #7CDBC6",
"=. c #76E2C1",
"-. c #7BE4C1",
";. c #7DE9C0",
":. c #89BC97",
">. c #8EB8A8",
",. c #91C197",
"<. c #8ED49D",
"1. c #97DC9A",
"2. c #98DD9B",
"3. c #A3DD93",
"4. c #98E297",
"5. c #9CE29D",
"6. c #A5E292",
"7. c #8DD5A4",
"8. c #86D7AA",
"9. c #87DEB2",
"0. c #96E1A2",
"q. c #9AE2A0",
"w. c #8BE4B4",
"e. c #82E3BC",
"r. c #8996DF",
"t. c #879BDA",
"y. c #8E9DDF",
"u. c #9199DF",
"i. c #85A8CC",
"p. c #84B8CF",
"a. c #92B4CA",
"s. c #85ACD3",
"d. c #87A9D5",
"f. c #9AAADF",
"g. c #83B2D4",
"h. c #8AB4D4",
"j. c #8CBCD1",
"k. c #94B6D3",
"l. c #99BBD3",
"z. c #A1B9CB",
"x. c #AABAD7",
"c. c #9A94E2",
"v. c #AA99E7",
"b. c #B19BEA",
"n. c #BD9DED",
"m. c #A8A7E4",
"M. c #AAAFE1",
"N. c #B4ABE1",
"B. c #B5A2EB",
"V. c #BBA2EB",
"C. c #A3BEE0",
"Z. c #B5B8E6",
"A. c #C0ACDD",
"S. c #D883EB",
"D. c #DD86F0",
"F. c #C59EF0",
"G. c #DC9BF9",
"H. c #E386F6",
"J. c #E68AFA",
"K. c #EB8DFF",
"L. c #E695FD",
"P. c #EA92FF",
"I. c #E49BFC",
"U. c #E99CFF",
"Y. c #C5ACEB",
"T. c #D2A6ED",
"R. c #C5B6E9",
"E. c #C4B6ED",
"W. c #C6A0F0",
"Q. c #CFA4F3",
"!. c #CCABF2",
"~. c #D3A4F6",
"^. c #D4ACF4",
"/. c #DCA4F9",
"(. c #DDABFA",
"). c #D8ACF8",
"_. c #CAB0F2",
"`. c #D7B3F5",
"'. c #E4A4FD",
"]. c #E8A4FF",
"[. c #E5ABFE",
"{. c #E5B2FF",
"}. c #83CACD",
"|. c #85D8CA",
" X c #92D0CF",
".X c #8DC6D3",
"XX c #9CC6D6",
"oX c #97D2D2",
"OX c #B9CFCE",
"+X c #A5C3D4",
"@X c #A8C7D6",
"#X c #B1CDD3",
"$X c #B7D4D8",
"%X c #85E4C3",
"&X c #8DE5C4",
"*X c #84EAC1",
"=X c #8BEBC3",
"-X c #87E2C8",
";X c #91E7C6",
":X c #94EAC5",
">X c #9BEBC6",
",X c #94E8C8",
"<X c #9CEBC9",
"1X c #A4EEC9",
"2X c #A6EEC9",
"3X c #B8C4E4",
"4X c #CAD9D6",
/* pixels */
"1X1X1X1X1X>X:X=X=X=X=X=X*X*X8 ;.;.;.8 8 8 8 *X=X=X*X*X*X*X=X=X=X",
"1X1X1X>X>X:X;X&X*X*X*X;.7 7 7 7 6 6 6 6 6 7 *X%Xw.w.*X7 -.;.*X*X",
"<X<X>X,X;X&X&X%X-.-.-.=.=.6 6 6 6 6 6 6 6 7 e.7 5.5.7 =.=.=.-.-.",
"<X,X;X&X&X%X-X-.=.%.%.%.#.3 3 3 3 3 3 3 5 5.q.w.0.5.5 0.0.5 %.=.",
";X;X&X-X-X|.*.%.*.oX3X`.(.[.`.3X X$.#.#.5 5.9.0.2.6.2.8.4.4 3 #.",
"-X-XO.O.*.$.&.|.3X(.D.% % H.J.S.T.3X}.@.@.5 4 8.3.1.6.8.4 +.@.@.",
"*.*.o.....W .XE.U.J.% o O * H.% S.U.E.}.+.@.8.2.3.3.1.X.X.+.+.+.",
"&...o.K U }.E.L.K.J.* # & H.K.J.J.K.I.Z.o.< 7.2 < 7., 7. .X.X.X.",
"o.! ! P U M.I.P.K.K.K.K.H.* H.K.K.K.P.^.O.2 <.8.1 1 7.,  . . . .",
"o.....E ` !.].].K.K.K.K.D.@ * J.K.K.K./.+XQ Q Q Q Q ! .... .Q Q ",
"....! K g.[.[.{.P.K.K.K.J.D.H.K.K.K.K.I.C.~ ~ ~ ~ Q _ _ _ ! Q ~ ",
" .! ^ ~ h.'.[.{.P.K.K.K.K.K.K.K.K.K.P.'.E.} E E T E / / / / E T ",
"^ / ~ T d.'.[.{.P.J.H.J.K.K.K.K.K.P.U.].'.^.Y.Z.g.Y W W E E K K ",
"~ R K J s.'.].{.I.% + @ S.K.K.K.K.L.U.'.^./.I.U.~.f.Y U U K J J ",
"R I I L ' !.U.{.I.# X X $ J.K.K.K.P.'.(.^.`._./.L.Q.[ P L L L L ",
"I L L z M m.'.[.[.* + O * J.K.K.K.P.'.I.L.L./.(.U.I.f.M a a a a ",
"L L a a a G V.'.'.P.H.H.K.P.P.P.L.I.^.~.G.L.P.'.U.I.M.M a a a a ",
"L a a a i i G V.G.L.P.P.U.U.U.'.V.m.H N ] V.I.P.L.I.N.( j.i p p ",
"z p m M m r r Z y.B.~.'.].].].`.S r r r u G W.L.K.L.Y.l.g.r u u ",
"p p m m n r r r r C y.~.'.[.'.^.D r r r r A V.L.P.P.'.x.i.[ r r ",
"l p i M [ t w w w q t m.'.].U.!.' n w w w A V.L.'.I./.x.[ h.t w ",
"l k y @Xs.+Xq q N q w v.U.[.I./.d.n w q q A n.P./.v.M.s.q q q w ",
"l h h l.t k.q k.z.k.0 b.U././.U.F.v.c.c.u.t.n.L.G.F q e s 0 0 q ",
"l h h i g.l.z.) ) s.0 v.U.I.).I.L.I.I.G.G.F.B.~.V.V 0 0 0 0 0 . ",
"l p i d r #Xa.+Xs.0 0 r.G.P.I.I.P.L.'./.L.'.m.H F e 0 0 0 0 0 0 ",
"z $X@XXX#XOX+X+Xs.s.N B b.I.L.U.P.P.'.R.N.A.i.: : 0 0   0 0 0 0 ",
"P XXj a p.4Xa.4Xa.D +XD V c.v.v.n.G.L.Y.> >.:.- :   0   0 q q q ",
"x { .Xp.p #X#XN h.@X+X] 0 f B Z G r.B.t.- ,.:.9       0 0 q s d ",
"c x x l p XXXXy d r Z q q q 0 0 q 0 0 ; = = - > 0 w g q s q w w ",
"c x x x p $X$Xu h h d d d q q q q s 0 b b q b v s q g w d d h h ",
"c c x x x Y { j j h h h d d d d w d q s q q q w w w d d h h h l ",
"c c c c x x x x l j j h h h h d h d d d w w w w w h h h h h l l "
};
