/* XPM */
static char *krabbysea1706016247[] = {
/* columns rows colors chars-per-pixel */
"32 32 223 2 ",
"   c #340B0B",
".  c #37120E",
"X  c #391613",
"o  c #1D3A17",
"O  c #3B3313",
"+  c #471B15",
"@  c #511D16",
"#  c #781F18",
"$  c #49221B",
"%  c #5A2419",
"&  c #453218",
"*  c #662919",
"=  c #4B2824",
"-  c #562D26",
";  c #563728",
":  c #652C26",
">  c #693730",
",  c #1C4515",
"<  c #244D1C",
"1  c #314F1C",
"2  c #34511B",
"3  c #3D5828",
"4  c #2C6325",
"5  c #3B642A",
"6  c #3D772B",
"7  c #3E6E36",
"8  c #4B421C",
"9  c #515228",
"0  c #724727",
"q  c #46622E",
"w  c #4C6F33",
"e  c #52773C",
"r  c #7A6225",
"t  c #766C32",
"y  c #5E4746",
"u  c #597D47",
"i  c #75694D",
"p  c #727262",
"a  c #92211A",
"s  c #8A312D",
"d  c #8B4B28",
"f  c #A75928",
"g  c #B0562F",
"h  c #8C7131",
"j  c #AC652D",
"k  c #B86B2C",
"l  c #B46A35",
"z  c #AF7333",
"x  c #BA7832",
"c  c #C27832",
"v  c #8E4F4D",
"b  c #A45D56",
"n  c #866E54",
"m  c #986E55",
"M  c #B66941",
"N  c #A6764C",
"B  c #B47652",
"V  c #8E6C6A",
"C  c #90706F",
"Z  c #B67567",
"A  c #A47D7B",
"S  c #BA7878",
"D  c #538F3B",
"F  c #528845",
"G  c #638745",
"H  c #669841",
"J  c #739E6A",
"K  c #A4833C",
"L  c #B9803C",
"P  c #C1843C",
"I  c #C5883C",
"U  c #988241",
"Y  c #AB8C44",
"T  c #BB8F4C",
"R  c #A58156",
"E  c #998665",
"W  c #9C8675",
"Q  c #A48B64",
"!  c #B39076",
"~  c #C38344",
"^  c #C58C43",
"/  c #D58D4B",
"(  c #CC9547",
")  c #D49D4E",
"_  c #CA9B57",
"`  c #D89957",
"'  c #CAA15B",
"]  c #D4A354",
"[  c #D9AA57",
"{  c #DAB25C",
"}  c #E1B75E",
"|  c #C99268",
" . c #C59C79",
".. c #D59B7A",
"X. c #CBA66A",
"o. c #D4AD66",
"O. c #DDB463",
"+. c #D8B668",
"@. c #DCB569",
"#. c #D8B976",
"$. c #E4A264",
"%. c #E2BA64",
"&. c #E1BD69",
"*. c #DCC178",
"=. c #E2C167",
"-. c #E4C16A",
";. c #E4C473",
":. c #E6CA77",
">. c #E5CD7B",
",. c #E6D77D",
"<. c #55BCCB",
"1. c #5CBDD3",
"2. c #6ABAC9",
"3. c #64BCD4",
"4. c #6DBFD4",
"5. c #73BCD4",
"6. c #5AC5D8",
"7. c #5DCADD",
"8. c #66C1CF",
"9. c #77C4CE",
"0. c #63C3D5",
"q. c #6BC3D5",
"w. c #6AC9D7",
"e. c #63C5DB",
"r. c #6CC6DB",
"t. c #64CBDC",
"y. c #6ACADD",
"u. c #71C4D5",
"i. c #73C5DC",
"p. c #77C8D8",
"a. c #7DCBDB",
"s. c #6DD2DE",
"d. c #5FCCE3",
"f. c #5FCBE9",
"g. c #5FD2E5",
"h. c #64C6E4",
"j. c #6AC7E0",
"k. c #63CBE2",
"l. c #6BCBE2",
"z. c #62CAE9",
"x. c #75CAE1",
"c. c #6BD3E5",
"v. c #67D3E8",
"b. c #7AD7E7",
"n. c #7CD5E4",
"m. c #8E8786",
"M. c #B6928B",
"N. c #9CB399",
"B. c #B5A197",
"V. c #B3B0A7",
"C. c #C8988E",
"Z. c #D2AF83",
"A. c #CEAC95",
"S. c #D8B093",
"D. c #C5ACA3",
"F. c #C5B1AD",
"G. c #CEB9B3",
"H. c #D2BDB6",
"J. c #B9C7B7",
"K. c #E7CF82",
"L. c #E6D482",
"P. c #E8D887",
"I. c #DDCAAB",
"U. c #D8C8B9",
"Y. c #DFD1BA",
"T. c #E4D5B6",
"R. c #82BED6",
"E. c #81C3CF",
"W. c #8CC9D6",
"Q. c #83CCDC",
"!. c #8BCDDC",
"~. c #95CFD6",
"^. c #8DD2DD",
"/. c #85D8DA",
"(. c #83E0DE",
"). c #85CDE3",
"_. c #8BCDE2",
"`. c #93CDE6",
"'. c #8CD4E4",
"]. c #8CD6E9",
"[. c #88D8E8",
"{. c #92D4E4",
"}. c #99D9E5",
"|. c #92D6EB",
" X c #93DBEC",
".X c #9ADAEB",
"XX c #8CD9F1",
"oX c #93DCF2",
"OX c #96DCF1",
"+X c #A3D5EB",
"@X c #A3DAF4",
"#X c #89E1E8",
"$X c #9EE2EB",
"%X c #95E5F9",
"&X c #9BEDFD",
"*X c #9DF1FF",
"=X c #A3E2EB",
"-X c #A9E9F7",
";X c #A6EDFD",
":X c #B4E7FF",
">X c #A7F7FF",
",X c #ABF5FF",
"<X c #ABFAFF",
"1X c #B4FCFF",
"2X c #B9F8FF",
"3X c #CBC7C6",
"4X c #D8CAC5",
"5X c #C9D1C9",
"6X c #DDD1C9",
"7X c #DCD4D2",
"8X c #E4CBC2",
"9X c #E1D6C8",
"0X c #E5DBD7",
"qX c #E6E0DC",
"wX c #C4DBE2",
"eX c #D6E4E7",
"rX c #C0F3FF",
"tX c #C1FFFF",
"yX c #CBFFFF",
"uX c #D5FFFF",
"iX c #E7E8E6",
"pX c #F1ECEA",
"aX c #F5F5F4",
/* pixels */
"t.k.k.d.t.k.d.k.k.t.k.c.e.e.b.1XW.:XyX-X,X<X4.r.t.k.f.f.f.f.z.e.",
"t.k.t.k.d.d.k.z.k.e.j.t.y.x.%X).|.W.E.=X$X^.&Xr.j.z.f.f.f.f.h.x.",
"t.k.k.k.k.d.d.d.v.k.e.0.y.b.&X)._.}.~.W.W./.<Xr.k.z.f.f.f.k.j.3.",
"y.j.t.k.d.d.k.6.v.l.t.w.r.n.%XoXOX^.E.}.}./.<Xw.k.k.d.d.d.k.t.q.",
"y.k.k.k.k.d.d.k.k.l.y.y.q.n.%Xx.eXeXQ..X}.9.>Xw.t.k.d.d.7.t.w.n.",
"y.y.y.j.t.y.y.l.t.0.y.qXH.A.Z.#.#.o.K.I.Y.[.<Xr.t.k.7.d.k.t.w.b.",
"j.r.i.i.'.].XX4.4.w.F.| _ %.&.&.@.-.%.@.#.Z.qXy.j.k.f.f.z.z.k.r.",
"t.3.p.].1X2XyX1XQ.B.l _ @.&.&.;.>.>.=.O.{ [ | 0Xk.k.k.f.k.z.k.q.",
"6.b.p.;X_.OX_.Q.M.f ~ ] } } %.L.P.,.:.@.o.] I  .j.k.7.k.k.k.k.6.",
"t.w.%X].OX).|.4Xg j I ] [ } =.>.P.L.:.o.o.] L z G.t.t.g.k.t.j.c.",
"k.j.%XXXOX`.OX! j k ^ ( [ } -.>.,.L.:.O.[ ) P k B 7.7.t.t.r.y.l.",
"6.b.x.*X).XXwXj f k I ( } %.-.;.>.>.@.[ ` ( P z j 7Xt.7.t.t.k.3.",
"d.6.l.b.*X<X6Xl c c I I { } -.-.;.;.{ ) ) ^ x j j F.7.7.t.t.r.r.",
"d.6.0.0.r.5XB.k k c I I ) [ %.&.@.O.{ ] ( ~ x f f m V.5Xt.t.y.i.",
"7.g.7.s.J.6 6 w r h h h K K Y Y Y Y Y Y U U h t t D F N.k.z.j.3.",
"g.6.g.6.qXJ F 4 e w 4 w e D e 2 5 1 1 q w w q q 9 u N.iXh.z.l.h.",
"7.v.6.c.pXN.p ; q & & > 9 8 & @ O o 7 u 9 a s s a M.aXaXz.h.h.h.",
"v.7.c.<.aXqXV.A m b b Z S ! V v : $ 8 ; # s S S M.G.pXaXl.z.k.z.",
"7.c.<.l.aX7XV.D.D.U.4X4X4XV.W p G D D H H u M.4X4XH.6XaXl.j.k.d.",
"y.1.b.x.pXD.g 0 b ! ....$.` / h 2 , < 1 3 s g B C.S.S.pXr.e.y.d.",
"3.r.b.%X8XZ $ X + s P $.$./ k d & . .     . + : d Z ..0Xq.u.r.k.",
"r.i.[.[.'.3Xy > * $ * l M 0 : > - % : V C - > ; = = M.0X,X].5.x.",
"w.q.<X[..X!.m.; ; ; + . X + - $ + @ @ + = = ; ; ; p qXuXrX:X:X5.",
"3.%X X X!..XY.M B R Q R Q E E W W i n n m Q E N N ! ~.}.+X+X@X%X",
"w.&X[.'.|..X4X~ P ^ ' o.o.o.+.#.#.#.+.X.X.T ^ L l M./././.oXXX,X",
"y.&XXX).|.|._.6XA. .X.o.o.{ O.#.*.>.*.o.X.X.X.! M.7X(.(./.n.[.&X",
"0.&XXXXX).|.|.].[.'.qX9XY.Y.I.I.Y.T.Y.Y.9X0X0XeX/./.(.(.n.[.n.%X",
"r.[.&XXX)._.|.].[.'.[.[.[.'.].!.yX0.<.v.7.r.<X).'.(./.#X#X[.a.<X",
"p.4.<X X].`.{.'.'.'.'.^.'.'.{.;X>X8.6.k.h.3.,X]._.^.'.{.{.`.`.,X",
"u.p.&X,XQ.%X!.].{.{.{.{.{.{.'.yXu.8.b.6.c.3.XX2X.X!.{.}.W.+XrX%X",
"p.2.p.1X,X'.'.{.^.^.}.~.E.$XtX9.w.t.7.g.j.j.5.XXtXOX].{.@XuX@Xi.",
"a.a.2.9.<X1X X!.}.!.9.^.2XtX,Xp.r.s.7.7.k.h.x.5.p.*X>X<X;XR.5.4."
};
