/* XPM */
static char *krabby1706014523[] = {
/* columns rows colors chars-per-pixel */
"32 32 227 2 ",
"   c #16150E",
".  c #171411",
"X  c #300F0D",
"o  c #21110E",
"O  c #2D120E",
"+  c #34130F",
"@  c #3C120E",
"#  c #261211",
"$  c #3E1411",
"%  c #341815",
"&  c #19351A",
"*  c #2E2C13",
"=  c #2C3D14",
"-  c #3A2C2C",
";  c #45160E",
":  c #54100E",
">  c #441612",
",  c #491A16",
"<  c #4D1C16",
"1  c #531A13",
"2  c #6B1912",
"3  c #781912",
"4  c #4A221C",
"5  c #512C15",
"6  c #5B2B13",
"7  c #55231B",
"8  c #5B241B",
"9  c #543519",
"0  c #642C17",
"q  c #683116",
"w  c #5A2B24",
"e  c #52312B",
"r  c #5B3529",
"t  c #653126",
"y  c #72312E",
"u  c #783828",
"i  c #6E3B31",
"p  c #15410D",
"a  c #164415",
"s  c #1C5C1A",
"d  c #2C4A1B",
"f  c #25561A",
"g  c #33551C",
"h  c #2A5C25",
"j  c #3A5725",
"k  c #2B6725",
"l  c #346C2C",
"z  c #3A6833",
"x  c #424517",
"c  c #5A571B",
"v  c #714D1D",
"b  c #4A4A24",
"n  c #475A25",
"m  c #575E23",
"M  c #4A5D31",
"N  c #70413C",
"B  c #4F632F",
"V  c #576527",
"C  c #496D3A",
"Z  c #556936",
"A  c #47773A",
"S  c #6C6D30",
"D  c #5F4241",
"F  c #735B4F",
"G  c #4A7843",
"H  c #5E7448",
"J  c #786855",
"K  c #736464",
"L  c #811C14",
"P  c #931F18",
"I  c #932F11",
"U  c #983B1D",
"Y  c #992522",
"T  c #A32627",
"R  c #AE2C35",
"E  c #864D1B",
"W  c #A64E1F",
"Q  c #8F4D2C",
"!  c #A45624",
"~  c #AA5422",
"^  c #AB5B25",
"/  c #AD532B",
"(  c #B55B28",
")  c #9B6022",
"_  c #AB6229",
"`  c #AA6429",
"'  c #B2642D",
"]  c #B76829",
"[  c #AF702C",
"{  c #BC712F",
"}  c #A96735",
"|  c #B26838",
" . c #AD7438",
".. c #B47936",
"X. c #BD7C35",
"o. c #C2532E",
"O. c #C86F35",
"+. c #C47B38",
"@. c #875350",
"#. c #996747",
"$. c #89675B",
"%. c #92745C",
"&. c #AA724F",
"*. c #AA7863",
"=. c #B47670",
"-. c #CA7242",
";. c #C85967",
":. c #4A8538",
">. c #578E3D",
",. c #5BA03E",
"<. c #548A46",
"1. c #588C4E",
"2. c #619148",
"3. c #659759",
"4. c #5CA343",
"5. c #6BA951",
"6. c #6C9667",
"7. c #779B74",
"8. c #BE833D",
"9. c #C38136",
"0. c #C2843C",
"q. c #C4893E",
"w. c #CA8C3D",
"e. c #BA8643",
"r. c #BD8D4A",
"t. c #BF9659",
"y. c #AB8F6A",
"u. c #B9867C",
"i. c #B59772",
"p. c #C88743",
"a. c #C48D43",
"s. c #DD8D48",
"d. c #C89347",
"f. c #CC954A",
"g. c #CE9B4B",
"h. c #D19748",
"j. c #D49D4C",
"k. c #C59A53",
"l. c #CC9D54",
"z. c #CA9B5C",
"x. c #D59953",
"c. c #E79C4A",
"v. c #E39A54",
"b. c #D7A54F",
"n. c #CBA456",
"m. c #D5A254",
"M. c #D9A654",
"N. c #D3AC5A",
"B. c #D8A858",
"V. c #DBAC5B",
"C. c #D7B159",
"Z. c #DDB35D",
"A. c #E0B25C",
"S. c #CE896A",
"D. c #D89768",
"F. c #D39578",
"G. c #C7A563",
"H. c #D6AC63",
"J. c #CEB16D",
"K. c #DBB463",
"L. c #D8B666",
"P. c #DDB66A",
"I. c #DDBA6A",
"U. c #C7A679",
"Y. c #D9B376",
"T. c #DCBD73",
"R. c #DBBC79",
"E. c #E2BC64",
"W. c #E1BC6B",
"Q. c #E5B071",
"!. c #DBC079",
"~. c #E5C46B",
"^. c #E4C26C",
"/. c #E3C473",
"(. c #E6C975",
"). c #E3CA7C",
"_. c #E5D37C",
"`. c #E8DA7F",
"'. c #9B9B9B",
"]. c #A68983",
"[. c #B2918E",
"{. c #B7948C",
"}. c #BA9C95",
"|. c #90A98D",
" X c #A9AEA7",
".X c #BCA9A5",
"XX c #CE978B",
"oX c #C99B89",
"OX c #C7AE84",
"+X c #D5B68A",
"@X c #D3BC8C",
"#X c #C9AA92",
"$X c #D6AB97",
"%X c #E8B787",
"&X c #C6AAA6",
"*X c #C9B6A9",
"=X c #D9BBAD",
"-X c #CBB2B4",
";X c #CBB9B6",
":X c #E9CD81",
">X c #E6D382",
",X c #E8D081",
"<X c #E8D688",
"1X c #D4C5A5",
"2X c #C0CCBE",
"3X c #D3C3BD",
"4X c #D9C9BE",
"5X c #E2C7B9",
"6X c #CBCDC9",
"7X c #D5CAC4",
"8X c #D7CAC4",
"9X c #DCD2CD",
"0X c #D0DBCF",
"qX c #DCD5D3",
"wX c #D6D9D3",
"eX c #E9D1C8",
"rX c #E2DBD7",
"tX c #E5DDDB",
"yX c #EDDDDC",
"uX c #E5E2E0",
"iX c #EAE6E3",
"pX c #ECE8E4",
"aX c #EBEAE9",
"sX c #F1E9E6",
"dX c #F1F0EE",
"fX c #F5F5F5",
"gX c #F9F9F9",
/* pixels */
"fXfXfXfXfXfXfXgXfXfXfXfXfXfXfXfXfXdXfXfXfXfXfXfXfXfXgXfXfXfXfXfX",
"gXfXfXfXfXfXfXfXgXfXfXaX7X*X#X+XU.U.OX=XrXaXgXfXfXgXdXgXfXfXfXfX",
"fXgXfXfXgXfXfXgXfXiX}.| z.A.W.W./.Z.E.W.P.z.#XpXfXfXgXfXfXgXfXfX",
"fXfXfXfXfXfXgXaX.X' p.B.W.T.W.E.~.^.^.E.E.R.L.z.9XgXfXfXfXfXfXfX",
"gXfXfXfXfXfXaX{.^ 0.H.P.^.I.W.(.(._.(.E.Z.Z.K.m.e.4XfXfXfXfXfXfX",
"fXgXfXfXgXaX*.! p.f.N.P.K.E./.:X<X>X_./.~.Z.N.m.d.X.rXfXfXgXfXfX",
"fXfXfXfXfX[.W ' 8.g.C.K.C.Z.(.:X<X`.`.^.L.H.K.x.d.8.*.dXfXfXfXfX",
"fXfXgXfX7X! ! ] 0.g.Z.C.Z.E.(.:X<X>X_.).L.Y.H.k.q...[ ;XfXfXfXfX",
"fXgXfXfXoX| ! { 0.d.b.b.A.~.~.(.>X<X_./.W.V.x.g.q...` *.fXgXfXfX",
"gXdXfXdX_ ~ ^ { q.w.j.C.E.~.~.(.(.,X_.W.H.m.m.f.0.X.' ! rXfXgXfX",
"fXgXfXwX( ( ] { X.w.b.C.E.W.~.^.(.,X/.Z.b.x.j.a.8.{ ` ^ *XfXfXfX",
"fXgXfX7X] ] ] +.9.w.h.b.A.E.W.W././.W.V.b.x.g.q.X.[ ` ! u.gXfXfX",
"gXaXwX}._ ] O.9.w.w.h.b.M.A.^.W.W.W.H.H.m.l.q.0.+.` ! ^ }  XwXwX",
"0X6.k f v ) [ ..+.q.w.b.b.B.V.B.B.B.b.M.B.j.h.q.[ ! Q E c k <.6.",
"2XA :.<.l s l A g g n V c S V V V m S S S b C G k >.A A 3.6.4.0X",
"fX|.5.<.s <.1.l s A <.A :.H A h z f p a k :.A C n C b b B 6.0XfX",
"fX|.7.z * G d = d 9 M j j b x 1 * & & A 1.<.6 2 3 3 3 P =.fXfXfX",
"fXfXaX].L 0 9 3 L Y R P y : 3 3 2 = = M M 6 L T ;.;.T T =.fXfXfX",
"fXqX;X;X&X{.=.u.u.XX&X&X&X&X].@.i r 9 5 q q v N =.[.&X-X;XrXdXfX",
"fXfX-X}.&X*X*X7X9XqXqX7X&X].$.J 2.4.,.4.4.5.2.H [.6X9XqX9X;XyXfX",
"fXqXS./ U F =.F.F.XXF.D.x.v.p.Z g f & f p C x U o.-.=.$X$XD.5XgX",
"tX-.I X # + 0 ( s.v.c.V.v.s.O.| 9           # + ; u W &.XX=X%XsX",
"eX=X$., 1 w 7 ; U D.Q.D.p.~ q + O > > 1 < < > > > 8 4 X 0 / XXyX",
"fXfX'., i 7 i 4 + Y o.| 8 7 5 N r w t t $.-XD w i D r 4 o K =XyX",
"gXfXuX- $ X > 1 > + ; % , e < 6 < 7 7 1 > 4 : ; , > + # % 6XfXfX",
"fXgXgX;X#.#.%.F b $ % 4 X $ @ + O @ O X # . 4 F J $.%.%.#.pXfXfX",
"gXfXfX&X+.8.p.z.Y.@X@X@X@X}.@X1X1Xy.y.i.i.U.U.J.z. . .} _ tXfXfX",
"fXfXfX3X+.+.0.e.k.n.C.N.m.K.Z.!.R./.T.L.H.z.k.r.r.e.e. .} fXfXfX",
"fXfXfXfX8XOX&.d.n.N.C.C.K.N.I.!.!.)._.T.J.H.Y.n.t.e. .&.3XfXfXfX",
"gXfXfXfXfXfXfXrX4X*XU.n.k.N.J.L.T.).).J.G.G.OX*X1X7XwXfXfXfXfXfX",
"fXfXfXfXfXfXfXfXfXfXfXfXdXpXuXuXuXiXiXpXfXfXfXfXfXfXfXfXfXfXfXfX",
"fXgXfXfXfXfXfXgXfXfXfXfXfXfXfXfXfXfXfXfXfXfXfXfXfXfXgXfXfXgXfXfX"
};
