/* XPM */
static char *krabbyfundo1706017976[] = {
/* columns rows colors chars-per-pixel */
"32 32 217 2 ",
"   c #36100F",
".  c #37120E",
"X  c #1D3A17",
"o  c #3B3313",
"O  c #471B15",
"+  c #511D16",
"@  c #781F18",
"#  c #49221B",
"$  c #5A2419",
"%  c #453218",
"&  c #662919",
"*  c #4B2824",
"=  c #562D26",
"-  c #563728",
";  c #652C26",
":  c #693730",
">  c #1C4515",
",  c #244D1C",
"<  c #34511B",
"1  c #3D5828",
"2  c #2C6325",
"3  c #3B642A",
"4  c #3D7231",
"5  c #4B421C",
"6  c #515228",
"7  c #724727",
"8  c #4C6E34",
"9  c #7A6225",
"0  c #766C32",
"q  c #5E4746",
"w  c #597D47",
"e  c #75694D",
"r  c #727262",
"t  c #92211A",
"y  c #8A312D",
"u  c #87401B",
"i  c #8B4B28",
"p  c #A75928",
"a  c #B0562F",
"s  c #8C7131",
"d  c #AC652D",
"f  c #B86B2C",
"g  c #B46A35",
"h  c #B57533",
"j  c #C27832",
"k  c #8E4F4D",
"l  c #A45D56",
"z  c #916E54",
"x  c #A6764C",
"c  c #B5714B",
"v  c #8F6E6C",
"b  c #AF786F",
"n  c #BA7878",
"m  c #C77941",
"M  c #538F3B",
"N  c #528845",
"B  c #659242",
"V  c #739E6A",
"C  c #A4833C",
"Z  c #B9803C",
"A  c #C1843C",
"S  c #C5883C",
"D  c #988241",
"F  c #AB8C44",
"G  c #AC8653",
"H  c #998665",
"J  c #9C8675",
"K  c #A48B64",
"L  c #B39076",
"P  c #C48943",
"I  c #CC9547",
"U  c #D49D4E",
"Y  c #CA9B57",
"T  c #D69351",
"R  c #CAA15B",
"E  c #D4A354",
"W  c #D9AA57",
"Q  c #DAB25C",
"!  c #E1B75E",
"~  c #C8956D",
"^  c #D59B7A",
"/  c #CBA66A",
"(  c #D4AD66",
")  c #DDB463",
"_  c #D8B668",
"`  c #DCB569",
"'  c #D8B976",
"]  c #E4A264",
"[  c #E2BA64",
"{  c #E1BD69",
"}  c #DCC178",
"|  c #E2C167",
" . c #E4C16A",
".. c #E4C473",
"X. c #E6CA77",
"o. c #E5CD7B",
"O. c #E6D77D",
"+. c #277FCC",
"@. c #4890B9",
"#. c #6EA9AC",
"$. c #77CDAC",
"%. c #61C6BE",
"&. c #6BD7BF",
"*. c #6EDDBE",
"=. c #76D8BA",
"-. c #74E4BE",
";. c #7CE5BE",
":. c #7CEABF",
">. c #2C80C4",
",. c #2681CE",
"<. c #2A84CD",
"1. c #2C8BCF",
"2. c #3888C7",
"3. c #338CCC",
"4. c #2F90CD",
"5. c #3594CD",
"6. c #3B94CB",
"7. c #3599CD",
"8. c #3D9CCB",
"9. c #2A85D1",
"0. c #2C8CD0",
"q. c #368DD0",
"w. c #2D93D1",
"e. c #2F9AD1",
"r. c #3195D0",
"t. c #329BD1",
"y. c #3CA1CF",
"u. c #34A4D2",
"i. c #3DA1D2",
"p. c #35A9D3",
"a. c #408BC6",
"s. c #4698CB",
"d. c #559AC9",
"f. c #6899CE",
"g. c #4CACC6",
"h. c #43A4CA",
"j. c #48A8C9",
"k. c #54ACCA",
"l. c #4EB2C7",
"z. c #55B2C6",
"x. c #5AB5C5",
"c. c #55BBC5",
"v. c #5DBCC6",
"b. c #55B7C9",
"n. c #5BBBC9",
"m. c #64BBC9",
"M. c #71AFD1",
"N. c #78A9D1",
"B. c #5DC4C4",
"V. c #63C4C6",
"C. c #63CDC3",
"Z. c #69C9C8",
"A. c #76CCC8",
"S. c #66D1C2",
"D. c #6AD5C2",
"F. c #6DD9C0",
"G. c #72DEC1",
"H. c #7ADBC7",
"J. c #76E2C1",
"K. c #7BE4C1",
"L. c #7DE9C0",
"P. c #8E8786",
"I. c #B6928B",
"U. c #86BA98",
"Y. c #9CB399",
"T. c #B5A197",
"R. c #B3B0A7",
"E. c #C8988E",
"W. c #D2AF83",
"Q. c #CEAC95",
"!. c #D8B093",
"~. c #C5ACA3",
"^. c #CEB9B3",
"/. c #D2BDB6",
"(. c #91C197",
"). c #98DC9B",
"_. c #A3DD93",
"`. c #98E297",
"'. c #9CE29D",
"]. c #A5E292",
"[. c #89D7A7",
"{. c #87DEB2",
"}. c #97E1A1",
"|. c #89E4B6",
" X c #E7CF82",
".X c #E6D482",
"XX c #E8D887",
"oX c #DDC9A8",
"OX c #D2C2BE",
"+X c #83B0CE",
"@X c #93B7CB",
"#X c #87B6D2",
"$X c #96BAD4",
"%X c #A1B9CB",
"&X c #9CC6D6",
"*X c #B9CFCE",
"=X c #A7C6D5",
"-X c #B1CDD3",
";X c #B7D4D8",
":X c #85E4C3",
">X c #8DE5C4",
",X c #84EAC1",
"<X c #8BEBC3",
"1X c #87E2C8",
"2X c #97EAC7",
"3X c #A4EEC9",
"4X c #A6EEC9",
"5X c #D8CAC5",
"6X c #C9D2CE",
"7X c #DDD1C9",
"8X c #DCD4D2",
"9X c #E4CBC2",
"0X c #E6D9D5",
"qX c #E6E1DD",
"wX c #C4DBE2",
"eX c #D5FFFF",
"rX c #E4E3E2",
/* pixels */
"3X3X4X4X4X2X2X2X<X<X<X,X,X,X:.L.:.:.:.:.:.:.|.<X<X,X,X,X,X,X,X<X",
"2X3X3X2X2X2X2X<X,X,XL.L.:.:.-.:.:.-.-.-.;.;.,X:X|.|.:XL.L.L.,X,X",
"3X2X2X2X2X>X<X:XK.J.J.J.-.-.J.-.-.-.-.-.-.;.|.=.}.'.|.K.J.J.J.L.",
"2X2X2X2X>X1X:XK.J.G.J.J.F.*.*.*.*.*.*.*.G.'.}.|.}.'.J.}.}.G.J.J.",
">X>X>X:X:X:XH.G.F.F.F.F.F.F.F.F.&.F.S.D.*.'.{.).).].).[.`.=.&.*.",
"1X1XA.A.H.A.D.D.D.D.D.rX/.Q.W.' ' (  XoX5X&.=.{.].).].[.=.&.S.&.",
"1XH.Z.Z.V.x.S.C.S.S.~.~ Y [  .` | | _ ` ` W.qX)._.).).&.C.C.C.C.",
"H.V.V.g.k.B.C.C.B.E.g Y ` { { ..o.o.| ) ) E ~ 0X$.[.$.[.B.C.C.C.",
"Z.m.B.k.h.g.z.%.E.p P E Q Q  . XXXO...` Q E I L %.%.[.$.V.B.B.B.",
"Z.V.B.k.z.b.x.OXp d S E W Q  .O.XX.XX.` ( R S h ^.B.v.V.V.v.B.c.",
"Z.B.n.z.g.v.m.L d f P I W !  .o. X.X..` E U A f c b.v.m.v.v.c.c.",
"B.n.b.b.b.b.wXd p f S I ! [  ...o.o.{ E E I Z f d 8Xn.x.x.x.c.g.",
"b.n.l.l.j.l.7Xf j j S I U Q  . .....Q U Y S h f d ~.z.l.x.z.g.g.",
"b.l.l.l.h.6XT.f f j S S U W [ [ ` ) ] E I P h d p z R.OXk.g.j.j.",
"l.j.j.h.h.4 4 8 9 s s s C F F F F F F F D D s 0 0 M M Y.h.j.h.h.",
"j.h.h.i.y.V N 2 8 8 2 M 8 8 8 8 3 < < 3 4 8 6 8 6 w Y.8.8.y.8.y.",
"h.h.i.i.e.R.r % 8 % 5 7 6 6 - & o X 3 w 6 @ y y t I.M.8.8.6.8.7.",
"h.8.8.s.7.7.R.n z k l n n J v q ; % 5 - & y n ~ n ^.N.d.@X6.6.6.",
"i.t.s.s.s.8XR.~.~.^.OX5XOXQ.b r B N B B B e T.5X5X5X8X@XN.3.4.5.",
"i.7.t.s.s.Q.a : k ~ ^ ^ ^ T T s < > , , 1 y a c E.!.!.$X+XN.3.1.",
"t.7.6.d.9Xb $ O $ u j ] ] T f i %           O ; i L ^ 0XN.#X6.3.",
"t.5.w.=X+X6Xq ; ; # & c c 7 & ; = $ = v v $ : - # * I.0X3.>.s.<.",
"t.w.0.$X2.$XP.- - - O O   # # # O $ O   * = - - - r rXeXf.<.<.k.",
"t.w.w.s.#X$X%Xc x x G H K K H J J e z z z K H x x b ,.9.<.+.+.,.",
"e.t.8.w.q.-X@Xm Z P R ( ( ( _ ' ' ' ( / Y Y F Z x L ,.,.,.+.,.,.",
"h.;X=X&X;X*X=X7XQ.^ / ( Q ( ` ' } o.} / ( / / L I.0X+.+.,.,.,.,.",
"j.&Xe.8.+XwX#X6X$Xf.$Xf.,.,.,.,.,.,.2.#.#.U.(.#.#.+.+.+.,.<.9.,.",
"p.M.&XM.7.-X-Xd.#X-X%XN.,.,.,.q.6.,.3.<.#.(.U.>.+.+.+.+.,.<.9.9.",
"u.u.u.t.7.&X&X4.0.1.d.9.9.,.<.<.9.+.,.#.@.@.#.#.,.<.q.<.<.1.1.3.",
"p.p.u.u.j.;X;X5.w.w.0.0.0.9.9.<.9.9.<.d.d.,.@.2.9.1.q.1.0.0.0.w.",
"p.p.u.u.u.k.M.e.e.e.w.0.0.0.9.0.1.1.<.<.1.1.<.0.1.1.0.0.w.w.w.t.",
"p.p.p.p.u.u.u.e.e.e.e.e.w.w.w.0.5.r.0.0.0.1.0.1.1.w.w.w.w.w.t.i."
};
