/* XPM */
static char *mar21706013744[] = {
/* columns rows colors chars-per-pixel */
"32 32 159 2 ",
"   c #59AFC6",
".  c #5AB6CB",
"X  c #5ABBCC",
"o  c #5DBDD4",
"O  c #63B3C2",
"+  c #61B8C2",
"@  c #6BB9C6",
"#  c #64BBCC",
"$  c #6CBFCF",
"%  c #79BBC7",
"&  c #64BCD4",
"*  c #6BBED5",
"=  c #6CBFDD",
"-  c #72BDD4",
";  c #78BAD2",
":  c #55C3D5",
">  c #5CC2D5",
",  c #56C3DA",
"<  c #5CC5DD",
"1  c #57CADD",
"2  c #5EC9DD",
"3  c #64C0CE",
"4  c #68C1CF",
"5  c #75C3CF",
"6  c #78C5CD",
"7  c #64C3D4",
"8  c #6BC2D5",
"9  c #63C8D7",
"0  c #6AC9D6",
"q  c #63C5DA",
"w  c #6CC5DB",
"e  c #64CBDC",
"r  c #6AC9DC",
"t  c #71C4D5",
"y  c #79C7D6",
"u  c #76C9D7",
"i  c #7BC9D6",
"p  c #73C5DC",
"a  c #79C5DD",
"s  c #72CBDC",
"d  c #7CCBDC",
"f  c #6DD2DE",
"g  c #74D0DF",
"h  c #7DD0DE",
"j  c #5FC5E2",
"k  c #5FCCE3",
"l  c #5FCBE9",
"z  c #5FD2E5",
"x  c #64C6E4",
"c  c #6AC7E0",
"v  c #63CBE2",
"b  c #6BCBE2",
"n  c #64CDEA",
"m  c #6FCFE8",
"M  c #75C7E2",
"N  c #7CCFE1",
"B  c #71CFE8",
"V  c #64D2E6",
"C  c #6CD2E5",
"Z  c #67D6E9",
"A  c #6AD3EA",
"S  c #73D3E3",
"D  c #7CD4E4",
"F  c #7EDBE2",
"G  c #73D6EC",
"H  c #7DD6EA",
"J  c #74DEEE",
"K  c #7ED9ED",
"L  c #79D7F1",
"P  c #70DAF4",
"I  c #7DDAF2",
"U  c #82BED6",
"Y  c #81C3CF",
"T  c #8EC0CB",
"R  c #8BC7D2",
"E  c #8CCBD6",
"W  c #8CC7DA",
"Q  c #82CCDC",
"!  c #8BCDDC",
"~  c #95C9D2",
"^  c #92CDDA",
"/  c #9DCFDB",
"(  c #85D2D3",
")  c #87D7DE",
"_  c #8CD3DD",
"`  c #84DCDD",
"'  c #88DDDA",
"]  c #99D0D3",
"[  c #90D8D7",
"{  c #95D4DE",
"}  c #98D0DF",
"|  c #A2CEDB",
" . c #88E1DD",
".. c #85CDE2",
"X. c #8BCDE2",
"o. c #93CDE6",
"O. c #85D3E3",
"+. c #8CD4E4",
"@. c #86D8E5",
"#. c #8BDBE4",
"$. c #84D5EA",
"%. c #8BD6E9",
"&. c #85DAE9",
"*. c #8CDBEC",
"=. c #92D4E4",
"-. c #9CD7E4",
";. c #95DBE5",
":. c #99DBE3",
">. c #92D6EA",
",. c #9CD7EB",
"<. c #93DBEC",
"1. c #9ADBEA",
"2. c #8BD5F0",
"3. c #86DAF2",
"4. c #8BDBF1",
"5. c #93DCF2",
"6. c #9CDFF1",
"7. c #A5D5E1",
"8. c #AFD7E3",
"9. c #A3D9E5",
"0. c #A3DBE8",
"q. c #AEDFED",
"w. c #B0D8E4",
"e. c #A4D6F1",
"r. c #A1DAF3",
"t. c #A6DCF8",
"y. c #87E0E4",
"u. c #8BE2EB",
"i. c #9EE2EB",
"p. c #8DE6F8",
"a. c #93E2F4",
"s. c #9AE3F3",
"d. c #92E9F3",
"f. c #9AE8F5",
"g. c #94E4FA",
"h. c #9BE1FB",
"j. c #94EAFC",
"k. c #9BECFD",
"l. c #9CF1FF",
"z. c #A4E1EB",
"x. c #A4E6F4",
"c. c #A7EDF7",
"v. c #ACE8F3",
"b. c #A4EDFC",
"n. c #ADEBFA",
"m. c #B3E2FE",
"M. c #B3EDFF",
"N. c #A5F3FF",
"B. c #ACF4FF",
"V. c #A5FAFF",
"C. c #ACFBFF",
"Z. c #B3F4FF",
"A. c #BDF6FF",
"S. c #B3FDFF",
"D. c #BBFDFF",
"F. c #C2FFFF",
"G. c #CBFFFF",
"H. c #D3FFFF",
"J. c #D9FFFF",
/* pixels */
"e v j v k j v V j e v m q q H S.W n.G.v.B.C.$ w c k l l l l v q ",
"e v e v e k k V v e v e q S j.X.=.W R z.i._ k.w c n l l l l x b ",
"e v v v v k k j v b q 7 r H k...X.-.E E _ _ C.w x x l l l v v * ",
"r c e v k k k < V C r 9 0 D g.5.5.X.Y :.:.( C.w v k l k j v e 8 ",
"c c v v v k j v e C r r 7 d j.M %.5.! i.:.6 V.0 e e k k e e 9 D ",
"e r r r e r e C e 9 r r 7 D N.4.a >.+.! :.#.V.r v v k j v e e y.",
"v w w a O.%.*.* 3 0 9 9 r r p.<.s.,.W ! s.k.5.p e v j l k n v w ",
"e # d >.Z.F.G.S.h 3 g 9 2 r X S.x.=.>.Z.S.6.* c b x k l n n x 8 ",
"> H s b.o.,.W Q C.g X 9 G e b # O.N.B.h.a p M e v v z 2 z v v > ",
"e r g.%.5.X.>.*.l.& C q v v q 7 # & 8 M w 8 & r e e e z e e v S ",
"v r j.2.5.X.<.a.k.7 G q < j v b C B c * w b m r e e e 9 9 r e m ",
"> G M N.$.5.d N V.w o q v < P v m b b c b r 9 e 2 e e 2 e q r o ",
"k > b H l.C.S.V.w . C v v n , 2 o o q q w q r e 2 e e e e e r w ",
"2 2 9 9 w w u 8 w s q v Z l V v e I V.D.l.H q e e 2 z 2 e e c p ",
"z k 2 e 9 7 7 4 0 r r e v z v r h j.$.a.4.C.r e e e k V v c x = ",
"z : e 2 S 0 0 0 8 N r 7 e , e s d.O.$.Q D a.l.r v 2 j j j n x c ",
"1 Z : f 9 0 # d 5 a 8 0 S 9 0 + f.i.a.Q 5.%.3.q w b m n n x j j ",
"Z 1 f : f 0 i ) s.x.s.d # 4 s u t B.- s...C.q c c x < j x x n z ",
"9 C : 0 0 d.d.F.G.F.H.F.f.#.. t 0 3.S.k.N.&.* c v b v e b b x 1 ",
"b X S g l.u.;.v.J.J.J.F.{ c.b.r & &   p * & M q q q r r q w q V ",
"& r D j.*._ R ~ | w.8.7.7.0.N.&.G G & b B = r r r q w 0 0 p w c ",
"w p &.&.@.+.z.9.T 7./ q.A.{ +.S.q b b G q c M * O.V.F.F.B.+.- M ",
"0 t C.+.1.W ;.{ { +._ =.+.o.=.;.C.O r A m = - M.-.0.G.H.A.m.M.* ",
"# a.<.5.! ,._ +.@.@.@.%.%.%.=.^ D.t 7 n x & 6.e.} ~ ] -.0.e.r.6.",
"r k.%.X.>.,.X.+.@.@.$.&.%.%.=.^ D.i e 2 v q N.+.{ [ ( ( #.u.*.C.",
"r l.4.Q >.>.+.%.@.&.%.%.%.%.=.o.Z.i m : v K g.O.[  . .F h F $.k.",
"q j.4.4...>.>.%.%.%.%.@.%.%.=.^ G.t r < j L j.$.) ` ` y.F F D f.",
"w $.l.5...X.>.%.+.+.@.@.%.%.o.! G.8 o V < b C.O.#.' ` y.u.%.d C.",
"s * C.5.%.%.=.%.+.+.+.+.+.=.+.c.N.3 > v x & B.>.X._ =.=.=.o.o.B.",
"t u b.N.Q 6.! =.+.=.{ =.=.+.=.G.t 7 J : B & 2.Z.1.W ;.=.W e.A.6.",
"y O i S.B.+.X.>._ =.1._ Y :.D.i u e e k e c = 5.D.6.>.=.r.H.t.p ",
"d Q @ 5 C.C.1.! 1.E % _ D.F.c.u w e e z v c p - p l.V.B.b.U ; & "
};
