/* XPM */
static char *_65b9646c1bb433891628d242f520dfdlKpUEKJO2mf0vjcx[] = {
/* columns rows colors chars-per-pixel */
"32 32 89 1 ",
"  c #714C3E",
". c #7C4E3E",
"X c #7F503F",
"o c #764E41",
"O c #7C4F40",
"+ c #7E5041",
"@ c #7E6457",
"# c #834F3E",
"$ c #82503F",
"% c #8B513F",
"& c #845241",
"* c #8B5543",
"= c #8F5846",
"- c #935644",
"; c #955946",
": c #9A5A46",
"> c #945A49",
", c #9A5D4A",
"< c #A35C47",
"1 c #A45D49",
"2 c #AC5F4A",
"3 c #866657",
"4 c #8C6657",
"5 c #846658",
"6 c #8A6758",
"7 c #8D695A",
"8 c #926A5A",
"9 c #9A6C5B",
"0 c #A6604C",
"q c #AB614C",
"w c #A76451",
"e c #AA6652",
"r c #AD6956",
"t c #A56F5D",
"y c #B06652",
"u c #B26A56",
"i c #B76E5A",
"p c #AA705E",
"a c #876D60",
"s c #8C6F60",
"d c #916F60",
"f c #937061",
"g c #9A7363",
"h c #927A6C",
"j c #9A7C6C",
"k c #A47766",
"l c #AD7462",
"z c #AF7D6C",
"x c #B17765",
"c c #B17866",
"v c #B47C6A",
"b c #9D8575",
"n c #9E8576",
"m c #AE806E",
"M c #B8816F",
"N c #A18676",
"B c #A78777",
"V c #AF8271",
"C c #A88877",
"Z c #A28E7F",
"A c #A58F7F",
"S c #AA8A79",
"D c #A88C7B",
"F c #AB8E7D",
"G c #AD8D7C",
"H c #B08271",
"J c #B48675",
"K c #A59282",
"L c #AD9180",
"P c #AA9483",
"I c #AB9484",
"U c #AE9686",
"Y c #AB9888",
"T c #AC9888",
"R c #B49483",
"E c #B19786",
"W c #B69685",
"Q c #B19887",
"! c #B59887",
"~ c #B89987",
"^ c #B19A89",
"/ c #B69988",
"( c #B39F8E",
") c #B49F8E",
"_ c #B99988",
"` c #B89C8B",
"' c #B7A08F",
"] c #B6A291",
"[ c #BCA796",
/* pixels */
"qqqquM__Muqqqqyyiue2qc~_Muqqqeui",
"1111ez__vy01110wee011l!_vy0110er",
";;:;>gQ_v0:-****>>>-*gE_v0:-;>,,",
"***%$dU~c1-&&&..&&&&OsU~c1-&****",
"&***#8U~c1;&&OO+&&&. aI~c1;*$&**",
"78884j^`Ht9866367765@hT`Ht984488",
"nnnnnA)'LBNnnnnnnnnnnZ('LBNnnnnn",
"SSCBBGWWGBBCSFIIFSCBBGRWGSSSCDPY",
"vclpplvvlpplcJ//JclppllccvvxlmE]",
"uy0<10ee0111ev__vy0111<1wrre0l![",
"q1-***>>-***>k/_v0:;-**&*>>-*gE[",
"2<*.O+&&&&X.&gE~c1;*&+..O&&&O7U[",
"q1*+oo+&***&$fU~c1-&+++&&&*&.7U[",
"pt86553788884j^`Vt87667777873hT[",
"BBNnnnnnnnnnnA)'LBNnnnnnnnnnnA)[",
"BBBCSFIIFSSSSGWWGSCBBFPIFSCBBGW_",
"ppplcJ//JvcvvccccclppmW/JclpplvM",
"1111ez__vyrrre00ee011l!_My0110er",
";;-*=gQ_v0,,>--->,;-*gE_Mr:-;;,,",
"***#$fU~c1;*&&&*****&fU_ve;*****",
"****&fU~c1;*&&******&fU_v0;*&***",
"88888j^`Vt98778888888j^`Vt987888",
"nnnnnA)'LBNnnnnnnnnnnA))LBNnnnnn",
"SSCBBGWWGBBCSFIIFSCBBGRWGSSSCDPY",
"vclpplvvlpplcJ//JclppllccvvxlmE]",
"uy0110ee0111ez__vy011111erre0l![",
"q0;-;;;;---;>gQ_v0:;;-**>,,;*gE[",
"2<-&***&&***&fU~c1;**&&&****&8U[",
"q1-*********$dU~c1;*&$&*****$8U[",
"pt98888888884j^_Ht98448888884j^[",
"BBNNNNnnnnnnnA)'LBNnnnnnnnnnnA)[",
"KKKKKKKKKKKKKT]]TKKKKKKKKKKKKY]["
};
