/* XPM */
static char *e5a9b76a701f4059e6e6802aa7a73ea9Ii1PCguhQfxXs6wX[] = {
/* columns rows colors chars-per-pixel */
"32 32 192 2 ",
"   c #326A36",
".  c #3F773B",
"X  c #417438",
"o  c #E73E24",
"O  c #D14327",
"+  c #DB4D29",
"@  c #DB552D",
"#  c #E64727",
"$  c #E44D27",
"%  c #E45429",
"&  c #E65D29",
"*  c #DD632D",
"=  c #D46A2F",
"-  c #DE6B2C",
";  c #DB702B",
":  c #C07432",
">  c #DE7736",
",  c #DC7B33",
"<  c #E86A2B",
"1  c #E7742E",
"2  c #E37B33",
"3  c #EB7C31",
"4  c #E7793A",
"5  c #BC7B4F",
"6  c #BB656E",
"7  c #B86E79",
"8  c #DE584A",
"9  c #DE7E47",
"0  c #D86B57",
"q  c #C4755B",
"w  c #DF7157",
"e  c #E46E52",
"r  c #C87C6B",
"t  c #E17D75",
"y  c #2D863C",
"u  c #368E3F",
"i  c #46873E",
"p  c #50953E",
"a  c #378F42",
"s  c #3E9343",
"d  c #3E9048",
"f  c #4C8940",
"g  c #568A40",
"h  c #449D46",
"j  c #489B45",
"k  c #589547",
"l  c #5B995A",
"z  c #6C9A48",
"x  c #709C50",
"c  c #47A045",
"v  c #4CA346",
"b  c #719E73",
"n  c #65A467",
"m  c #70AA69",
"M  c #79AC75",
"N  c #829F3B",
"B  c #8DA63D",
"V  c #98AC3A",
"C  c #A7B83A",
"Z  c #D78736",
"A  c #EC802F",
"S  c #EB8533",
"D  c #EA8B35",
"F  c #E98836",
"G  c #E38738",
"H  c #E78E3C",
"J  c #E98E3A",
"K  c #F48B32",
"L  c #F18D39",
"P  c #EA933C",
"I  c #EB943C",
"U  c #F49635",
"Y  c #F39C3C",
"T  c #F7A23E",
"R  c #FAA43E",
"E  c #FBA83F",
"W  c #BD8F47",
"Q  c #BA945E",
"!  c #98AF4A",
"~  c #ACBC63",
"^  c #A8BA7A",
"/  c #C18A43",
"(  c #DE8840",
")  c #CB964A",
"_  c #C99754",
"`  c #D79557",
"'  c #EC8E42",
"]  c #EA9441",
"[  c #ED9B44",
"{  c #E99849",
"}  c #F29E43",
"|  c #E99E52",
" . c #E6A043",
".. c #F3A345",
"X. c #F9A644",
"o. c #FAA841",
"O. c #F3A54B",
"+. c #F5AA4D",
"@. c #FAAB4C",
"#. c #FBB14F",
"$. c #EEA351",
"%. c #F4AE56",
"&. c #FAB153",
"*. c #F7B25A",
"=. c #CF8663",
"-. c #D08167",
";. c #CF9568",
":. c #D5966D",
">. c #CA8D7D",
",. c #DE8C76",
"<. c #DC8B7B",
"1. c #E9A969",
"2. c #F2B36D",
"3. c #78B3E1",
"4. c #AE858A",
"5. c #AE8B96",
"6. c #BE9193",
"7. c #86B087",
"8. c #8EB791",
"9. c #97BA96",
"0. c #A5BA8E",
"q. c #9E95B0",
"w. c #CF8984",
"e. c #D89C86",
"r. c #C49E96",
"t. c #D6A988",
"y. c #C2A59B",
"u. c #C9AAA9",
"i. c #DDABA9",
"p. c #C1BAAA",
"a. c #D9B5B7",
"s. c #E3ABA4",
"d. c #EAABA3",
"f. c #E6ACAB",
"g. c #E7B3AE",
"h. c #B3C28E",
"j. c #A6C4A7",
"k. c #B3C3A6",
"l. c #B6C9B8",
"z. c #D5C9AE",
"x. c #C4CFBE",
"c. c #DFC7BD",
"v. c #D1D9B7",
"b. c #EBC3BC",
"n. c #899CC1",
"m. c #8BA1C8",
"M. c #96A5C7",
"N. c #9DADCB",
"B. c #88ABD3",
"V. c #93A6D0",
"C. c #95ACD2",
"Z. c #9AAED3",
"A. c #9EB0D4",
"S. c #9DB2D9",
"D. c #A5ACC6",
"F. c #B8B6C6",
"G. c #A3B4D3",
"H. c #A4BADB",
"J. c #A8B9DB",
"K. c #B6C1C1",
"L. c #BFD2C0",
"P. c #A6C2DE",
"I. c #B8C3D6",
"U. c #B8C5DC",
"Y. c #8BC5E9",
"T. c #A9C4E2",
"R. c #AADAF3",
"E. c #DBC3C1",
"W. c #CAD6CA",
"Q. c #CFDAD1",
"!. c #D3DCD4",
"~. c #D8DFD9",
"^. c #EBC6C4",
"/. c #E6D6D6",
"(. c #DBE1D3",
"). c #DDE3DE",
"_. c #E5E4DA",
"`. c #C4CEE0",
"'. c #CBD6E9",
"]. c #D9DDE9",
"[. c #E1DDE1",
"{. c #D7E0EF",
"}. c #DAE1EE",
"|. c #E7E5E3",
" X c #E5E9E5",
".X c #E8EDE6",
"XX c #ECECEA",
"oX c #F1E9E8",
"OX c #F4F4F4",
"+X c #F7F8F7",
"@X c #F7F8F8",
"#X c #FAFAFA",
/* pixels */
"#X#X#X#X#X#X#X#X#X#X#X#X#X#X#XW.#X#X#X#X#X#X#X#X#X#X#X#X#X#X#X#X",
"#X#X#X#X#X#X#X#X#X#X#X#X#X#XOXM #X#X#X#X#X#X#X#X#X#X#X#X#X#X#X#X",
"#X#X#X#X#X#X#X#X#X#X#XOX).#X!.j #X X!.#X#X#X#X#X#X#X#X#X#X#X#X#X",
"#X#X#X#X#X#X#X#X#X#X#X X9.#XL.j #Xk.(.#X X#X#X#X#X#X#X#X#X#X#X#X",
"#X#X#X#X#X#X#X#X#XOXx.+Xj XXk.v  X! _. X7.#X#X#X#X#X#X#X#X#X#X#X",
"#X#X#X#X#X#X#X#X#X#X^ .XM l.j.v k.C XX8.9.#X#X#X#X#X#X#X#X#X#X#X",
"#X#X#X#X#X#X#X#X#X#Xv.h.j.n 9.h B ~ Q.v l.#X#X#X#X#X#X#X#X#X#X#X",
"#X#X#X#X#X#X#X#X#X#X.XC 9.h d h V h.n c l.#X#X#X#X#X#X#X#X#X#X#X",
"#X#X#X#X#X#X#X#X#X~.OX^ B h u h V k h k 0.#X#X#X#X#X#X#X#X#X#X#X",
"#X#X#X#X#X#X#X#X#X XM l.V k a s g h s B W. X#X#X#X#X#X#X#X#X#X#X",
"#X#X#X#X#X#X#X#X#X#XQ.k z g y y s a N x m ).#X#X#X#X#X#X#X#X#X#X",
"#X#X#X#X#X#X#X#X#X#X#X).b i   X . f p l W.#X#X#X#X#X#X#X#X#X#X#X",
"#X#X#X#X#X#X#X#X#X#X#XoXe.2 - > * = y.OX#X#X#XG.G.#X#X#X#X#X#X#X",
"#X#X#X#X#X#X#X#X#X#Xb.4 2 2 U L K = 3 ,.OX#X#XU.`.#X#X#X#X#X#X#X",
"#X#X#X#X#X#X#X#X#Xd.3 K D J D U D Y S 3 s.#X#X{.].#X#X#X#X#X#X#X",
"#X#X#X#X#X#X#X#XE.< A P ..#.I , @.O.@.2 * /.#X`.].#X#X#X#X#X#X#X",
"#X#X#X#X#X#X#XOXe - Z *.*.[ ] o.H ..I S <.F.U.'.}.#X#X#X#X#X#X#X",
"#X#X#X#X#X#X#X^.< >.m.M.=.Y o.T o.G , X.:.7 ].}.OX#X#X#X#X#X#X#X",
"#X#X#X#X#X#X#Xt 1 M.Y.Y.5...@.+.O.I } H X.* /.#X#X#X#X#X#X#X#X#X",
"#X#X#X#X#X#XOXO L C.R.P.r.J O.@.P E R Y 2 < g.#X#X#X#X#X#X#X#X#X",
"#X#X#X#X#X#X|.$ 2 6.m.q.{ o.I , o.@.O.#.( 1 <.#X#X#X#X#X#X#X#X#X",
"#X#X#X#X#X#X^.& 3 , ..@.+.&.] [ ] &.@.] ..S 0 #X#X#X#X#X#X#X#X#X",
"#X#X#X#X#X#Xf.% D R J [ &.H T E Y H J Y T K @ OX#X#X#X#X#X#X#X#X",
"#X#X#X#X#X#Xi.& K T o.I -.| @.O.&.[ , X.T L +  X#X#X#X#X#X#X#X#X",
"#X#X#X#X#X#Xi.& K } %.F.A.J.t.2.*.J 1.r.1.' + XX#X#X#X#X#X#X#X#X",
"#X#X#X#X#X#Xf.$ D O.u.V.J.H.G.$.G $.I.3.N.* $ XX#X#X#X#X#X#X#X#X",
"#X#X#X#X#X#Xs.# < ; M.H.U.H.Z.r T 1.B.R.T.0 8 #X#X#X#X#X#X#X#X#X",
"#X#X#X#X#X#Xi.o & > C.A.n.V.Z.e.] %.D.H.F.@ w.#X#X#X#X#X#X#X#X#X",
"#X#X#X#X#X#X/.q 9 9 Z.A.V.M.C.t.I } { w.w 6 a.#X#X#X#X#X#X#X#X#X",
"#X#X#X#X#X#XXXQ ) _ S.G.Z.Z.C.t.+.Z - 1 ;.4.[.#X#X#X#X#X#X#X#X#X",
"#X#X#X#X#X#X#Xz.) / M.H.A.A.N.`  .Z : ` ` p.@X#X#X#X#X#X#X#X#X#X",
"#X#X#X#X#X#X#X#XXXc.I.J.A.A.K.;./ W 5 u._.+X#X#X#X#X#X#X#X#X#X#X"
};
