/* XPM */
static char *pineapplesea1706016638[] = {
/* columns rows colors chars-per-pixel */
"32 32 220 2 ",
"   c #397139",
".  c #417438",
"X  c #E73E24",
"o  c #D84928",
"O  c #DB552D",
"+  c #E54A27",
"@  c #E45429",
"#  c #E65D29",
"$  c #DD632D",
"%  c #D46A2F",
"&  c #DE6B2C",
"*  c #CE722F",
"=  c #DE7736",
"-  c #DC7B33",
";  c #E86A2B",
":  c #E7742E",
">  c #E37B33",
",  c #EA7B33",
"<  c #BA6A74",
"1  c #DE584A",
"2  c #DE7E47",
"3  c #D27359",
"4  c #E46E52",
"5  c #C87C6B",
"6  c #E17D75",
"7  c #2D863C",
"8  c #368E3F",
"9  c #4B8E3E",
"0  c #378F42",
"q  c #3E9344",
"w  c #548F49",
"e  c #449D46",
"r  c #489B45",
"t  c #589547",
"y  c #6E9B4C",
"u  c #4BA246",
"i  c #719E73",
"p  c #65A467",
"a  c #70AA69",
"s  c #79AC75",
"d  c #8DA63D",
"f  c #98AC3A",
"g  c #A7B83A",
"h  c #D78736",
"j  c #EC802F",
"k  c #EA8B35",
"l  c #E88837",
"z  c #E98E3A",
"x  c #F48B32",
"c  c #F18D39",
"v  c #EA933C",
"b  c #EB943C",
"n  c #F49635",
"m  c #F39C3C",
"M  c #F7A23E",
"N  c #FAA63E",
"B  c #BC9253",
"V  c #98AF4A",
"C  c #ACBC63",
"Z  c #A8BA7A",
"A  c #C18A43",
"S  c #CB964A",
"D  c #D4904A",
"F  c #D79557",
"G  c #EA9645",
"H  c #ED9B44",
"J  c #EB964A",
"K  c #F29E43",
"L  c #F3A345",
"P  c #FAA841",
"I  c #F3A54B",
"U  c #F1A949",
"Y  c #F7A849",
"T  c #FAAB4C",
"R  c #EEA351",
"E  c #F4AE56",
"W  c #FAB153",
"Q  c #F7B25A",
"!  c #D08E6C",
"~  c #DD8B79",
"^  c #E9A969",
"/  c #F2B36D",
"(  c #57BACA",
")  c #5CBDD3",
"_  c #68BBC9",
"`  c #64BED3",
"'  c #6DBFD4",
"]  c #73BCD4",
"[  c #78B3E1",
"{  c #59C4D6",
"}  c #5CC6DD",
"|  c #5ECADD",
" . c #65C0CE",
".. c #77C4CE",
"X. c #64C4D5",
"o. c #6CC3D5",
"O. c #6AC9D6",
"+. c #64C5DA",
"@. c #6CC6DB",
"#. c #64CBDC",
"$. c #6AC9DC",
"%. c #70C4D6",
"&. c #73C5DB",
"*. c #75CADA",
"=. c #7CCBDB",
"-. c #6DD2DE",
";. c #7DD0DE",
":. c #5FC5E2",
">. c #5FCCE3",
",. c #5FCBE9",
"<. c #5FD2E5",
"1. c #64C6E4",
"2. c #6AC7E0",
"3. c #63CBE2",
"4. c #6ACBE2",
"5. c #64CCEA",
"6. c #75CBE2",
"7. c #6CD3E5",
"8. c #66D4E8",
"9. c #75D3E4",
"0. c #7CD5E4",
"q. c #7DD9E6",
"w. c #7DD6EA",
"e. c #B38B91",
"r. c #8AB48C",
"t. c #97BA96",
"y. c #A5BA8E",
"u. c #9E95B0",
"i. c #CC938B",
"p. c #D89C86",
"a. c #D6A988",
"s. c #C5AC9D",
"d. c #DDABA9",
"f. c #C5B2AA",
"g. c #D9B5B7",
"h. c #E5ABA6",
"j. c #E7B3AE",
"k. c #B3C28E",
"l. c #A6C4A7",
"z. c #B3C3A6",
"x. c #B6C9B8",
"c. c #D2CEB8",
"v. c #899CC1",
"b. c #8BA1C8",
"n. c #98A7C8",
"m. c #93A6D0",
"M. c #95ACD2",
"N. c #9AAED3",
"B. c #85B5D5",
"V. c #9EB0D4",
"C. c #9DB2D9",
"Z. c #A5ACC6",
"A. c #B8B6C6",
"S. c #A3B4D3",
"D. c #A4BADB",
"F. c #A8B9DB",
"G. c #8CC9D6",
"H. c #83CCDC",
"J. c #8ACBDC",
"K. c #98CCD6",
"L. c #8BD4DD",
"P. c #85D9DA",
"I. c #94D5D8",
"U. c #B8C4D9",
"Y. c #83E0DE",
"T. c #8BCDE2",
"R. c #88C9E6",
"E. c #93CDE6",
"W. c #86D2E4",
"Q. c #8CD2E3",
"!. c #8BDBE4",
"~. c #82D5EA",
"^. c #8CD6EB",
"/. c #85DAEA",
"(. c #8DDBEB",
"). c #93D4E5",
"_. c #99D8E5",
"`. c #92D5EA",
"'. c #93DBED",
"]. c #99D9EC",
"[. c #8DDAF1",
"{. c #93DCF2",
"}. c #96DCF1",
"|. c #A9C4E2",
" X c #A3D8EA",
".X c #A5DAF3",
"XX c #89E1E8",
"oX c #9EE1EA",
"OX c #95E3F5",
"+X c #93EBFB",
"@X c #9BEDFD",
"#X c #9CF1FF",
"$X c #A7EBFB",
"%X c #B3E9FF",
"&X c #A7F2FF",
"*X c #ABF5FF",
"=X c #A5FAFF",
"-X c #ACFBFF",
";X c #B9F5FF",
":X c #B3FDFF",
">X c #DBC3C1",
",X c #CAD6CA",
"<X c #CFDAD1",
"1X c #D4DDD5",
"2X c #EBC6C4",
"3X c #E6D6D6",
"4X c #DDE3DB",
"5X c #E5E4DA",
"6X c #C4CEE0",
"7X c #CBD6E9",
"8X c #D9DDE9",
"9X c #C3E1E6",
"0X c #D9E0EE",
"qX c #C0F3FF",
"wX c #C1FFFF",
"eX c #CAFFFF",
"rX c #D5FFFF",
"tX c #E5E7E6",
"yX c #E4E9E5",
"uX c #F0E5E4",
/* pixels */
"#.3.>.3.| 3.>.3.3.3.3.4.+.$./.,XG.$XeX$X*X:X_ $.2.5.,.,.,.,.3.+.",
"#.3.#.3.3.>.>.5.3.+.+.3.+.9.+Xs ).G.G. XoXL.@X$.2.5.,.,.,.,.1.4.",
"#.3.3.3.3.>.>.#.8.#.{ X.0X/.4Xr Q.5X<XG.G.P.-X@.3.,.,.,.,.3.1.' ",
"$.2.#.3.>.>.>.} 7.7.#.yXt.0.x.u '.z.5XI.yXH.-X@.+.3.,.>.>.3.#.o.",
"2.2.3.3.3.>.>.:.#.4.c.#.r 9Xl.u yXV yXyXr...=XO.+.>.>.>.#.#.O.9.",
"#.$.$.2.$.$.#.4.#.O.Z 0Xs x.l.u z.g tXr.t.!.=X@.#.#.>.>.3.#.#.XX",
"2.$.&.&.W.^.(.o. .-.c.k.l.p t.e d C <Xu x.$XOX@.2.3.>.,.5.,.3.o.",
"#.` *.^.;XwXeX:X;. .yXg t.e q e f k.p u x.OXo.$.1.3.3.,.>.5.1.o.",
"{ q.*.$XT.].J.H.-X4X( Z d e 8 e f t u t y.%.6.$.3.3.| 3.<.3.3.{ ",
"#.@.+X^.}.T.`.'.@XtXs x.f t 8 8 t e r f ,X0XX.$.#.#.#.<.#.#.2.9.",
"3.2.+X^.}.R.'.{.@XX.<Xt y 9 0 7 r 0 y y a 5X4.#.#.| #.#.#.$.#.4.",
"{ w.6.@XW.}.6.0.=X$.) 4Xi     .   w t t ,X$.X.#.#.#.| #.#.#.2.) ",
">.) $.~.#X-X:X=X@.( 7.uXp., & > O % s.o.#.$.$.V.S.#.#.#.#.#.$.@.",
">.| +.{ $.&.*. .@.6.j., > > n c x % , ~ #Xw.+.U.6X| <.| #.#.2.&.",
"| <.| -.X.O. .O.o.h., x z k k n k m j > h.-X1.0X0X#.>.3.5.4.1.' ",
"<.{ <.{ 7.O.O.o.>X; j n I W G - T Y Y > $ 3X+X<X0X#.} :.1.1.5.1.",
"| 8.{ -.X.O._ =.4 % l E Q H G P z K G l ~ A.U.7X0X8.5.8.5.1.1.:.",
"8.#.#.{ -.O.7.2X; ! b.m.! m N P P k > Y ~ < 8X0X2.3.} :.1.1.5.<.",
"| -.{ O.-.OXoX6 = n.R.E.e.H T Y U v m z Y ; 3X1.2.3.2.2.4.2.3.| ",
"#.{ 9.;.+XXX!.o c m..XK.i.z I U v N P m > ; j.' +.#.#.$.+.@.+.,.",
"` $.0.+X(.L.uX+ : e.n.u.J P b - Y T I W h : ~ 2.O.+.#.O.O.*.@.2.",
"@.&././.!.).2X# , = L T R T G H G W T z L c 3 o./.-XwXeX-XQ.] 6.",
"*.O.-XQ.].G.h.@ k N z H T G P P M z z m m x O %X_. XeXrX;X.X%X] ",
"` OX/.].J.].d.# x M N G ! R T U W H - Y P c o tXK.K.K._. X.X.X}.",
"O.@X/.Q.).].d.# x K Q A.S.F.a./ Q z ^ i.^ G o yXI.I.P.P.L.'.(.-X",
"$.+X[.R.`.`.h.+ l I f.m.F.D.C.R h R U.[ Z.$ + H.Q.P.Y.Y.;.q.W.#X",
"+.#X{.[.R.{.h.+ ; & n.S.|.F.N.5 K ^ B..X|.4 1 ).P.P.Y.Y.q.0.0.@X",
"@.~.@X[.R.E.d.X @ > N.V.v.m.N.p.J E Z.D.A.O i./.!.!.P.XXXX!.=.-X",
"*.' -X}.^.Q.1X3 D 2 M.V.b.n.M.a.G K J i.3 < g.`.J.L.L.).).E.E.&X",
"o.*.&X&X=.}.R.B S F C.C.N.V.M.a.Y h ; ; ! e.3X:X].J.`._.G. XqX].",
"=._ ..:X*XQ.Q.c.S A Z.F.V.N.M.F H h * F F f.] {.wX}.^.)..XrX.X6.",
"H..._ ..-X*X_.J.yX>XA.F.N.S.x.F B B 3 y.3X1.6.] *.#X=X-X$XB.] ` "
};
