/* XPM */
static char *pineapplefundo1706017975[] = {
/* columns rows colors chars-per-pixel */
"32 32 218 2 ",
"   c #397139",
".  c #417438",
"X  c #E73E24",
"o  c #D84928",
"O  c #DB552D",
"+  c #E54A27",
"@  c #E45429",
"#  c #E65D29",
"$  c #DB672D",
"%  c #CE722F",
"&  c #DE7736",
"*  c #DC7B33",
"=  c #E86A2B",
"-  c #E7742E",
";  c #E37B33",
":  c #EA7B33",
">  c #BC7B4F",
",  c #BA6A74",
"<  c #DE584A",
"1  c #D86B57",
"2  c #D27359",
"3  c #D6755F",
"4  c #E17D75",
"5  c #30893D",
"6  c #4B8E3E",
"7  c #378F42",
"8  c #3E9344",
"9  c #548F49",
"0  c #449D46",
"q  c #489B45",
"w  c #589547",
"e  c #6E9B4C",
"r  c #4BA246",
"t  c #719E73",
"y  c #68A667",
"u  c #79AC75",
"i  c #8DA63D",
"p  c #98AC3A",
"a  c #A7B83A",
"s  c #D78736",
"d  c #EC802F",
"f  c #E98936",
"g  c #E98E3A",
"h  c #F48B32",
"j  c #F18D39",
"k  c #EA933C",
"l  c #EB943C",
"z  c #F49635",
"x  c #F39C3C",
"c  c #F7A23E",
"v  c #FAA63E",
"b  c #BC9253",
"n  c #98AF4A",
"m  c #A9BB72",
"M  c #C18A43",
"N  c #CF934A",
"B  c #D79557",
"V  c #EA9645",
"C  c #ED9B44",
"Z  c #EB964A",
"A  c #F29E43",
"S  c #F3A345",
"D  c #FAA841",
"F  c #F3A54B",
"G  c #F1A949",
"H  c #F7A849",
"J  c #FAAB4C",
"K  c #EEA351",
"L  c #F4AE56",
"P  c #F9B256",
"I  c #D08E6C",
"U  c #DD8B79",
"Y  c #EDAE6B",
"T  c #287ECC",
"R  c #5E9DB6",
"E  c #6F8DBA",
"W  c #6CA8B0",
"Q  c #78CEAD",
"!  c #65C8BC",
"~  c #6EDDBE",
"^  c #76D8B8",
"/  c #75E4BE",
"(  c #7CE4BE",
")  c #7CEABF",
"_  c #2C80C4",
"`  c #2781CE",
"'  c #2A83CC",
"]  c #2C8CCF",
"[  c #348DCC",
"{  c #388AC9",
"}  c #3D93C6",
"|  c #3594CD",
" . c #3B94CB",
".. c #369ACD",
"X. c #3D9CCB",
"o. c #2B86D1",
"O. c #2C8DD1",
"+. c #358DD0",
"@. c #2E93D1",
"#. c #2F9CD0",
"$. c #3195D0",
"%. c #329BD1",
"&. c #3CA1CF",
"*. c #34A4D2",
"=. c #35A9D3",
"-. c #4F96C5",
";. c #429CCD",
":. c #4899CD",
">. c #46A9C7",
",. c #4BACC6",
"<. c #43A4C9",
"1. c #48A6C8",
"2. c #4BADC9",
"3. c #56ABC9",
"4. c #4EB2C6",
"5. c #4EB2C9",
"6. c #55B3C6",
"7. c #5AB5C5",
"8. c #55BBC5",
"9. c #5CBCC6",
"0. c #54B5C9",
"q. c #56BBC9",
"w. c #5BBBC9",
"e. c #67A8CB",
"r. c #7AADCD",
"t. c #65BAC7",
"y. c #79ACD0",
"u. c #77B4D1",
"i. c #78B3E1",
"p. c #5DC4C4",
"a. c #5EC6C6",
"s. c #64C4C6",
"d. c #63CCC3",
"f. c #69C9C8",
"g. c #76CCC8",
"h. c #66D1C2",
"j. c #6AD4C2",
"k. c #6DDAC1",
"l. c #74DCC3",
"z. c #7CDCC6",
"x. c #76E2C2",
"c. c #7BE4C1",
"v. c #7DE9C0",
"b. c #B38B91",
"n. c #8AB48C",
"m. c #97BA96",
"M. c #A5BA8E",
"N. c #9292B3",
"B. c #CC938B",
"V. c #D89C86",
"C. c #D6A988",
"Z. c #C5AC9D",
"A. c #D1AFA9",
"S. c #D9B5B7",
"D. c #E5ABA6",
"F. c #E7B3AE",
"G. c #8ED49D",
"H. c #98DC9B",
"J. c #B3C28E",
"K. c #A3DD93",
"L. c #98E297",
"P. c #9CE29D",
"I. c #A5E292",
"U. c #8DD5A4",
"Y. c #86D7AA",
"T. c #87DEB2",
"R. c #A6C4A7",
"E. c #B3C3A6",
"W. c #B6C9B8",
"Q. c #97E1A1",
"!. c #89E4B6",
"~. c #D2CEB8",
"^. c #EBC3BC",
"/. c #88A4C9",
"(. c #98A7C8",
"). c #85B5CD",
"_. c #94BBCD",
"`. c #86ADD2",
"'. c #93A6D0",
"]. c #95ACD2",
"[. c #9AAED3",
"{. c #86B6D2",
"}. c #9EB0D4",
"|. c #98B8D5",
" X c #A5ACC6",
".X c #B8B6C6",
"XX c #A3B4D3",
"oX c #A4BADB",
"OX c #A8B9DB",
"+X c #9DC6D5",
"@X c #B8C8C8",
"#X c #A8C7D5",
"$X c #B7C6D8",
"%X c #B8D5D7",
"&X c #85E4C3",
"*X c #8DE5C4",
"=X c #84EAC1",
"-X c #8BEBC3",
";X c #87E2C8",
":X c #97EAC7",
">X c #A4EEC9",
",X c #A6EEC9",
"<X c #8BC5E9",
"1X c #AAD3ED",
"2X c #CAD6CA",
"3X c #CCD9D3",
"4X c #D4DDD5",
"5X c #EBC6C4",
"6X c #E6D6D6",
"7X c #DDE3DB",
"8X c #E5E4DA",
"9X c #C4CEE0",
"0X c #CBD6E9",
"qX c #DADDE8",
"wX c #D8E2E9",
"eX c #E4E9E5",
"rX c #E9E9E4",
"tX c #F0E5E4",
/* pixels */
">X>X,X,X,X:X:X:X-X-X=X=X=Xv.!.2X) ) ) ) ) ( =X!.-X-X!.=X=X=X=X-X",
":X>X>X:X:X:X:X-X-Xv.=Xv.v.v.) u / ) / / / ( =X&X!.!.&X( v.v.=X=X",
">X:X:X:X:X*X-X&Xx.c.x.c.wX~ 4Xr / eX3X/ / ( !.( Q.P.=Xc.x.x.x.v.",
":X:X:X:X*X;X&Xc.x.x.x.eXR.~ W.r / E.4X~ eXH.Q.!.Q.P.( Q.Q.x.x.x.",
":X*X*X&X&Xz.z.^ ~ ~ W.k.0 4XW.r 7Xn rXrXn.L.T.Q.L.L.L.Q.L.^ ~ k.",
";X;Xg.g.z.g.l.j.h.j.m eXu W.R.r R.a rXn.m.~ ^ Y.I.H.I.Q ^ h.j.j.",
"z.z.f.f.s.7.d.h.h.h.~.J.R.y m.0 i m 2Xr W.j.Y.P.K.K.L.h.h.j.d.d.",
"z.s.s.2.3.a.d.d.d.h.eXa m.8 8 8 p J.y r W.Q U.! Q U.Q U.a.a.d.a.",
"f.t.9.2.<.,.6.s.s.7XW J.p q 5 8 p w r w M.! G.Y.p.! U.Q p.p.p.p.",
"f.s.s.0.6.7.7.! t.rXu W.p 6 7 q w 0 0 p 2X7X8.8.p.8.9.s.s.p.8.8.",
"s.a.w.2.2.9.t.9.9.N.2Xq w 9 5 5 q 7 e e y 8X0.8.8.8.9.t.9.t.8.8.",
"a.w.q.8.4.8.9.7.7.e.E 8Xt 6     . 6 w w 2X0.4.4.4.6.w.7.7.9.0.4.",
"q.w.0.4.2.4.6.6.6.2.,.tXV.; = & # % b.e.2.2.,.XX X,.7.7.7.6.,.2.",
"0.5.2.2.<.<.>.>.>.>.^.; ; - z j h $ : U E 1.,.$X0X1.,.,.5.,.>.,.",
"2.2.2.<.<.<.>.>.-.D.: h f k f z f x d : D.<.&.qXqX<.>.<.<.<.<.<.",
"2.<.&.&.&.&.X.X.^.- : z S J l s J F J ; $ 6XX.3XqX;.&.;.X.;.X.X.",
"<.<.X.X. .X. . .1 & s P P C C D g F l f B..X9X0XwXe.e.;.} ......",
"<.X.X.X. .|  .5X= U /.[.I x v c D f ; H U , qXqX| u.r.3._.}  . .",
"&.%.;.:.;.[ +.4 - (.<X<Xb.C H G F k x g H # 6X{ } } u._.r.| | [ ",
"%.X.;.;.;.[ [ o j (.1X#Xb.g F J k D D x * = F.:._.r.#X_.`.y.[ ] ",
"%. . .:.y.{ 6X@ ; b.(.N.C J l * D J K J V = U :.e.e.)._.r.).{ ] ",
"%.%.@.$X`.#X5X# : * c J G L V C V P J l S f 2 { ' ' r.`.' ' ' [ ",
"%.@.@.|.{ |.F.@ h v g C P V D D x k g x x h O ' T T ' _ ] ' ' _ ",
"#.#.+. .).[.A.# h v v l 3 K J L P A * S c j o wXT T ` ` ` ` ` T ",
"%.%. .@.{ %XA.@ h A L .X}.OXC.Y P f Y Z.Y j o qXo.T ` ` ` ` ` T ",
"&.%X#X+X%X@XD.+ f L A.'.OXoX}.K V K OXi.(.$ + W R o.` T ` ` ` ` ",
"1.+X#.;.{.3XD.+ = $ (.OX$X}.[.I A Y `.1X#X1 < W W T T T ` ' ` o.",
"=.u.<Xu.$.#XF.X # - '.}./.'.[.B.Z K  XoX.X@ U T T T T ` o.' o.o.",
"*.=.*.%...+X4X2 s B (.}.'.(.'.C.g A Z B.1 , S.W ` ' +.` o.] ] ] ",
"=.*.*.*...%XqXb b N }.}.].[.].C.J s = = I b.6X:.o.] +.] o.O.O.@.",
"=.=.=.*.*.3.u.~.N M (.OX}.}._.B V s % B B E.` ] O.O.O.O.@.@.@.%.",
"=.=.=.*.*.*.#.#.eX^.$XOX}.}.@XB M b > Z.8XO.O.] ] @.@.@.@.@.%.%."
};
