/* XPM */
static char *ce358f3a3fa14567a2f9fcefe214a8b8[] = {
/* columns rows colors chars-per-pixel */
"32 32 189 2 ",
"   c None",
".  c black",
"X  c #000001",
"o  c #000101",
"O  c #000205",
"+  c #020305",
"@  c #000006",
"#  c #020406",
"$  c #00020F",
"%  c #02070F",
"&  c #04080C",
"*  c #05090D",
"=  c #120400",
"-  c #1D0600",
";  c #000711",
":  c #070C12",
">  c #090F15",
",  c #000618",
"<  c #030D18",
"1  c #040D18",
"2  c #0B1218",
"3  c #0D141B",
"4  c #0D151B",
"5  c #121115",
"6  c #10181F",
"7  c #310D00",
"8  c #21150B",
"9  c #331300",
"0  c #3D1400",
"q  c #221A11",
"w  c #251B16",
"e  c #2F1915",
"r  c #2B2016",
"t  c #38261A",
"y  c #001222",
"u  c #061422",
"i  c #061627",
"p  c #0A1A2B",
"a  c #081A2D",
"s  c #0A1B2C",
"d  c #131B24",
"f  c #131D25",
"g  c #141E27",
"h  c #151E27",
"j  c #151F28",
"k  c #151C2D",
"l  c #001D33",
"z  c #001E33",
"x  c #162029",
"c  c #18222C",
"v  c #1A242F",
"b  c #0D2134",
"n  c #0E2134",
"m  c #0F2337",
"M  c #1B2631",
"N  c #10253A",
"B  c #11253B",
"V  c #12273D",
"C  c #202C39",
"Z  c #212D3A",
"A  c #212E3A",
"S  c #461B00",
"D  c #561F00",
"F  c #571F00",
"G  c #5A2200",
"H  c #572614",
"J  c #46301F",
"K  c #632700",
"L  c #662600",
"P  c #6E2B00",
"I  c #453228",
"U  c #523E2D",
"Y  c #5E4432",
"T  c #62442E",
"R  c #674C35",
"E  c #69533E",
"W  c #7C573B",
"Q  c #7A573C",
"!  c #002244",
"~  c #132940",
"^  c #132A42",
"/  c #122A43",
"(  c #102A45",
")  c #132B44",
"_  c #112B47",
"`  c #142C45",
"'  c #142D46",
"]  c #152E47",
"[  c #112C48",
"{  c #142E48",
"}  c #152E48",
"|  c #16304B",
" . c #16314D",
".. c #16324D",
"X. c #1B3C5E",
"o. c #263442",
"O. c #2B415F",
"+. c #314152",
"@. c #324254",
"#. c #354759",
"$. c #34485A",
"%. c #35485A",
"&. c #37495B",
"*. c #384C5F",
"=. c #1C4167",
"-. c #1E4368",
";. c #1E446B",
":. c #3E5267",
">. c #244F7B",
",. c #24507D",
"<. c #4F4D56",
"1. c #7E5B43",
"2. c #43596F",
"3. c #445B71",
"4. c #465C73",
"5. c #465D74",
"6. c #475E75",
"7. c #4A627A",
"8. c #4B637B",
"9. c #7D6A61",
"0. c #8C3700",
"q. c #A04000",
"w. c #825C3F",
"e. c #8A5B3E",
"r. c #8E593D",
"t. c #A45F40",
"y. c #8A6244",
"u. c #8F6848",
"i. c #956447",
"p. c #936349",
"a. c #916A4B",
"s. c #8B7159",
"d. c #907255",
"f. c #A76646",
"g. c #BA6F4D",
"h. c #AE7151",
"j. c #A37957",
"k. c #A57A57",
"l. c #AF7D57",
"z. c #B07B5B",
"x. c #9E7F62",
"c. c #B6835D",
"v. c #9A806F",
"b. c #A78667",
"n. c #BF8A60",
"m. c #BD8C64",
"M. c #B68D6B",
"N. c #A78A74",
"B. c #CB885F",
"V. c #C48360",
"C. c #CC9468",
"Z. c #D8966B",
"A. c #CB9F78",
"S. c #D59D76",
"D. c #C9A37D",
"F. c #DAA078",
"G. c #E0A475",
"H. c #265280",
"J. c #265382",
"K. c #265483",
"L. c #275484",
"P. c #275585",
"I. c #275586",
"U. c #275686",
"Y. c #285788",
"T. c #285889",
"R. c #29588A",
"E. c #29598B",
"W. c #29598C",
"Q. c #295A8C",
"!. c #9EA1A6",
"~. c #D1AA83",
"^. c #D4A880",
"/. c #DAAF86",
"(. c #DDB38A",
"). c #E5B287",
"_. c #EBB689",
"`. c #EAB98D",
"'. c #EDBA8C",
"]. c #EABC90",
"[. c #EBBC90",
"{. c #EDBD91",
"}. c #EFBF91",
"|. c #EBBF94",
" X c #F1C396",
".X c #F3C597",
"XX c #F4C699",
"oX c #EDCDB1",
"OX c #DFDAD8",
/* pixels */
"                                                                ",
"                                                                ",
"                                                                ",
"                                                                ",
"                  . < [ ( =.;.[ ( . (                           ",
"                    % -.Y.P.a X.E.} ..i                         ",
"                      . ^ J.Q.Q.E.J.J.P.                        ",
"                    n V ` K.E.E.E.E.E.P..                       ",
"                    p B >.K.E.E.E.E.,...^ .                     ",
"                    n ( ( } Q.P.O.E.E.` a                       ",
"                    ^ | V ` J.<.|.9.Q.} u                       ",
"                    . ` | ` ! G..XN.;.n 1                       ",
"                    . } B e !.OXR p.t . .                       ",
"                    . n . t.v.oX`.XXA.                          ",
"                    . l g.M.H c._.^..     W b.                  ",
"                  q x.l V. X{.C.T m.w.J . k.a.].                ",
"                  r k 5 E h.{.).).F.d.U . j.u.].                ",
"                  (.i.s.D.~.z.B.S.e.Z.r.Y y y.                  ",
"                  l., 1.'./.O ; $   Q f.n.. .                   ",
"                    # 8 I w * * 2 2                             ",
"                      d 2.$.j x @.4.$.O                         ",
"                    v 2.8.8.v . h 3.8.#.                        ",
"                    A 5.5.$.. . . 3 +.> .                       ",
"                  . . h M . .   . 3 c c :                       ",
"                  . A o.6 *       A 5.:.d                       ",
"                  O $.*.f         - 7 0                         ",
"                  S K S =         9 P q.L                       ",
"                  0.q.G               D D .                     ",
"                  . . .                                         ",
"                                                                ",
"                                                                ",
"                                                                "
};
