/* XPM */
static char *sand1706013318[] = {
/* columns rows colors chars-per-pixel */
"32 32 25 1 ",
"  c #E9CAA8",
". c #E9CBA8",
"X c #E9CBA9",
"o c #E9CEAA",
"O c #E9CEAC",
"+ c #E9CFAE",
"@ c #E9CEAF",
"# c #E9D0AC",
"$ c #E9D0AD",
"% c #E9D1AE",
"& c #E9D1B0",
"* c #E9D1B1",
"= c #E9D2B0",
"- c #E9D2B3",
"; c #EAD3B3",
": c #EAD4B2",
"> c #EAD6B4",
", c #EAD4B6",
"< c #EAD8B6",
"1 c #EAD7B8",
"2 c #EAD9B8",
"3 c #EADABA",
"4 c #EAD8BC",
"5 c #EADABC",
"6 c #EADBC1",
/* pixels */
" O;<<2552<>>>2<>>;,,22353>>>>>oO",
" O>><2552>>>>22>-;>>22332,>>>>$o",
"oO:><2552>>>><<>2>>2>2552>>>2>$o",
"o$:>225222>12<<<,>>>23532222>,$o",
"o$;>252222222><22>>,55223,332>#o",
"O$:<5211>25522<>22>22322>2332>#o",
"O;>>12>><2225211232>22>>222232> ",
"$$12<<>>>12225>13322,,>>>,222># ",
"o;552>>>>>2222>>,2532>>>22>22>$o",
"o$5622>1152><>>>,2322>,,2222,>$ ",
" O>22>->56221<2>,,222>,,3632>>$o",
" O>1>>-16621222>>>>2>>-1563,22$ ",
"oO>>1>>15522522>=>>22>>1552232$o",
"oO>222122521552>>>>22222551232;O",
" O>2662221>1552>>>>2522222>252$$",
"OO:2662<>>>255212,22551>>><222$ ",
"+=<2652;;;;2,2266632553,>>>22>%+",
"@;;255;;;<;2225563,255,,==>222%+",
" %;2552;;<225552,132662>,>2265=+",
" +<2232;<<2;552<,;>236,>,>>265= ",
"o%:;22<<<<<<552;,>>>2222>>,>55= ",
" %;;<2<<<;,;2222>>>,2,>22>=,11= ",
"oo%;;22252,,222;2>>,>222332,2,=%",
"o%;2<2;2552;;2222>,,2>>2632>>>%o",
"o=26,2,2662<<26631562>,3663,2>%%",
" ;6622<2565222453166322256332>=+",
"o%452;2;2552222,,2552>>,33552>+ ",
" =;5222;<2552;;=,,5322>>,3332,+ ",
" +>2552;<<<2;;==,=,335,>,222,>  ",
".+>,22<;::::<;;>>=>>31>,>=>>,>#.",
".%%%;==+%++%==% %%%%%;%%% %%=%+ ",
"#. +@%%    +==%o o %%%%..  %=%%."
};
