/* XPM */
static char *mar1706013318[] = {
/* columns rows colors chars-per-pixel */
"32 32 152 2 ",
"   c #5CB5C6",
".  c #53B5CE",
"X  c #57BACD",
"o  c #5DBBCD",
"O  c #4FBCD9",
"+  c #54BDD2",
"@  c #5CBDD4",
"#  c #57BFDA",
"$  c #5DBCD8",
"%  c #65BCC4",
"&  c #6DBBC5",
"*  c #66B4CA",
"=  c #63BCCC",
"-  c #6BBFCC",
";  c #63BDD3",
":  c #69BFD2",
">  c #69BFD8",
",  c #79BFD9",
"<  c #52C2D6",
"1  c #5CC3D6",
"2  c #51C9D7",
"3  c #5BCBD7",
"4  c #53C3DC",
"5  c #5CC5DB",
"6  c #53C9DA",
"7  c #5CCADC",
"8  c #5FD0DE",
"9  c #67C0C6",
"0  c #6DC2CC",
"q  c #70C2CE",
"w  c #70CACB",
"e  c #63C3D5",
"r  c #6BC4D4",
"t  c #63C8D6",
"y  c #6BCAD5",
"u  c #63C5DB",
"i  c #6BC5DC",
"p  c #63CADD",
"a  c #6BCBDD",
"s  c #72C3D3",
"d  c #7CC6D3",
"f  c #73CBD7",
"g  c #78CAD5",
"h  c #71C6DC",
"j  c #7DC5DC",
"k  c #73CBDD",
"l  c #7BCCDD",
"z  c #6AD0DF",
"x  c #74D0DF",
"c  c #7ED1DE",
"v  c #57C5E0",
"b  c #5DC6E2",
"n  c #5DCCE3",
"m  c #5AC7E8",
"M  c #5BCCEA",
"N  c #5ED3E3",
"B  c #63C6E1",
"V  c #64CBE2",
"C  c #6BCCE4",
"Z  c #64CDE9",
"A  c #6ACEE9",
"S  c #72C7E1",
"D  c #72CCE1",
"F  c #7CCDE2",
"G  c #65D1E3",
"H  c #6CD2E4",
"J  c #64D4E9",
"K  c #6CD2EA",
"L  c #6CDBEC",
"P  c #74D1E4",
"I  c #7DD3E5",
"U  c #72D4E9",
"Y  c #7BD5EC",
"T  c #66D3F2",
"R  c #6DD6F3",
"E  c #6CD9F4",
"W  c #76DAF2",
"Q  c #80C6CE",
"!  c #86C5D7",
"~  c #83CBD5",
"^  c #8BCAD3",
"/  c #81C5D9",
"(  c #8BC5DB",
")  c #83CCDC",
"_  c #8CCDDC",
"`  c #92C7D5",
"'  c #92CAD7",
"]  c #92C6DB",
"[  c #93CCDD",
"{  c #98CDDF",
"}  c #84D2DE",
"|  c #8AD3DD",
" . c #91D3DE",
".. c #91D8DC",
"X. c #83CDE4",
"o. c #8CCDE2",
"O. c #8FCFE9",
"+. c #94CDE3",
"@. c #99CFE7",
"#. c #84D3E5",
"$. c #8CD4E3",
"%. c #83D8E4",
"&. c #8DD9E5",
"*. c #83D4EA",
"=. c #8CD5EC",
"-. c #82D8EB",
";. c #8CDBEC",
":. c #92D4E3",
">. c #93DAE3",
",. c #9ADBE4",
"<. c #94D5EB",
"1. c #9BD4EA",
"2. c #94DCEC",
"3. c #9BDDE9",
"4. c #85DFF4",
"5. c #8CDCF1",
"6. c #90D6F0",
"7. c #93DEF4",
"8. c #9BDDF3",
"9. c #A4DCEC",
"0. c #A2DBF2",
"q. c #95E2EE",
"w. c #9EE7EE",
"e. c #86E6F5",
"r. c #8DE0F5",
"t. c #8EEBFC",
"y. c #94E3F3",
"u. c #9AE3F3",
"i. c #96E8F6",
"p. c #95E5F9",
"a. c #9CE5F9",
"s. c #96EEFF",
"d. c #9CEBFD",
"f. c #95F6FF",
"g. c #9CF2FF",
"h. c #AAE3F2",
"j. c #A5EBF5",
"k. c #A2E2FA",
"l. c #A3EDFE",
"z. c #AAEDFB",
"x. c #B2EBFF",
"c. c #A3F4FF",
"v. c #ABF4FF",
"b. c #A5FDFF",
"n. c #ABFAFF",
"m. c #B3F4FE",
"M. c #BEF6FF",
"N. c #B4FEFF",
"B. c #BBFFFF",
"V. c #C3FFFF",
"C. c #CAFEFF",
"Z. c #D2FFFF",
/* pixels */
"1 u u e p V V V + U t P c.V.l.v.N.7.r u p K 7 7 a y e e a V B V ",
"p P k f x a . W B 1 p C u ; 4.*.r C C $ U r : l r.i.%.r = a u A ",
"t r = % 0 i Y $ $ U 1 u B B B A A ; p A $ l u.m.V.C.C.l.F f u K ",
"r %.g.B.C.d.r i C 5 Z m R Z A B B W 7 X D z.@.{ 9.h.3.3.c.k @ 5 ",
"P ;.2.>.>.q.c.0 P V 5 E O # Z Z B B p V I u.1.' ` '  .3.u.5.C C ",
"*.y.>. ._ $.d.c r C 7 n Z Z v V J C 1 p f.c $.| ..,. .&.} c.i C ",
"5.y.=. .,. .u.k r H p V m Z b V V u u H f.%.| >.Q Q >.| $.n.h i ",
"S 5.:.:._ q.d.c y p p 7 b V p C u p t z e.;.&.~ q.3.d $.;.d.i > ",
"-.d.a.6.o.p.y.D e t p 7 V 7 p C p a p 1 C n.$.:. . .$.} b.-.; B ",
"; i F a.n.I D y o t G 7 p 5 p C p C H 1 t a.v.o.( ) $.v.s.y 5 J ",
"C C i S S B u p 7 N J 7 3 p p V u V H 5 C > #.B.B.N.N.-.i u V Z ",
"u K A B $ A $ J G G J 3 7 G p V 5 C A b J p p o r 0 = y a V V n ",
"7 Z p A C B $ C V 7 J N N n t V V A Z 4 n n C H e e D y t D u u ",
"N 7 3 a i , *.; u M 4 M 6 G 3 p G 7 v M T T # K 5 t a P ; r : d ",
"8 3 L i.l.C.;.i $ 5 E 4 E 1 3 t t 5 Z T m M V A A u D @ f c q.B.",
"7 p -.a.u.:.c.;.Y H 1 C 1 z 0 y y r u B B m A B B B a o ;.;.|  .",
"p D 5.8.( | $.d.  r C i D - s g 0 % r D u Z V A $ a i I d.q.&.| ",
"u a 6.k.0.2.} y.k F %.h ;.n.j.j.j.&.s r y H 5 A @ i *.p.q.l }  .",
"p t X.8.k.u.b.q l * l 3.v.Z.Z.Z.C.z.| d r a 5 p D : a.y.) 2.&.| ",
"G e p D c c g y s #.N._ ! @.M.C.9. .z.j.0 t 1 u k F d.=.) | &.$.",
"p 7 p p t t y r I c./ 0.+.0.] { h.h.,.3.u.t 3 t ; p.a.$.<.$.&.&.",
"1 z 3 8 p G H r g.#.:.o.1.+.@.1.[ ,.:._ N.a p t : d.7./ 2.:.&.$.",
"k X L 2 2 V C p s.;.O.<.+.1.+.1.[ +.:.[ c.P p y 0 n.$._ <.$.$.$.",
"j r H 8 2 6 K e b.X.;.<.O.6.O.6.O.o.o. .2.e.p z : N.$.<.:.$.$.=.",
"<.F r n n 7 G y b.%.) 2.$.o.=.6.<.<.$.' u.t.a i : d.k.:.:.&.$.$.",
"x., i + N 7 C @ N.} $._ <.X.7.=.*.y.( _ N.4.p t h X.B.o.$.$.$.&.",
"x.X.S 5 J V a = c.>.,.~ >.#.p.X.X.7._ 9.B.f u i k , B.&.#.$.%.=.",
"k.7.S Z G H   %.& N...3.} =.;.F #.$.,.m.h.i u D h s q.l.q.&.$.$.",
"n.F A 7 7 p a % g 2.V.~ | $.) _ <.$.j.B./ a u P o h : B.l.$.:.$.",
"N.S 5 v J V i i i S ;.v.V.w.^ ..m.C.z.X.S V < G G H t k n.m.0.] ",
"p.; V G 4 7 V V u S a X.&.B.V.V.u.) F i B b N J 7 6 5 o h m.V.C.",
"j S C K V 7 7 V n B u r y 9 9 w 0 y H B V V H G 3 p H p h * j k."
};
